<?xml version="1.0" encoding="UTF-8"?>
<svg id="_图层_2" data-name="图层 2" xmlns="http://www.w3.org/2000/svg" viewBox="0 0 813.06 813.06">
  <defs>
    <style>
      .cls-1 {
        opacity: .91;
      }

      .cls-2 {
        fill: #39b54a;
      }
    </style>
  </defs>
  <g id="_图层_1-2" data-name="图层 1">
    <g class="cls-1">
      <path class="cls-2" d="M361.86,8.49c2.33,0,4.21-1.89,4.21-4.21S364.19,.06,361.86,.06s-4.21,1.89-4.21,4.21,1.89,4.21,4.21,4.21Z"/>
      <path class="cls-2" d="M406.56,8.55c2.36,0,4.28-1.91,4.28-4.28s-1.91-4.28-4.28-4.28-4.28,1.91-4.28,4.28,1.91,4.28,4.28,4.28Z"/>
      <path class="cls-2" d="M272.47,30.84c2.33,0,4.21-1.89,4.21-4.21s-1.89-4.21-4.21-4.21-4.21,1.89-4.21,4.21,1.89,4.21,4.21,4.21Z"/>
      <path class="cls-2" d="M317.17,31.15c2.5,0,4.52-2.03,4.52-4.52s-2.03-4.52-4.52-4.52-4.52,2.03-4.52,4.52,2.03,4.52,4.52,4.52Z"/>
      <path class="cls-2" d="M428.91,31.4c2.64,0,4.77-2.14,4.77-4.77s-2.14-4.77-4.77-4.77-4.77,2.14-4.77,4.77,2.14,4.77,4.77,4.77Z"/>
      <path class="cls-2" d="M473.61,31.27c2.57,0,4.65-2.08,4.65-4.65s-2.08-4.65-4.65-4.65-4.65,2.08-4.65,4.65,2.08,4.65,4.65,4.65Z"/>
      <path class="cls-2" d="M518.31,31.03c2.43,0,4.4-1.97,4.4-4.4s-1.97-4.4-4.4-4.4-4.4,1.97-4.4,4.4,1.97,4.4,4.4,4.4Z"/>
      <path class="cls-2" d="M227.77,53.31c2.4,0,4.34-1.94,4.34-4.34s-1.94-4.34-4.34-4.34-4.34,1.94-4.34,4.34,1.94,4.34,4.34,4.34Z"/>
      <path class="cls-2" d="M339.52,54.18c2.88,0,5.21-2.33,5.21-5.21s-2.33-5.21-5.21-5.21-5.21,2.33-5.21,5.21,2.33,5.21,5.21,5.21Z"/>
      <path class="cls-2" d="M384.21,54.3c2.94,0,5.33-2.39,5.33-5.33s-2.39-5.33-5.33-5.33-5.33,2.39-5.33,5.33,2.39,5.33,5.33,5.33Z"/>
      <path class="cls-2" d="M540.66,53.68c2.6,0,4.71-2.11,4.71-4.71s-2.11-4.71-4.71-4.71-4.71,2.11-4.71,4.71,2.11,4.71,4.71,4.71Z"/>
      <path class="cls-2" d="M585.36,53.25c2.36,0,4.28-1.91,4.28-4.28s-1.91-4.28-4.28-4.28-4.28,1.91-4.28,4.28,1.91,4.28,4.28,4.28Z"/>
      <path class="cls-2" d="M183.07,75.54c2.33,0,4.21-1.89,4.21-4.21s-1.89-4.21-4.21-4.21-4.21,1.89-4.21,4.21,1.89,4.21,4.21,4.21Z"/>
      <path class="cls-2" d="M250.12,76.34c2.77,0,5.02-2.25,5.02-5.02s-2.25-5.02-5.02-5.02-5.02,2.25-5.02,5.02,2.25,5.02,5.02,5.02Z"/>
      <path class="cls-2" d="M294.82,76.72c2.98,0,5.39-2.41,5.39-5.39s-2.41-5.39-5.39-5.39-5.39,2.41-5.39,5.39,2.41,5.39,5.39,5.39Z"/>
      <path class="cls-2" d="M406.56,77.15c3.22,0,5.83-2.61,5.83-5.83s-2.61-5.83-5.83-5.83-5.83,2.61-5.83,5.83,2.61,5.83,5.83,5.83Z"/>
      <path class="cls-2" d="M451.26,77.15c3.22,0,5.83-2.61,5.83-5.83s-2.61-5.83-5.83-5.83-5.83,2.61-5.83,5.83,2.61,5.83,5.83,5.83Z"/>
      <circle class="cls-2" cx="495.96" cy="71.32" r="5.58"/>
      <path class="cls-2" d="M630.06,75.54c2.33,0,4.21-1.89,4.21-4.21s-1.89-4.21-4.21-4.21-4.21,1.89-4.21,4.21,1.89,4.21,4.21,4.21Z"/>
      <circle class="cls-2" cx="205.42" cy="93.67" r="4.96"/>
      <path class="cls-2" d="M317.17,99.75c3.35,0,6.07-2.72,6.07-6.07s-2.72-6.07-6.07-6.07-6.07,2.72-6.07,6.07,2.72,6.07,6.07,6.07Z"/>
      <path class="cls-2" d="M361.86,99.99c3.49,0,6.32-2.83,6.32-6.32s-2.83-6.32-6.32-6.32-6.32,2.83-6.32,6.32,2.83,6.32,6.32,6.32Z"/>
      <path class="cls-2" d="M428.91,100.06c3.53,0,6.38-2.86,6.38-6.38s-2.86-6.38-6.38-6.38-6.38,2.86-6.38,6.38,2.86,6.38,6.38,6.38Z"/>
      <path class="cls-2" d="M473.61,99.93c3.46,0,6.26-2.8,6.26-6.26s-2.8-6.26-6.26-6.26-6.26,2.8-6.26,6.26,2.8,6.26,6.26,6.26Z"/>
      <path class="cls-2" d="M518.31,99.56c3.25,0,5.89-2.64,5.89-5.89s-2.64-5.89-5.89-5.89-5.89,2.64-5.89,5.89,2.64,5.89,5.89,5.89Z"/>
      <circle class="cls-2" cx="563.01" cy="93.67" r="5.45"/>
      <path class="cls-2" d="M138.37,120.48c2.46,0,4.46-2,4.46-4.46s-2-4.46-4.46-4.46-4.46,2-4.46,4.46,2,4.46,4.46,4.46Z"/>
      <path class="cls-2" d="M227.77,121.79c3.18,0,5.76-2.58,5.76-5.76s-2.58-5.76-5.76-5.76-5.76,2.58-5.76,5.76,2.58,5.76,5.76,5.76Z"/>
      <path class="cls-2" d="M272.47,122.28c3.46,0,6.26-2.8,6.26-6.26s-2.8-6.26-6.26-6.26-6.26,2.8-6.26,6.26,2.8,6.26,6.26,6.26Z"/>
      <path class="cls-2" d="M339.52,122.72c3.7,0,6.69-3,6.69-6.69s-3-6.69-6.69-6.69-6.69,3-6.69,6.69,3,6.69,6.69,6.69Z"/>
      <path class="cls-2" d="M384.21,122.9c3.8,0,6.88-3.08,6.88-6.88s-3.08-6.88-6.88-6.88-6.88,3.08-6.88,6.88,3.08,6.88,6.88,6.88Z"/>
      <path class="cls-2" d="M428.91,122.9c3.8,0,6.88-3.08,6.88-6.88s-3.08-6.88-6.88-6.88-6.88,3.08-6.88,6.88,3.08,6.88,6.88,6.88Z"/>
      <path class="cls-2" d="M473.61,122.72c3.7,0,6.69-3,6.69-6.69s-3-6.69-6.69-6.69-6.69,3-6.69,6.69,3,6.69,6.69,6.69Z"/>
      <path class="cls-2" d="M540.66,122.28c3.46,0,6.26-2.8,6.26-6.26s-2.8-6.26-6.26-6.26-6.26,2.8-6.26,6.26,2.8,6.26,6.26,6.26Z"/>
      <circle class="cls-2" cx="585.36" cy="116.02" r="5.7"/>
      <circle class="cls-2" cx="630.06" cy="116.02" r="5.08"/>
      <circle class="cls-2" cx="674.75" cy="116.02" r="4.4"/>
      <path class="cls-2" d="M160.72,143.58c2.87,0,5.21-2.33,5.21-5.21s-2.33-5.21-5.21-5.21-5.21,2.33-5.21,5.21,2.33,5.21,5.21,5.21Z"/>
      <path class="cls-2" d="M205.42,144.2c3.22,0,5.83-2.61,5.83-5.83s-2.61-5.83-5.83-5.83-5.83,2.61-5.83,5.83,2.61,5.83,5.83,5.83Z"/>
      <path class="cls-2" d="M250.12,144.82c3.56,0,6.45-2.89,6.45-6.45s-2.89-6.45-6.45-6.45-6.45,2.89-6.45,6.45,2.89,6.45,6.45,6.45Z"/>
      <path class="cls-2" d="M294.82,145.31c3.83,0,6.94-3.11,6.94-6.94s-3.11-6.94-6.94-6.94-6.94,3.11-6.94,6.94,3.11,6.94,6.94,6.94Z"/>
      <path class="cls-2" d="M339.52,145.62c4,0,7.25-3.25,7.25-7.25s-3.25-7.25-7.25-7.25-7.25,3.25-7.25,7.25,3.25,7.25,7.25,7.25Z"/>
      <circle class="cls-2" cx="384.21" cy="138.37" r="7.44"/>
      <circle class="cls-2" cx="428.91" cy="138.37" r="7.44"/>
      <path class="cls-2" d="M473.61,145.62c4,0,7.25-3.25,7.25-7.25s-3.25-7.25-7.25-7.25-7.25,3.25-7.25,7.25,3.25,7.25,7.25,7.25Z"/>
      <path class="cls-2" d="M518.31,145.31c3.83,0,6.94-3.11,6.94-6.94s-3.11-6.94-6.94-6.94-6.94,3.11-6.94,6.94,3.11,6.94,6.94,6.94Z"/>
      <path class="cls-2" d="M563.01,144.82c3.56,0,6.45-2.89,6.45-6.45s-2.89-6.45-6.45-6.45-6.45,2.89-6.45,6.45,2.89,6.45,6.45,6.45Z"/>
      <path class="cls-2" d="M93.67,165.12c2.43,0,4.4-1.97,4.4-4.4s-1.97-4.4-4.4-4.4-4.4,1.97-4.4,4.4,1.97,4.4,4.4,4.4Z"/>
      <circle class="cls-2" cx="227.77" cy="160.72" r="6.63"/>
      <path class="cls-2" d="M272.47,167.85c3.94,0,7.13-3.19,7.13-7.13s-3.19-7.13-7.13-7.13-7.13,3.19-7.13,7.13,3.19,7.13,7.13,7.13Z"/>
      <path class="cls-2" d="M317.17,168.34c4.21,0,7.62-3.41,7.62-7.62s-3.41-7.62-7.62-7.62-7.62,3.41-7.62,7.62,3.41,7.62,7.62,7.62Z"/>
      <path class="cls-2" d="M361.86,168.65c4.38,0,7.93-3.55,7.93-7.93s-3.55-7.93-7.93-7.93-7.93,3.55-7.93,7.93,3.55,7.93,7.93,7.93Z"/>
      <path class="cls-2" d="M406.56,168.72c4.42,0,7.99-3.58,7.99-7.99s-3.58-7.99-7.99-7.99-7.99,3.58-7.99,7.99,3.58,7.99,7.99,7.99Z"/>
      <path class="cls-2" d="M451.26,168.59c4.35,0,7.87-3.52,7.87-7.87s-3.52-7.87-7.87-7.87-7.87,3.52-7.87,7.87,3.52,7.87,7.87,7.87Z"/>
      <path class="cls-2" d="M495.96,168.28c4.18,0,7.56-3.39,7.56-7.56s-3.39-7.56-7.56-7.56-7.56,3.39-7.56,7.56,3.39,7.56,7.56,7.56Z"/>
      <path class="cls-2" d="M540.66,167.85c3.94,0,7.13-3.19,7.13-7.13s-3.19-7.13-7.13-7.13-7.13,3.19-7.13,7.13,3.19,7.13,7.13,7.13Z"/>
      <path class="cls-2" d="M585.36,167.29c3.63,0,6.57-2.94,6.57-6.57s-2.94-6.57-6.57-6.57-6.57,2.94-6.57,6.57,2.94,6.57,6.57,6.57Z"/>
      <path class="cls-2" d="M630.06,166.61c3.25,0,5.89-2.64,5.89-5.89s-2.64-5.89-5.89-5.89-5.89,2.64-5.89,5.89,2.64,5.89,5.89,5.89Z"/>
      <path class="cls-2" d="M674.75,165.86c2.84,0,5.14-2.3,5.14-5.14s-2.3-5.14-5.14-5.14-5.14,2.3-5.14,5.14,2.3,5.14,5.14,5.14Z"/>
      <path class="cls-2" d="M719.45,165.06c2.4,0,4.34-1.94,4.34-4.34s-1.94-4.34-4.34-4.34-4.34,1.94-4.34,4.34,1.94,4.34,4.34,4.34Z"/>
      <path class="cls-2" d="M116.02,188.15c2.81,0,5.08-2.28,5.08-5.08s-2.28-5.08-5.08-5.08-5.08,2.28-5.08,5.08,2.28,5.08,5.08,5.08Z"/>
      <path class="cls-2" d="M160.72,189.02c3.29,0,5.95-2.66,5.95-5.95s-2.66-5.95-5.95-5.95-5.95,2.66-5.95,5.95,2.66,5.95,5.95,5.95Z"/>
      <path class="cls-2" d="M205.42,189.76c3.7,0,6.69-3,6.69-6.69s-3-6.69-6.69-6.69-6.69,3-6.69,6.69,3,6.69,6.69,6.69Z"/>
      <path class="cls-2" d="M250.12,190.45c4.07,0,7.37-3.3,7.37-7.37s-3.3-7.37-7.37-7.37-7.37,3.3-7.37,7.37,3.3,7.37,7.37,7.37Z"/>
      <path class="cls-2" d="M294.82,191c4.38,0,7.93-3.55,7.93-7.93s-3.55-7.93-7.93-7.93-7.93,3.55-7.93,7.93,3.55,7.93,7.93,7.93Z"/>
      <circle class="cls-2" cx="339.52" cy="183.07" r="8.3" transform="translate(-24.94 56.75) rotate(-9.22)"/>
      <circle class="cls-2" cx="384.21" cy="183.07" r="8.49"/>
      <circle class="cls-2" cx="428.91" cy="183.07" r="8.49"/>
      <circle class="cls-2" cx="473.61" cy="183.07" r="8.3"/>
      <path class="cls-2" d="M518.31,190.94c4.35,0,7.87-3.52,7.87-7.87s-3.52-7.87-7.87-7.87-7.87,3.52-7.87,7.87,3.52,7.87,7.87,7.87Z"/>
      <path class="cls-2" d="M563.01,190.38c4.04,0,7.31-3.27,7.31-7.31s-3.27-7.31-7.31-7.31-7.31,3.27-7.31,7.31,3.27,7.31,7.31,7.31Z"/>
      <path class="cls-2" d="M607.71,189.76c3.7,0,6.69-3,6.69-6.69s-3-6.69-6.69-6.69-6.69,3-6.69,6.69,3,6.69,6.69,6.69Z"/>
      <path class="cls-2" d="M71.32,209.94c2.5,0,4.52-2.03,4.52-4.52s-2.03-4.52-4.52-4.52-4.52,2.03-4.52,4.52,2.03,4.52,4.52,4.52Z"/>
      <path class="cls-2" d="M183.07,212.11c3.7,0,6.69-3,6.69-6.69s-3-6.69-6.69-6.69-6.69,3-6.69,6.69,3,6.69,6.69,6.69Z"/>
      <path class="cls-2" d="M227.77,212.86c4.11,0,7.44-3.33,7.44-7.44s-3.33-7.44-7.44-7.44-7.44,3.33-7.44,7.44,3.33,7.44,7.44,7.44Z"/>
      <path class="cls-2" d="M272.47,213.48c4.45,0,8.06-3.61,8.06-8.06s-3.61-8.06-8.06-8.06-8.06,3.61-8.06,8.06,3.61,8.06,8.06,8.06Z"/>
      <path class="cls-2" d="M317.17,214.03c4.76,0,8.61-3.86,8.61-8.61s-3.86-8.61-8.61-8.61-8.61,3.86-8.61,8.61,3.86,8.61,8.61,8.61Z"/>
      <path class="cls-2" d="M361.86,214.34c4.93,0,8.92-4,8.92-8.92s-4-8.92-8.92-8.92-8.92,4-8.92,8.92,4,8.92,8.92,8.92Z"/>
      <path class="cls-2" d="M406.56,214.47c5,0,9.05-4.05,9.05-9.05s-4.05-9.05-9.05-9.05-9.05,4.05-9.05,9.05,4.05,9.05,9.05,9.05Z"/>
      <circle class="cls-2" cx="451.26" cy="205.42" r="8.92" transform="translate(-13.08 379.26) rotate(-45)"/>
      <path class="cls-2" d="M495.96,213.97c4.72,0,8.55-3.83,8.55-8.55s-3.83-8.55-8.55-8.55-8.55,3.83-8.55,8.55,3.83,8.55,8.55,8.55Z"/>
      <path class="cls-2" d="M540.66,213.48c4.45,0,8.06-3.61,8.06-8.06s-3.61-8.06-8.06-8.06-8.06,3.61-8.06,8.06,3.61,8.06,8.06,8.06Z"/>
      <path class="cls-2" d="M585.36,212.86c4.11,0,7.44-3.33,7.44-7.44s-3.33-7.44-7.44-7.44-7.44,3.33-7.44,7.44,3.33,7.44,7.44,7.44Z"/>
      <path class="cls-2" d="M630.06,212.11c3.7,0,6.69-3,6.69-6.69s-3-6.69-6.69-6.69-6.69,3-6.69,6.69,3,6.69,6.69,6.69Z"/>
      <path class="cls-2" d="M674.75,211.25c3.22,0,5.83-2.61,5.83-5.83s-2.61-5.83-5.83-5.83-5.83,2.61-5.83,5.83,2.61,5.83,5.83,5.83Z"/>
      <path class="cls-2" d="M719.45,210.38c2.74,0,4.96-2.22,4.96-4.96s-2.22-4.96-4.96-4.96-4.96,2.22-4.96,4.96,2.22,4.96,4.96,4.96Z"/>
      <path class="cls-2" d="M764.15,209.51c2.26,0,4.09-1.83,4.09-4.09s-1.83-4.09-4.09-4.09-4.09,1.83-4.09,4.09,1.83,4.09,4.09,4.09Z"/>
      <path class="cls-2" d="M93.67,233.04c2.91,0,5.27-2.36,5.27-5.27s-2.36-5.27-5.27-5.27-5.27,2.36-5.27,5.27,2.36,5.27,5.27,5.27Z"/>
      <path class="cls-2" d="M138.37,233.97c3.42,0,6.2-2.77,6.2-6.2s-2.77-6.2-6.2-6.2-6.2,2.77-6.2,6.2,2.77,6.2,6.2,6.2Z"/>
      <path class="cls-2" d="M183.07,234.83c3.9,0,7.07-3.16,7.07-7.07s-3.16-7.07-7.07-7.07-7.07,3.16-7.07,7.07,3.16,7.07,7.07,7.07Z"/>
      <circle class="cls-2" cx="227.77" cy="227.77" r="7.81"/>
      <path class="cls-2" d="M272.47,236.26c4.69,0,8.49-3.8,8.49-8.49s-3.8-8.49-8.49-8.49-8.49,3.8-8.49,8.49,3.8,8.49,8.49,8.49Z"/>
      <path class="cls-2" d="M317.17,236.88c5.03,0,9.11-4.08,9.11-9.11s-4.08-9.11-9.11-9.11-9.11,4.08-9.11,9.11,4.08,9.11,9.11,9.11Z"/>
      <path class="cls-2" d="M361.86,237.19c5.2,0,9.42-4.22,9.42-9.42s-4.22-9.42-9.42-9.42-9.42,4.22-9.42,9.42,4.22,9.42,9.42,9.42Z"/>
      <path class="cls-2" d="M406.56,237.37c5.31,0,9.61-4.3,9.61-9.61s-4.3-9.61-9.61-9.61-9.61,4.3-9.61,9.61,4.3,9.61,9.61,9.61Z"/>
      <circle class="cls-2" cx="451.26" cy="227.77" r="9.42"/>
      <path class="cls-2" d="M495.96,236.82c5,0,9.05-4.05,9.05-9.05s-4.05-9.05-9.05-9.05-9.05,4.05-9.05,9.05,4.05,9.05,9.05,9.05Z"/>
      <path class="cls-2" d="M540.66,236.26c4.69,0,8.49-3.8,8.49-8.49s-3.8-8.49-8.49-8.49-8.49,3.8-8.49,8.49,3.8,8.49,8.49,8.49Z"/>
      <circle class="cls-2" cx="585.36" cy="227.77" r="7.81"/>
      <circle class="cls-2" cx="630.06" cy="227.77" r="7"/>
      <path class="cls-2" d="M48.97,254.64c2.5,0,4.52-2.03,4.52-4.52s-2.03-4.52-4.52-4.52-4.52,2.03-4.52,4.52,2.03,4.52,4.52,4.52Z"/>
      <path class="cls-2" d="M160.72,257c3.8,0,6.88-3.08,6.88-6.88s-3.08-6.88-6.88-6.88-6.88,3.08-6.88,6.88,3.08,6.88,6.88,6.88Z"/>
      <path class="cls-2" d="M205.42,257.93c4.31,0,7.81-3.5,7.81-7.81s-3.5-7.81-7.81-7.81-7.81,3.5-7.81,7.81,3.5,7.81,7.81,7.81Z"/>
      <path class="cls-2" d="M250.12,258.67c4.72,0,8.55-3.83,8.55-8.55s-3.83-8.55-8.55-8.55-8.55,3.83-8.55,8.55,3.83,8.55,8.55,8.55Z"/>
      <path class="cls-2" d="M294.82,259.41c5.13,0,9.3-4.16,9.3-9.3s-4.16-9.3-9.3-9.3-9.3,4.16-9.3,9.3,4.16,9.3,9.3,9.3Z"/>
      <path class="cls-2" d="M339.52,259.91c5.41,0,9.79-4.38,9.79-9.79s-4.38-9.79-9.79-9.79-9.79,4.38-9.79,9.79,4.38,9.79,9.79,9.79Z"/>
      <circle class="cls-2" cx="384.21" cy="250.12" r="10.1"/>
      <path class="cls-2" d="M406.56,260.28c5.61,0,10.16-4.55,10.16-10.16s-4.55-10.16-10.16-10.16-10.16,4.55-10.16,10.16,4.55,10.16,10.16,10.16Z"/>
      <path class="cls-2" d="M428.91,260.22c5.58,0,10.1-4.52,10.1-10.1s-4.52-10.1-10.1-10.1-10.1,4.52-10.1,10.1,4.52,10.1,10.1,10.1Z"/>
      <circle class="cls-2" cx="473.61" cy="250.12" r="9.73"/>
      <path class="cls-2" d="M518.31,259.41c5.13,0,9.3-4.16,9.3-9.3s-4.16-9.3-9.3-9.3-9.3,4.16-9.3,9.3,4.16,9.3,9.3,9.3Z"/>
      <path class="cls-2" d="M563.01,258.67c4.72,0,8.55-3.83,8.55-8.55s-3.83-8.55-8.55-8.55-8.55,3.83-8.55,8.55,3.83,8.55,8.55,8.55Z"/>
      <path class="cls-2" d="M607.71,257.86c4.28,0,7.75-3.47,7.75-7.75s-3.47-7.75-7.75-7.75-7.75,3.47-7.75,7.75,3.47,7.75,7.75,7.75Z"/>
      <path class="cls-2" d="M652.4,257c3.8,0,6.88-3.08,6.88-6.88s-3.08-6.88-6.88-6.88-6.88,3.08-6.88,6.88,3.08,6.88,6.88,6.88Z"/>
      <path class="cls-2" d="M697.1,256.07c3.29,0,5.95-2.66,5.95-5.95s-2.66-5.95-5.95-5.95-5.95,2.66-5.95,5.95,2.66,5.95,5.95,5.95Z"/>
      <path class="cls-2" d="M741.8,255.08c2.74,0,4.96-2.22,4.96-4.96s-2.22-4.96-4.96-4.96-4.96,2.22-4.96,4.96,2.22,4.96,4.96,4.96Z"/>
      <path class="cls-2" d="M786.5,254.15c2.22,0,4.03-1.8,4.03-4.03s-1.8-4.03-4.03-4.03-4.03,1.8-4.03,4.03,1.8,4.03,4.03,4.03Z"/>
      <path class="cls-2" d="M71.32,277.74c2.91,0,5.27-2.36,5.27-5.27s-2.36-5.27-5.27-5.27-5.27,2.36-5.27,5.27,2.36,5.27,5.27,5.27Z"/>
      <path class="cls-2" d="M116.02,278.73c3.46,0,6.26-2.8,6.26-6.26s-2.8-6.26-6.26-6.26-6.26,2.8-6.26,6.26,2.8,6.26,6.26,6.26Z"/>
      <path class="cls-2" d="M160.72,279.59c3.94,0,7.13-3.19,7.13-7.13s-3.19-7.13-7.13-7.13-7.13,3.19-7.13,7.13,3.19,7.13,7.13,7.13Z"/>
      <path class="cls-2" d="M205.42,280.52c4.45,0,8.06-3.61,8.06-8.06s-3.61-8.06-8.06-8.06-8.06,3.61-8.06,8.06,3.61,8.06,8.06,8.06Z"/>
      <circle class="cls-2" cx="250.12" cy="272.47" r="8.92" transform="translate(-40.41 43.58) rotate(-9.22)"/>
      <circle class="cls-2" cx="294.82" cy="272.47" r="9.73"/>
      <path class="cls-2" d="M317.17,282.51c5.54,0,10.04-4.49,10.04-10.04s-4.49-10.04-10.04-10.04-10.04,4.49-10.04,10.04,4.49,10.04,10.04,10.04Z"/>
      <circle class="cls-2" cx="339.52" cy="272.47" r="10.29" transform="translate(-39.26 57.9) rotate(-9.22)"/>
      <path class="cls-2" d="M361.86,282.94c5.78,0,10.47-4.69,10.47-10.47s-4.69-10.47-10.47-10.47-10.47,4.69-10.47,10.47,4.69,10.47,10.47,10.47Z"/>
      <path class="cls-2" d="M406.56,283.06c5.85,0,10.6-4.74,10.6-10.6s-4.74-10.6-10.6-10.6-10.6,4.74-10.6,10.6,4.74,10.6,10.6,10.6Z"/>
      <path class="cls-2" d="M428.91,283.06c5.85,0,10.6-4.74,10.6-10.6s-4.74-10.6-10.6-10.6-10.6,4.74-10.6,10.6,4.74,10.6,10.6,10.6Z"/>
      <circle class="cls-2" cx="451.26" cy="272.47" r="10.47"/>
      <circle class="cls-2" cx="473.61" cy="272.47" r="10.23"/>
      <circle class="cls-2" cx="495.96" cy="272.47" r="9.98" transform="translate(-37.24 82.96) rotate(-9.22)"/>
      <circle class="cls-2" cx="540.66" cy="272.47" r="9.3"/>
      <circle class="cls-2" cx="585.36" cy="272.47" r="8.49"/>
      <path class="cls-2" d="M630.06,280.03c4.18,0,7.56-3.39,7.56-7.56s-3.39-7.56-7.56-7.56-7.56,3.39-7.56,7.56,3.39,7.56,7.56,7.56Z"/>
      <circle class="cls-2" cx="674.75" cy="272.47" r="6.69"/>
      <circle class="cls-2" cx="26.63" cy="294.82" r="4.4" transform="translate(-255.94 206.59) rotate(-67.5)"/>
      <path class="cls-2" d="M138.37,301.76c3.83,0,6.94-3.11,6.94-6.94s-3.11-6.94-6.94-6.94-6.94,3.11-6.94,6.94,3.11,6.94,6.94,6.94Z"/>
      <path class="cls-2" d="M183.07,302.75c4.38,0,7.93-3.55,7.93-7.93s-3.55-7.93-7.93-7.93-7.93,3.55-7.93,7.93,3.55,7.93,7.93,7.93Z"/>
      <circle class="cls-2" cx="227.77" cy="294.82" r="8.86"/>
      <path class="cls-2" d="M272.47,304.55c5.37,0,9.73-4.36,9.73-9.73s-4.36-9.73-9.73-9.73-9.73,4.36-9.73,9.73,4.36,9.73,9.73,9.73Z"/>
      <path class="cls-2" d="M317.17,305.29c5.78,0,10.47-4.69,10.47-10.47s-4.69-10.47-10.47-10.47-10.47,4.69-10.47,10.47,4.69,10.47,10.47,10.47Z"/>
      <path class="cls-2" d="M361.86,305.85c6.09,0,11.03-4.94,11.03-11.03s-4.94-11.03-11.03-11.03-11.03,4.94-11.03,11.03,4.94,11.03,11.03,11.03Z"/>
      <circle class="cls-2" cx="473.61" cy="294.82" r="10.72"/>
      <path class="cls-2" d="M518.31,304.92c5.58,0,10.1-4.52,10.1-10.1s-4.52-10.1-10.1-10.1-10.1,4.52-10.1,10.1,4.52,10.1,10.1,10.1Z"/>
      <path class="cls-2" d="M563.01,304.05c5.1,0,9.23-4.13,9.23-9.23s-4.13-9.23-9.23-9.23-9.23,4.13-9.23,9.23,4.13,9.23,9.23,9.23Z"/>
      <path class="cls-2" d="M607.71,303.18c4.62,0,8.37-3.75,8.37-8.37s-3.75-8.37-8.37-8.37-8.37,3.75-8.37,8.37,3.75,8.37,8.37,8.37Z"/>
      <path class="cls-2" d="M652.4,302.19c4.07,0,7.37-3.3,7.37-7.37s-3.3-7.37-7.37-7.37-7.37,3.3-7.37,7.37,3.3,7.37,7.37,7.37Z"/>
      <path class="cls-2" d="M697.1,301.2c3.53,0,6.38-2.86,6.38-6.38s-2.86-6.38-6.38-6.38-6.38,2.86-6.38,6.38,2.86,6.38,6.38,6.38Z"/>
      <circle class="cls-2" cx="741.8" cy="294.82" r="5.39"/>
      <circle class="cls-2" cx="786.5" cy="294.82" r="4.4"/>
      <path class="cls-2" d="M48.97,322.19c2.77,0,5.02-2.25,5.02-5.02s-2.25-5.02-5.02-5.02-5.02,2.25-5.02,5.02,2.25,5.02,5.02,5.02Z"/>
      <path class="cls-2" d="M93.67,323.24c3.35,0,6.07-2.72,6.07-6.07s-2.72-6.07-6.07-6.07-6.07,2.72-6.07,6.07,2.72,6.07,6.07,6.07Z"/>
      <path class="cls-2" d="M138.37,324.29c3.94,0,7.13-3.19,7.13-7.13s-3.19-7.13-7.13-7.13-7.13,3.19-7.13,7.13,3.19,7.13,7.13,7.13Z"/>
      <path class="cls-2" d="M183.07,325.28c4.48,0,8.12-3.63,8.12-8.12s-3.63-8.12-8.12-8.12-8.12,3.63-8.12,8.12,3.63,8.12,8.12,8.12Z"/>
      <path class="cls-2" d="M227.77,326.28c5.03,0,9.11-4.08,9.11-9.11s-4.08-9.11-9.11-9.11-9.11,4.08-9.11,9.11,4.08,9.11,9.11,9.11Z"/>
      <path class="cls-2" d="M272.47,327.21c5.54,0,10.04-4.49,10.04-10.04s-4.5-10.04-10.04-10.04-10.04,4.49-10.04,10.04,4.49,10.04,10.04,10.04Z"/>
      <path class="cls-2" d="M294.82,327.64c5.78,0,10.47-4.69,10.47-10.47s-4.69-10.47-10.47-10.47-10.47,4.69-10.47,10.47,4.69,10.47,10.47,10.47Z"/>
      <path class="cls-2" d="M317.17,328.01c5.99,0,10.85-4.86,10.85-10.85s-4.86-10.85-10.85-10.85-10.85,4.86-10.85,10.85,4.86,10.85,10.85,10.85Z"/>
      <path class="cls-2" d="M495.96,327.95c5.96,0,10.78-4.83,10.78-10.78s-4.83-10.78-10.78-10.78-10.78,4.83-10.78,10.78,4.83,10.78,10.78,10.78Z"/>
      <circle class="cls-2" cx="518.31" cy="317.17" r="10.41"/>
      <circle class="cls-2" cx="540.66" cy="317.17" r="9.98"/>
      <path class="cls-2" d="M585.36,326.21c5,0,9.05-4.05,9.05-9.05s-4.05-9.05-9.05-9.05-9.05,4.05-9.05,9.05,4.05,9.05,9.05,9.05Z"/>
      <path class="cls-2" d="M630.06,325.22c4.45,0,8.06-3.61,8.06-8.06s-3.61-8.06-8.06-8.06-8.06,3.61-8.06,8.06,3.61,8.06,8.06,8.06Z"/>
      <path class="cls-2" d="M674.75,324.23c3.9,0,7.07-3.16,7.07-7.06s-3.16-7.07-7.07-7.07-7.07,3.16-7.07,7.07,3.16,7.06,7.07,7.06Z"/>
      <path class="cls-2" d="M719.45,323.24c3.35,0,6.07-2.72,6.07-6.07s-2.72-6.07-6.07-6.07-6.07,2.72-6.07,6.07,2.72,6.07,6.07,6.07Z"/>
      <path class="cls-2" d="M116.02,346.21c3.7,0,6.69-3,6.69-6.69s-3-6.69-6.69-6.69-6.69,3-6.69,6.69,3,6.69,6.69,6.69Z"/>
      <path class="cls-2" d="M160.72,347.26c4.28,0,7.75-3.47,7.75-7.75s-3.47-7.75-7.75-7.75-7.75,3.47-7.75,7.75,3.47,7.75,7.75,7.75Z"/>
      <circle class="cls-2" cx="205.42" cy="339.52" r="8.8" transform="translate(-72.51 56.28) rotate(-13.28)"/>
      <path class="cls-2" d="M250.12,349.31c5.41,0,9.79-4.38,9.79-9.79s-4.38-9.79-9.79-9.79-9.79,4.38-9.79,9.79,4.38,9.79,9.79,9.79Z"/>
      <path class="cls-2" d="M294.82,350.24c5.92,0,10.72-4.8,10.72-10.72s-4.8-10.72-10.72-10.72-10.72,4.8-10.72,10.72,4.8,10.72,10.72,10.72Z"/>
      <path class="cls-2" d="M518.31,350.24c5.92,0,10.72-4.8,10.72-10.72s-4.8-10.72-10.72-10.72-10.72,4.8-10.72,10.72,4.8,10.72,10.72,10.72Z"/>
      <path class="cls-2" d="M563.01,349.24c5.37,0,9.73-4.36,9.73-9.73s-4.36-9.73-9.73-9.73-9.73,4.36-9.73,9.73,4.36,9.73,9.73,9.73Z"/>
      <path class="cls-2" d="M607.71,348.32c4.86,0,8.8-3.94,8.8-8.8s-3.94-8.8-8.8-8.8-8.8,3.94-8.8,8.8,3.94,8.8,8.8,8.8Z"/>
      <path class="cls-2" d="M652.4,347.26c4.28,0,7.75-3.47,7.75-7.75s-3.47-7.75-7.75-7.75-7.75,3.47-7.75,7.75,3.47,7.75,7.75,7.75Z"/>
      <path class="cls-2" d="M697.1,346.21c3.7,0,6.69-3,6.69-6.69s-3-6.69-6.69-6.69-6.69,3-6.69,6.69,3,6.69,6.69,6.69Z"/>
      <path class="cls-2" d="M741.8,345.15c3.11,0,5.64-2.53,5.64-5.64s-2.52-5.64-5.64-5.64-5.64,2.53-5.64,5.64,2.53,5.64,5.64,5.64Z"/>
      <path class="cls-2" d="M786.5,344.1c2.53,0,4.59-2.05,4.59-4.59s-2.05-4.59-4.59-4.59-4.59,2.05-4.59,4.59,2.05,4.59,4.59,4.59Z"/>
      <circle class="cls-2" cx="4.28" cy="361.86" r="4.21"/>
      <circle class="cls-2" cx="48.97" cy="361.86" r="5.27"/>
      <path class="cls-2" d="M93.67,368.19c3.49,0,6.32-2.83,6.32-6.32s-2.83-6.32-6.32-6.32-6.32,2.83-6.32,6.32,2.83,6.32,6.32,6.32Z"/>
      <path class="cls-2" d="M138.37,369.24c4.07,0,7.37-3.3,7.37-7.37s-3.3-7.37-7.37-7.37-7.37,3.3-7.37,7.37,3.3,7.37,7.37,7.37Z"/>
      <circle class="cls-2" cx="183.07" cy="361.86" r="8.43" transform="translate(-221.31 392.52) rotate(-67.5)"/>
      <circle class="cls-2" cx="227.77" cy="361.86" r="9.42"/>
      <circle class="cls-2" cx="272.47" cy="361.86" r="10.47" transform="translate(-176.07 298.65) rotate(-45)"/>
      <circle class="cls-2" cx="540.66" cy="361.86" r="10.47"/>
      <circle class="cls-2" cx="563.01" cy="361.86" r="9.92" transform="translate(13.24 743.54) rotate(-67.5)"/>
      <path class="cls-2" d="M607.71,370.73c4.89,0,8.86-3.97,8.86-8.86s-3.97-8.86-8.86-8.86-8.86,3.97-8.86,8.86,3.97,8.86,8.86,8.86Z"/>
      <circle class="cls-2" cx="652.4" cy="361.86" r="7.87"/>
      <path class="cls-2" d="M697.1,368.62c3.73,0,6.76-3.02,6.76-6.76s-3.02-6.76-6.76-6.76-6.76,3.02-6.76,6.76,3.02,6.76,6.76,6.76Z"/>
      <path class="cls-2" d="M116.02,377.33c-3.8,0-6.88,3.08-6.88,6.88s3.08,6.88,6.88,6.88,6.88-3.08,6.88-6.88-3.08-6.88-6.88-6.88Z"/>
      <path class="cls-2" d="M160.72,376.22c-4.42,0-7.99,3.58-7.99,7.99s3.58,7.99,7.99,7.99,7.99-3.58,7.99-7.99-3.58-7.99-7.99-7.99Z"/>
      <path class="cls-2" d="M205.42,375.23c-4.96,0-8.99,4.02-8.99,8.99s4.02,8.99,8.99,8.99,8.99-4.02,8.99-8.99-4.02-8.99-8.99-8.99Z"/>
      <path class="cls-2" d="M250.12,394.32c5.58,0,10.1-4.52,10.1-10.1s-4.52-10.1-10.1-10.1-10.1,4.52-10.1,10.1,4.52,10.1,10.1,10.1Z"/>
      <path class="cls-2" d="M294.82,395.31c6.13,0,11.09-4.97,11.09-11.09s-4.97-11.09-11.09-11.09-11.09,4.97-11.09,11.09,4.97,11.09,11.09,11.09Z"/>
      <path class="cls-2" d="M518.31,373.12c-6.13,0-11.09,4.97-11.09,11.09s4.97,11.09,11.09,11.09,11.09-4.97,11.09-11.09-4.97-11.09-11.09-11.09Z"/>
      <path class="cls-2" d="M563.01,374.17c-5.54,0-10.04,4.5-10.04,10.04s4.49,10.04,10.04,10.04,10.04-4.49,10.04-10.04-4.49-10.04-10.04-10.04Z"/>
      <path class="cls-2" d="M585.36,393.7c5.24,0,9.48-4.25,9.48-9.48s-4.25-9.48-9.48-9.48-9.48,4.25-9.48,9.48,4.25,9.48,9.48,9.48Z"/>
      <path class="cls-2" d="M630.06,375.79c-4.65,0-8.43,3.77-8.43,8.43s3.77,8.43,8.43,8.43,8.43-3.77,8.43-8.43-3.77-8.43-8.43-8.43Z"/>
      <path class="cls-2" d="M674.75,391.59c4.07,0,7.37-3.3,7.37-7.37s-3.3-7.37-7.37-7.37-7.37,3.3-7.37,7.37,3.3,7.37,7.37,7.37Z"/>
      <path class="cls-2" d="M719.45,377.89c-3.49,0-6.32,2.83-6.32,6.32s2.83,6.32,6.32,6.32,6.32-2.83,6.32-6.32-2.83-6.32-6.32-6.32Z"/>
      <path class="cls-2" d="M764.15,378.95c-2.91,0-5.27,2.36-5.27,5.27s2.36,5.27,5.27,5.27,5.27-2.36,5.27-5.27-2.36-5.27-5.27-5.27Z"/>
      <path class="cls-2" d="M808.85,380c-2.33,0-4.21,1.89-4.21,4.21s1.89,4.21,4.21,4.21,4.21-1.89,4.21-4.21-1.89-4.21-4.21-4.21Z"/>
      <circle class="cls-2" cx="4.28" cy="406.56" r="4.28"/>
      <path class="cls-2" d="M48.97,401.23c-2.94,0-5.33,2.39-5.33,5.33s2.39,5.33,5.33,5.33,5.33-2.39,5.33-5.33-2.39-5.33-5.33-5.33Z"/>
      <path class="cls-2" d="M93.67,400.18c-3.53,0-6.38,2.86-6.38,6.38s2.86,6.38,6.38,6.38,6.38-2.86,6.38-6.38-2.86-6.38-6.38-6.38Z"/>
      <path class="cls-2" d="M138.37,399.06c-4.14,0-7.5,3.36-7.5,7.5s3.36,7.5,7.5,7.5,7.5-3.36,7.5-7.5-3.36-7.5-7.5-7.5Z"/>
      <path class="cls-2" d="M183.07,398.07c-4.69,0-8.49,3.8-8.49,8.49s3.8,8.49,8.49,8.49,8.49-3.8,8.49-8.49-3.8-8.49-8.49-8.49Z"/>
      <path class="cls-2" d="M227.77,396.96c-5.31,0-9.61,4.3-9.61,9.61s4.3,9.61,9.61,9.61,9.61-4.3,9.61-9.61-4.3-9.61-9.61-9.61Z"/>
      <path class="cls-2" d="M250.12,396.4c-5.61,0-10.16,4.55-10.16,10.16s4.55,10.16,10.16,10.16,10.16-4.55,10.16-10.16-4.55-10.16-10.16-10.16Z"/>
      <path class="cls-2" d="M272.47,395.97c-5.85,0-10.6,4.74-10.6,10.6s4.74,10.6,10.6,10.6,10.6-4.74,10.6-10.6-4.74-10.6-10.6-10.6Z"/>
      <path class="cls-2" d="M518.31,395.47c-5.42,0-9.92,3.89-10.89,9.02-.98-5.44-5.73-9.58-11.46-9.58-4.97,0-9.21,3.12-10.88,7.51-1.15-3.17-3.56-5.73-6.64-7.06,4.3-1.87,7.31-6.15,7.31-11.14s-3.21-9.54-7.73-11.31c3.35-1.34,5.94-4.15,6.98-7.64,1.45,4.67,5.8,8.06,10.95,8.06,6.05,0,10.99-4.68,11.42-10.62,.43,5.66,5.15,10.12,10.93,10.12,6.06,0,10.97-4.91,10.97-10.97s-4.91-10.97-10.97-10.97-10.49,4.46-10.93,10.12c-.43-5.94-5.38-10.62-11.42-10.62-5.15,0-9.5,3.39-10.95,8.06-1.13-3.8-4.1-6.8-7.89-7.97,4.65-1.49,8.02-5.84,8.02-10.98,0-5.73-4.18-10.47-9.66-11.36,5.27-.89,9.29-5.46,9.29-10.99,0-6.16-4.99-11.16-11.16-11.16-5.59,0-10.21,4.12-11.02,9.49-.81-5.54-5.57-9.8-11.33-9.8-5.33,0-9.79,3.64-11.08,8.56-1.12-4.37-4.71-7.74-9.2-8.55,5.14-.97,9.02-5.48,9.02-10.89,0-6.13-4.97-11.09-11.09-11.09s-11.09,4.97-11.09,11.09c0,5.42,3.89,9.92,9.02,10.89-4.32,.78-7.81,3.92-9.07,8.05-1.46-4.81-5.92-8.31-11.21-8.31s-9.75,3.5-11.21,8.31c-1.26-4.13-4.75-7.28-9.07-8.05,5.13-.97,9.02-5.48,9.02-10.89,0-6.13-4.97-11.09-11.09-11.09s-11.09,4.97-11.09,11.09c0,5.42,3.89,9.92,9.02,10.89-5.44,.98-9.58,5.73-9.58,11.46,0,5.01,3.16,9.26,7.6,10.91-3.32,1.18-5.97,3.75-7.25,7.02-1.75-4.38-6.03-7.48-11.04-7.48-5.31,0-9.81,3.49-11.34,8.29-1.31-4-4.73-7.03-8.94-7.79,5.17-.97,9.08-5.5,9.08-10.96,0-6.16-4.99-11.16-11.16-11.16s-11.16,4.99-11.16,11.16c0,5.45,3.91,9.98,9.08,10.96-5.41,.98-9.52,5.7-9.52,11.39,0,5.14,3.35,9.49,7.98,11.01-3.74,1.19-6.67,4.17-7.79,7.93-1.45-4.67-5.8-8.06-10.95-8.06-5.91,0-10.77,4.47-11.39,10.21-.62-5.5-5.29-9.78-10.96-9.78-6.09,0-11.03,4.94-11.03,11.03s4.94,11.03,11.03,11.03c5.67,0,10.33-4.28,10.96-9.78,.62,5.74,5.49,10.21,11.39,10.21,5.15,0,9.5-3.39,10.95-8.06,1.04,3.49,3.64,6.3,6.98,7.64-4.52,1.77-7.73,6.16-7.73,11.31s2.98,9.22,7.24,11.11c-3.02,1.32-5.39,3.82-6.56,6.92-1.72-4.33-5.94-7.39-10.88-7.39-5.64,0-10.35,3.99-11.46,9.3-1.1-5-5.55-8.74-10.89-8.74-6.16,0-11.16,4.99-11.16,11.16s4.99,11.16,11.16,11.16c5.33,0,9.78-3.74,10.89-8.74,1.11,5.31,5.82,9.3,11.46,9.3,4.94,0,9.16-3.06,10.88-7.39,1.17,3.1,3.54,5.6,6.56,6.92-4.26,1.89-7.24,6.15-7.24,11.11s3.21,9.54,7.73,11.31c-3.35,1.34-5.94,4.15-6.98,7.64-1.45-4.67-5.8-8.06-10.95-8.06-6.05,0-10.99,4.68-11.42,10.62-.43-5.66-5.15-10.13-10.93-10.13-6.06,0-10.97,4.91-10.97,10.97s4.91,10.97,10.97,10.97,10.49-4.46,10.93-10.13c.43,5.94,5.38,10.62,11.42,10.62,5.15,0,9.5-3.39,10.95-8.06,1.13,3.8,4.1,6.8,7.89,7.97-4.65,1.49-8.02,5.84-8.02,10.98,0,6.37,5.16,11.53,11.53,11.53,5.14,0,9.49-3.37,10.98-8.02,1.17,3.78,4.17,6.75,7.97,7.89-4.67,1.45-8.06,5.8-8.06,10.95,0,6.05,4.68,10.99,10.62,11.42-5.66,.43-10.13,5.15-10.13,10.93,0,6.06,4.91,10.97,10.97,10.97s10.97-4.91,10.97-10.97-4.46-10.49-10.13-10.93c5.94-.43,10.62-5.38,10.62-11.42,0-5.15-3.39-9.5-8.06-10.95,3.49-1.04,6.3-3.64,7.64-6.98,1.77,4.52,6.16,7.73,11.31,7.73s9.27-3.01,11.14-7.31c1.33,3.08,3.89,5.49,7.06,6.63-4.38,1.67-7.51,5.91-7.51,10.88,0,5.73,4.13,10.48,9.58,11.46-5.14,.97-9.02,5.48-9.02,10.89,0,6.13,4.97,11.09,11.09,11.09s11.09-4.97,11.09-11.09c0-5.42-3.89-9.92-9.02-10.89,5.44-.98,9.58-5.73,9.58-11.46,0-4.97-3.12-9.21-7.51-10.88,3.2-1.16,5.78-3.59,7.1-6.71,1.85,4.3,6.12,7.32,11.11,7.32s9.53-3.22,11.27-7.76c1.33,3.39,4.15,6.02,7.67,7.07-4.67,1.45-8.06,5.8-8.06,10.95,0,6.33,5.13,11.47,11.47,11.47,5.84,0,10.65-4.37,11.36-10.01,.71,5.44,5.36,9.64,10.99,9.64,6.13,0,11.09-4.97,11.09-11.09s-4.97-11.09-11.09-11.09c-5.63,0-10.27,4.2-10.99,9.64-.57-4.5-3.74-8.18-7.96-9.49,4.91-1.47,8.49-6.01,8.49-11.4,0-4.91-2.98-9.12-7.22-10.94,3.05-1.25,5.48-3.68,6.73-6.73,1.82,4.25,6.03,7.22,10.94,7.22,5.39,0,9.93-3.58,11.4-8.49,1.31,4.22,5,7.39,9.49,7.96-5.44,.71-9.64,5.36-9.64,10.99,0,6.13,4.97,11.09,11.09,11.09s11.09-4.97,11.09-11.09c0-5.63-4.2-10.27-9.64-10.99,5.64-.72,10.01-5.53,10.01-11.36,0-6.33-5.13-11.47-11.47-11.47-5.15,0-9.5,3.39-10.95,8.06-1.05-3.52-3.68-6.35-7.07-7.67,4.53-1.74,7.76-6.13,7.76-11.27s-3.02-9.26-7.32-11.11c3.11-1.32,5.55-3.9,6.71-7.1,1.67,4.38,5.91,7.51,10.88,7.51,5.73,0,10.48-4.13,11.46-9.58,.97,5.14,5.48,9.02,10.89,9.02,6.13,0,11.09-4.97,11.09-11.09s-4.97-11.09-11.09-11.09Zm-167.82,74.63c-1.13-3.54-3.93-6.34-7.47-7.47,3.35-1.03,6.06-3.5,7.43-6.69,1.25,3.05,3.68,5.48,6.73,6.73-3.19,1.37-5.66,4.08-6.69,7.43Zm-.08-57.92c1.18,2.39,3.06,4.36,5.4,5.62-2.36,1.29-4.26,3.32-5.4,5.77-1.26-2.56-3.38-4.61-5.99-5.77,2.59-1.13,4.7-3.13,5.99-5.62Zm-5.99-16.86c2.59-1.15,4.7-3.17,5.96-5.7,1.15,2.43,3.03,4.44,5.37,5.73-2.31,1.26-4.17,3.22-5.34,5.59-1.29-2.5-3.41-4.49-5.99-5.62Zm5.96-16.51c-1.34-2.68-3.64-4.8-6.45-5.9,2.93-1.17,5.29-3.47,6.53-6.36,1.12,2.72,3.18,4.95,5.79,6.29-2.57,1.27-4.64,3.38-5.86,5.97Zm.03,55.44c1.22,2.62,3.31,4.74,5.9,6.01-2.64,1.33-4.73,3.58-5.86,6.32-1.24-2.89-3.6-5.19-6.53-6.36,2.84-1.11,5.15-3.25,6.48-5.97Zm.04-77.06c-1.35-3.16-4.03-5.61-7.34-6.66,3.5-1.15,6.26-3.91,7.4-7.4,1.05,3.3,3.5,5.98,6.66,7.34-3.05,1.25-5.48,3.68-6.73,6.73Zm22.45-13.25c1.1,2.81,3.22,5.11,5.9,6.45-2.59,1.22-4.7,3.3-5.97,5.86-1.34-2.6-3.57-4.67-6.29-5.79,2.89-1.24,5.19-3.6,6.36-6.53Zm-.19,69.34c1.1,1.88,2.65,3.47,4.5,4.61-1.84,1.17-3.36,2.77-4.42,4.68-1.16-1.99-2.85-3.65-4.88-4.76,1.97-1.06,3.63-2.64,4.8-4.54Zm-4.74-17.92c1.99-1.1,3.65-2.72,4.81-4.67,1.06,1.87,2.56,3.44,4.36,4.6-1.82,1.14-3.35,2.71-4.44,4.58-1.16-1.88-2.79-3.44-4.74-4.5Zm4.81-17.61c-1.25-2.11-3.09-3.82-5.3-4.91,2.3-1.18,4.17-3.05,5.35-5.35,1.09,2.21,2.8,4.05,4.91,5.3-2.07,1.17-3.79,2.89-4.96,4.96Zm0,57.51c1.19,2.13,2.95,3.89,5.08,5.08-2.15,1.25-3.9,3.12-5,5.37-1.19-2.35-3.1-4.27-5.45-5.45,2.25-1.1,4.12-2.84,5.37-5Zm.12,33.93c-1.17-2.93-3.47-5.29-6.36-6.53,2.75-1.13,4.99-3.22,6.32-5.86,1.27,2.59,3.39,4.68,6.01,5.9-2.72,1.33-4.86,3.65-5.97,6.48Zm22.45-.42c-1.15-2.65-3.22-4.8-5.8-6.06,2.45-1.14,4.48-3.04,5.77-5.4,1.27,2.36,3.27,4.27,5.7,5.44-2.52,1.29-4.53,3.42-5.66,6.03Zm-.23-54.57c1.02,1.52,2.33,2.83,3.86,3.84-1.49,1.04-2.75,2.38-3.7,3.93-1.03-1.65-2.42-3.04-4.06-4.09,1.54-.95,2.87-2.2,3.9-3.68Zm-3.84-18.92c1.61-1.03,2.97-2.39,4-4,.95,1.51,2.19,2.82,3.65,3.84-1.5,1.01-2.8,2.3-3.8,3.8-1.02-1.46-2.33-2.7-3.84-3.65Zm4-18.13c-1.15-1.8-2.73-3.31-4.6-4.36,1.95-1.16,3.57-2.82,4.67-4.81,1.06,1.95,2.63,3.57,4.5,4.74-1.86,1.09-3.43,2.61-4.58,4.44Zm0,58.71c1.15,1.86,2.74,3.42,4.64,4.52-1.93,1.18-3.52,2.84-4.6,4.84-1.11-2.03-2.76-3.71-4.76-4.87,1.93-1.07,3.55-2.62,4.72-4.48Zm.07-80.1c-1.29-2.34-3.3-4.23-5.73-5.37,2.53-1.26,4.55-3.37,5.7-5.96,1.13,2.59,3.13,4.7,5.62,5.99-2.37,1.16-4.33,3.03-5.59,5.34Zm-.03-21.15c-1.34-3.04-3.9-5.41-7.05-6.53,3.38-1.26,6.03-4.03,7.09-7.51,1.04,3.42,3.59,6.16,6.88,7.47-3.1,1.17-5.6,3.54-6.92,6.56Zm22.49,134.24c-1.12-2.64-3.15-4.8-5.69-6.1,2.44-1.18,4.46-3.11,5.73-5.51,1.3,2.41,3.37,4.33,5.88,5.47-2.64,1.26-4.75,3.44-5.91,6.13Zm.23-69.86c-1.01-1.53-2.32-2.84-3.84-3.86,1.48-1.04,2.73-2.37,3.68-3.9,1.04,1.64,2.44,3.03,4.09,4.06-1.55,.96-2.89,2.21-3.93,3.7Zm3.93,18.86c-1.67,1.05-3.07,2.46-4.12,4.12-.96-1.55-2.21-2.89-3.7-3.93,1.55-1.02,2.87-2.35,3.89-3.89,1.04,1.49,2.38,2.75,3.93,3.7Zm-4.09-40.64c-1.15-1.85-2.73-3.4-4.61-4.5,1.9-1.18,3.47-2.83,4.54-4.8,1.11,2.03,2.76,3.71,4.76,4.87-1.91,1.06-3.51,2.59-4.68,4.42Zm-.04,58.65c1.18,1.88,2.82,3.45,4.78,4.52-2.01,1.16-3.68,2.86-4.78,4.91-1.08-2.02-2.68-3.71-4.63-4.91,1.9-1.1,3.49-2.66,4.64-4.52Zm-.04-80.04c-1.26-2.34-3.23-4.23-5.62-5.4,2.5-1.29,4.49-3.41,5.62-5.99,1.16,2.61,3.21,4.74,5.77,5.99-2.45,1.14-4.48,3.04-5.77,5.4Zm0-21.21c-1.32-3.02-3.82-5.4-6.92-6.56,3.29-1.31,5.84-4.06,6.88-7.47,1.06,3.47,3.7,6.25,7.09,7.51-3.15,1.12-5.71,3.49-7.05,6.53Zm22.38,134.68c-1.11-2.89-3.3-5.25-6.08-6.57,2.67-1.21,4.84-3.33,6.12-5.97,1.33,2.67,3.59,4.79,6.36,5.93-2.92,1.25-5.24,3.64-6.4,6.62Zm.19-56.08c1.19,1.95,2.88,3.56,4.91,4.63-2.05,1.11-3.74,2.77-4.91,4.78-1.07-1.95-2.64-3.59-4.52-4.78,1.86-1.15,3.42-2.74,4.52-4.64Zm-4.52-17.93c1.86-1.17,3.41-2.79,4.48-4.72,1.16,1.99,2.85,3.65,4.87,4.76-1.99,1.07-3.66,2.67-4.84,4.6-1.1-1.9-2.66-3.49-4.52-4.64Zm4.48-17.41c-1.19-2.13-2.95-3.89-5.08-5.08,2.15-1.25,3.9-3.12,5-5.37,1.19,2.35,3.1,4.27,5.45,5.45-2.25,1.1-4.12,2.84-5.37,5Zm.04,57.34c1.26,2.17,3.14,3.92,5.41,5.02-2.41,1.2-4.36,3.15-5.56,5.56-1.1-2.27-2.85-4.15-5.02-5.41,2.18-1.2,3.98-3,5.18-5.18Zm22.29,11.38c-1.14-2.77-3.26-5.03-5.93-6.36,2.64-1.28,4.76-3.45,5.97-6.12,1.33,2.78,3.68,4.97,6.57,6.08-2.97,1.16-5.36,3.47-6.62,6.4Zm.08-34.47c1.3,2.54,3.46,4.57,6.1,5.69-2.7,1.16-4.87,3.27-6.14,5.91-1.14-2.5-3.06-4.58-5.47-5.88,2.39-1.27,4.32-3.28,5.51-5.73Zm-5.44-16.79c2.36-1.29,4.26-3.32,5.4-5.77,1.27,2.58,3.42,4.65,6.06,5.8-2.61,1.13-4.74,3.14-6.03,5.66-1.17-2.42-3.08-4.42-5.44-5.7Zm5.4-16.44c-1.22-2.62-3.31-4.74-5.9-6.01,2.64-1.33,4.73-3.58,5.86-6.32,1.24,2.89,3.6,5.19,6.53,6.36-2.84,1.11-5.15,3.25-6.48,5.97Zm7.39-28.38c-3.35,1.03-6.06,3.5-7.43,6.69-1.84-4.49-6.25-7.65-11.41-7.65-4.81,0-8.97,2.76-11,6.78-1.27-2.59-3.39-4.68-6.01-5.9,4.03-1.98,6.81-6.11,6.81-10.9,0-5.28-3.38-9.77-8.09-11.44,3.54-1.32,6.26-4.3,7.21-8,1.29,4.92,5.75,8.56,11.08,8.56,5.77,0,10.52-4.26,11.33-9.8,.71,4.76,4.42,8.53,9.15,9.32-5.48,.89-9.66,5.63-9.66,11.36,0,5.14,3.37,9.49,8.02,10.98Z"/>
      <circle class="cls-2" cx="540.66" cy="406.56" r="10.6"/>
      <path class="cls-2" d="M585.36,397.02c-5.27,0-9.54,4.27-9.54,9.54s4.27,9.54,9.54,9.54,9.54-4.27,9.54-9.54-4.27-9.54-9.54-9.54Z"/>
      <path class="cls-2" d="M630.06,398.13c-4.65,0-8.43,3.77-8.43,8.43s3.77,8.43,8.43,8.43,8.43-3.77,8.43-8.43-3.77-8.43-8.43-8.43Z"/>
      <path class="cls-2" d="M674.75,399.13c-4.11,0-7.44,3.33-7.44,7.44s3.33,7.44,7.44,7.44,7.44-3.33,7.44-7.44-3.33-7.44-7.44-7.44Z"/>
      <path class="cls-2" d="M116.02,422.03c-3.8,0-6.88,3.08-6.88,6.88s3.08,6.88,6.88,6.88,6.88-3.08,6.88-6.88-3.08-6.88-6.88-6.88Z"/>
      <path class="cls-2" d="M160.72,420.92c-4.42,0-7.99,3.58-7.99,7.99s3.58,7.99,7.99,7.99,7.99-3.58,7.99-7.99-3.58-7.99-7.99-7.99Z"/>
      <path class="cls-2" d="M205.42,419.93c-4.96,0-8.99,4.02-8.99,8.99s4.02,8.99,8.99,8.99,8.99-4.02,8.99-8.99-4.02-8.99-8.99-8.99Z"/>
      <path class="cls-2" d="M250.12,418.81c-5.58,0-10.1,4.52-10.1,10.1s4.52,10.1,10.1,10.1,10.1-4.52,10.1-10.1-4.52-10.1-10.1-10.1Z"/>
      <circle class="cls-2" cx="294.82" cy="428.91" r="11.09" transform="translate(-90.66 79.21) rotate(-13.28)"/>
      <circle class="cls-2" cx="518.31" cy="428.91" r="11.03"/>
      <circle class="cls-2" cx="540.66" cy="428.91" r="10.6"/>
      <path class="cls-2" d="M563.01,418.87c-5.54,0-10.04,4.5-10.04,10.04s4.49,10.04,10.04,10.04,10.04-4.49,10.04-10.04-4.49-10.04-10.04-10.04Z"/>
      <path class="cls-2" d="M607.71,419.93c-4.96,0-8.99,4.02-8.99,8.99s4.02,8.99,8.99,8.99,8.99-4.02,8.99-8.99-4.02-8.99-8.99-8.99Z"/>
      <path class="cls-2" d="M652.4,420.98c-4.38,0-7.93,3.55-7.93,7.93s3.55,7.93,7.93,7.93,7.93-3.55,7.93-7.93-3.55-7.93-7.93-7.93Z"/>
      <path class="cls-2" d="M697.1,422.09c-3.76,0-6.82,3.05-6.82,6.82s3.05,6.82,6.82,6.82,6.82-3.05,6.82-6.82-3.05-6.82-6.82-6.82Z"/>
      <path class="cls-2" d="M741.8,423.09c-3.22,0-5.83,2.61-5.83,5.83s2.61,5.83,5.83,5.83,5.83-2.61,5.83-5.83-2.61-5.83-5.83-5.83Z"/>
      <path class="cls-2" d="M786.5,424.2c-2.6,0-4.71,2.11-4.71,4.71s2.11,4.71,4.71,4.71,4.71-2.11,4.71-4.71-2.11-4.71-4.71-4.71Z"/>
      <path class="cls-2" d="M4.28,447.11c-2.29,0-4.15,1.86-4.15,4.15s1.86,4.15,4.15,4.15,4.15-1.86,4.15-4.15-1.86-4.15-4.15-4.15Z"/>
      <path class="cls-2" d="M48.97,445.99c-2.91,0-5.27,2.36-5.27,5.27s2.36,5.27,5.27,5.27,5.27-2.36,5.27-5.27-2.36-5.27-5.27-5.27Z"/>
      <path class="cls-2" d="M93.67,445c-3.46,0-6.26,2.8-6.26,6.26s2.8,6.26,6.26,6.26,6.26-2.8,6.26-6.26-2.8-6.26-6.26-6.26Z"/>
      <path class="cls-2" d="M138.37,443.89c-4.07,0-7.37,3.3-7.37,7.37s3.3,7.38,7.37,7.38,7.37-3.3,7.37-7.38-3.3-7.37-7.37-7.37Z"/>
      <path class="cls-2" d="M183.07,442.83c-4.66,0-8.43,3.77-8.43,8.43s3.77,8.43,8.43,8.43,8.43-3.77,8.43-8.43-3.77-8.43-8.43-8.43Z"/>
      <path class="cls-2" d="M227.77,441.84c-5.2,0-9.42,4.22-9.42,9.42s4.22,9.42,9.42,9.42,9.42-4.22,9.42-9.42-4.22-9.42-9.42-9.42Z"/>
      <path class="cls-2" d="M272.47,440.79c-5.78,0-10.47,4.69-10.47,10.47s4.69,10.47,10.47,10.47,10.47-4.69,10.47-10.47-4.69-10.47-10.47-10.47Z"/>
      <circle class="cls-2" cx="540.66" cy="451.26" r="10.41"/>
      <circle class="cls-2" cx="585.36" cy="451.26" r="9.36"/>
      <path class="cls-2" d="M630.06,442.89c-4.62,0-8.37,3.75-8.37,8.37s3.75,8.37,8.37,8.37,8.37-3.75,8.37-8.37-3.75-8.37-8.37-8.37Z"/>
      <path class="cls-2" d="M674.75,443.95c-4.04,0-7.31,3.27-7.31,7.31s3.27,7.31,7.31,7.31,7.31-3.27,7.31-7.31-3.27-7.31-7.31-7.31Z"/>
      <path class="cls-2" d="M719.45,445c-3.46,0-6.26,2.8-6.26,6.26s2.8,6.26,6.26,6.26,6.26-2.8,6.26-6.26-2.8-6.26-6.26-6.26Z"/>
      <path class="cls-2" d="M116.02,466.92c-3.7,0-6.69,3-6.69,6.69s3,6.69,6.69,6.69,6.69-3,6.69-6.69-3-6.69-6.69-6.69Z"/>
      <path class="cls-2" d="M160.72,465.86c-4.28,0-7.75,3.47-7.75,7.75s3.47,7.75,7.75,7.75,7.75-3.47,7.75-7.75-3.47-7.75-7.75-7.75Z"/>
      <circle class="cls-2" cx="205.42" cy="473.61" r="8.8" transform="translate(-274.73 283.97) rotate(-45)"/>
      <path class="cls-2" d="M250.12,463.88c-5.37,0-9.73,4.36-9.73,9.73s4.36,9.73,9.73,9.73,9.73-4.36,9.73-9.73-4.36-9.73-9.73-9.73Z"/>
      <circle class="cls-2" cx="294.82" cy="473.61" r="10.72"/>
      <path class="cls-2" d="M518.31,462.95c-5.89,0-10.66,4.77-10.66,10.66s4.77,10.66,10.66,10.66,10.66-4.77,10.66-10.66-4.77-10.66-10.66-10.66Z"/>
      <circle class="cls-2" cx="540.66" cy="473.61" r="10.23" transform="translate(-103.8 791.87) rotate(-67.5)"/>
      <path class="cls-2" d="M563.01,463.88c-5.37,0-9.73,4.36-9.73,9.73s4.36,9.73,9.73,9.73,9.73-4.36,9.73-9.73-4.36-9.73-9.73-9.73Z"/>
      <path class="cls-2" d="M607.71,464.87c-4.83,0-8.74,3.91-8.74,8.74s3.91,8.74,8.74,8.74,8.74-3.91,8.74-8.74-3.91-8.74-8.74-8.74Z"/>
      <path class="cls-2" d="M652.4,465.93c-4.24,0-7.68,3.44-7.68,7.68s3.44,7.68,7.68,7.68,7.68-3.44,7.68-7.68-3.44-7.68-7.68-7.68Z"/>
      <path class="cls-2" d="M697.1,466.92c-3.7,0-6.69,3-6.69,6.69s3,6.69,6.69,6.69,6.69-3,6.69-6.69-3-6.69-6.69-6.69Z"/>
      <path class="cls-2" d="M741.8,467.97c-3.11,0-5.64,2.52-5.64,5.64s2.53,5.64,5.64,5.64,5.64-2.52,5.64-5.64-2.52-5.64-5.64-5.64Z"/>
      <path class="cls-2" d="M786.5,469.02c-2.53,0-4.59,2.05-4.59,4.59s2.05,4.59,4.59,4.59,4.59-2.05,4.59-4.59-2.05-4.59-4.59-4.59Z"/>
      <path class="cls-2" d="M26.63,491.44c-2.5,0-4.52,2.03-4.52,4.52s2.03,4.52,4.52,4.52,4.52-2.03,4.52-4.52-2.03-4.52-4.52-4.52Z"/>
      <path class="cls-2" d="M71.32,490.38c-3.08,0-5.58,2.5-5.58,5.58s2.5,5.58,5.58,5.58,5.58-2.5,5.58-5.58-2.5-5.58-5.58-5.58Z"/>
      <path class="cls-2" d="M116.02,489.33c-3.66,0-6.63,2.97-6.63,6.63s2.97,6.63,6.63,6.63,6.63-2.97,6.63-6.63-2.97-6.63-6.63-6.63Z"/>
      <path class="cls-2" d="M160.72,488.4c-4.18,0-7.56,3.38-7.56,7.56s3.39,7.56,7.56,7.56,7.56-3.39,7.56-7.56-3.39-7.56-7.56-7.56Z"/>
      <path class="cls-2" d="M205.42,487.41c-4.72,0-8.55,3.83-8.55,8.55s3.83,8.55,8.55,8.55,8.55-3.83,8.55-8.55-3.83-8.55-8.55-8.55Z"/>
      <path class="cls-2" d="M250.12,486.42c-5.27,0-9.54,4.27-9.54,9.54s4.27,9.54,9.54,9.54,9.54-4.27,9.54-9.54-4.27-9.54-9.54-9.54Z"/>
      <circle class="cls-2" cx="272.47" cy="495.96" r="9.98" transform="translate(-39.98 24.16) rotate(-4.73)"/>
      <circle class="cls-2" cx="294.82" cy="495.96" r="10.41"/>
      <path class="cls-2" d="M317.17,485.18c-5.96,0-10.78,4.83-10.78,10.78s4.83,10.78,10.78,10.78,10.78-4.83,10.78-10.78-4.83-10.78-10.78-10.78Z"/>
      <circle class="cls-2" cx="518.31" cy="495.96" r="10.41"/>
      <path class="cls-2" d="M563.01,486.48c-5.24,0-9.48,4.25-9.48,9.48s4.25,9.48,9.48,9.48,9.48-4.25,9.48-9.48-4.25-9.48-9.48-9.48Z"/>
      <path class="cls-2" d="M607.71,487.41c-4.72,0-8.55,3.83-8.55,8.55s3.83,8.55,8.55,8.55,8.55-3.83,8.55-8.55-3.83-8.55-8.55-8.55Z"/>
      <path class="cls-2" d="M652.4,488.4c-4.18,0-7.56,3.38-7.56,7.56s3.39,7.56,7.56,7.56,7.56-3.39,7.56-7.56-3.39-7.56-7.56-7.56Z"/>
      <circle class="cls-2" cx="697.1" cy="495.96" r="6.57"/>
      <path class="cls-2" d="M138.37,511.37c-3.83,0-6.94,3.11-6.94,6.94s3.11,6.94,6.94,6.94,6.94-3.11,6.94-6.94-3.11-6.94-6.94-6.94Z"/>
      <path class="cls-2" d="M183.07,510.44c-4.35,0-7.87,3.52-7.87,7.87s3.52,7.87,7.87,7.87,7.87-3.52,7.87-7.87-3.52-7.87-7.87-7.87Z"/>
      <circle class="cls-2" cx="227.77" cy="518.31" r="8.8"/>
      <path class="cls-2" d="M272.47,508.64c-5.34,0-9.67,4.33-9.67,9.67s4.33,9.67,9.67,9.67,9.67-4.33,9.67-9.67-4.33-9.67-9.67-9.67Z"/>
      <circle class="cls-2" cx="317.17" cy="518.31" r="10.41" transform="translate(-273.6 376.08) rotate(-45)"/>
      <path class="cls-2" d="M339.52,507.59c-5.92,0-10.72,4.8-10.72,10.72s4.8,10.72,10.72,10.72,10.72-4.8,10.72-10.72-4.8-10.72-10.72-10.72Z"/>
      <circle class="cls-2" cx="384.21" cy="518.31" r="11.09"/>
      <circle class="cls-2" cx="428.91" cy="518.31" r="11.03" transform="translate(-107.61 112.41) rotate(-13.28)"/>
      <path class="cls-2" d="M473.61,507.65c-5.89,0-10.66,4.77-10.66,10.66s4.77,10.66,10.66,10.66,10.66-4.77,10.66-10.66-4.77-10.66-10.66-10.66Z"/>
      <circle class="cls-2" cx="495.96" cy="518.31" r="10.41"/>
      <circle class="cls-2" cx="518.31" cy="518.31" r="10.04" transform="translate(-48.55 983.02) rotate(-84.35)"/>
      <path class="cls-2" d="M540.66,508.64c-5.34,0-9.67,4.33-9.67,9.67s4.33,9.67,9.67,9.67,9.67-4.33,9.67-9.67-4.33-9.67-9.67-9.67Z"/>
      <circle class="cls-2" cx="585.36" cy="518.31" r="8.8" transform="translate(-75.47 100.46) rotate(-9.22)"/>
      <path class="cls-2" d="M630.06,510.44c-4.35,0-7.87,3.52-7.87,7.87s3.52,7.87,7.87,7.87,7.87-3.52,7.87-7.87-3.52-7.87-7.87-7.87Z"/>
      <path class="cls-2" d="M674.75,511.43c-3.8,0-6.88,3.08-6.88,6.88s3.08,6.88,6.88,6.88,6.88-3.08,6.88-6.88-3.08-6.88-6.88-6.88Z"/>
      <circle class="cls-2" cx="719.45" cy="518.31" r="5.83"/>
      <path class="cls-2" d="M764.15,513.41c-2.7,0-4.9,2.19-4.9,4.9s2.19,4.9,4.9,4.9,4.9-2.19,4.9-4.9-2.19-4.9-4.9-4.9Z"/>
      <path class="cls-2" d="M26.63,536.44c-2.33,0-4.21,1.89-4.21,4.21s1.89,4.21,4.21,4.21,4.21-1.89,4.21-4.21-1.89-4.21-4.21-4.21Z"/>
      <path class="cls-2" d="M71.32,535.39c-2.91,0-5.27,2.36-5.27,5.27s2.36,5.27,5.27,5.27,5.27-2.36,5.27-5.27-2.36-5.27-5.27-5.27Z"/>
      <path class="cls-2" d="M116.02,534.4c-3.46,0-6.26,2.8-6.26,6.26s2.8,6.26,6.26,6.26,6.26-2.8,6.26-6.26-2.8-6.26-6.26-6.26Z"/>
      <path class="cls-2" d="M160.72,533.53c-3.94,0-7.13,3.19-7.13,7.13s3.19,7.13,7.13,7.13,7.13-3.19,7.13-7.13-3.19-7.13-7.13-7.13Z"/>
      <path class="cls-2" d="M205.42,532.6c-4.45,0-8.06,3.61-8.06,8.06s3.61,8.06,8.06,8.06,8.06-3.61,8.06-8.06-3.61-8.06-8.06-8.06Z"/>
      <circle class="cls-2" cx="250.12" cy="540.66" r="8.86"/>
      <circle class="cls-2" cx="294.82" cy="540.66" r="9.67"/>
      <circle class="cls-2" cx="339.52" cy="540.66" r="10.23" transform="translate(-289.92 647.43) rotate(-67.5)"/>
      <circle class="cls-2" cx="384.21" cy="540.66" r="10.6"/>
      <path class="cls-2" d="M428.91,530.06c-5.85,0-10.6,4.74-10.6,10.6s4.74,10.6,10.6,10.6,10.6-4.74,10.6-10.6-4.74-10.6-10.6-10.6Z"/>
      <circle class="cls-2" cx="451.26" cy="540.66" r="10.41" transform="translate(-220.93 750.67) rotate(-67.5)"/>
      <circle class="cls-2" cx="495.96" cy="540.66" r="9.98" transform="translate(-101.25 966.84) rotate(-82.98)"/>
      <circle class="cls-2" cx="540.66" cy="540.66" r="9.3"/>
      <circle class="cls-2" cx="585.36" cy="540.66" r="8.43" transform="translate(-79.05 100.75) rotate(-9.22)"/>
      <path class="cls-2" d="M630.06,533.1c-4.18,0-7.56,3.39-7.56,7.56s3.39,7.56,7.56,7.56,7.56-3.39,7.56-7.56-3.39-7.56-7.56-7.56Z"/>
      <circle class="cls-2" cx="674.75" cy="540.66" r="6.69"/>
      <path class="cls-2" d="M138.37,556.56c-3.56,0-6.45,2.89-6.45,6.45s2.89,6.45,6.45,6.45,6.45-2.89,6.45-6.45-2.89-6.45-6.45-6.45Z"/>
      <path class="cls-2" d="M183.07,555.69c-4.04,0-7.31,3.27-7.31,7.31s3.27,7.31,7.31,7.31,7.31-3.27,7.31-7.31-3.27-7.31-7.31-7.31Z"/>
      <circle class="cls-2" cx="227.77" cy="563.01" r="8.18"/>
      <circle class="cls-2" cx="272.47" cy="563.01" r="8.86" transform="translate(-122.06 77.66) rotate(-13.28)"/>
      <path class="cls-2" d="M317.17,553.46c-5.27,0-9.54,4.27-9.54,9.54s4.27,9.54,9.54,9.54,9.54-4.27,9.54-9.54-4.27-9.54-9.54-9.54Z"/>
      <circle class="cls-2" cx="361.86" cy="563.01" r="9.92"/>
      <circle class="cls-2" cx="384.21" cy="563.01" r="10.04"/>
      <path class="cls-2" d="M406.56,552.91c-5.58,0-10.1,4.52-10.1,10.1s4.52,10.1,10.1,10.1,10.1-4.52,10.1-10.1-4.52-10.1-10.1-10.1Z"/>
      <circle class="cls-2" cx="451.26" cy="563.01" r="9.92"/>
      <circle class="cls-2" cx="473.61" cy="563.01" r="9.73"/>
      <circle class="cls-2" cx="518.31" cy="563.01" r="9.23"/>
      <path class="cls-2" d="M563.01,554.52c-4.69,0-8.49,3.8-8.49,8.49s3.8,8.49,8.49,8.49,8.49-3.8,8.49-8.49-3.8-8.49-8.49-8.49Z"/>
      <path class="cls-2" d="M607.71,555.32c-4.24,0-7.68,3.44-7.68,7.68s3.44,7.68,7.68,7.68,7.68-3.44,7.68-7.68-3.44-7.68-7.68-7.68Z"/>
      <circle class="cls-2" cx="652.4" cy="563.01" r="6.82"/>
      <path class="cls-2" d="M697.1,557.12c-3.25,0-5.89,2.64-5.89,5.89s2.64,5.89,5.89,5.89,5.89-2.64,5.89-5.89-2.64-5.89-5.89-5.89Z"/>
      <path class="cls-2" d="M741.8,558.05c-2.74,0-4.96,2.22-4.96,4.96s2.22,4.96,4.96,4.96,4.96-2.22,4.96-4.96-2.22-4.96-4.96-4.96Z"/>
      <path class="cls-2" d="M786.5,558.98c-2.22,0-4.03,1.8-4.03,4.03s1.8,4.03,4.03,4.03,4.03-1.8,4.03-4.03-1.8-4.03-4.03-4.03Z"/>
      <path class="cls-2" d="M48.97,581.08c-2.36,0-4.28,1.91-4.28,4.28s1.91,4.28,4.28,4.28,4.28-1.91,4.28-4.28-1.91-4.28-4.28-4.28Z"/>
      <path class="cls-2" d="M93.67,580.09c-2.91,0-5.27,2.36-5.27,5.27s2.36,5.27,5.27,5.27,5.27-2.36,5.27-5.27-2.36-5.27-5.27-5.27Z"/>
      <path class="cls-2" d="M160.72,578.79c-3.63,0-6.57,2.94-6.57,6.57s2.94,6.57,6.57,6.57,6.57-2.94,6.57-6.57-2.94-6.57-6.57-6.57Z"/>
      <path class="cls-2" d="M205.42,577.92c-4.11,0-7.44,3.33-7.44,7.44s3.33,7.44,7.44,7.44,7.44-3.33,7.44-7.44-3.33-7.44-7.44-7.44Z"/>
      <circle class="cls-2" cx="250.12" cy="585.36" r="8.18"/>
      <circle class="cls-2" cx="294.82" cy="585.36" r="8.8" transform="translate(-89.96 54.78) rotate(-9.22)"/>
      <path class="cls-2" d="M339.52,576.06c-5.13,0-9.3,4.16-9.3,9.3s4.16,9.3,9.3,9.3,9.3-4.16,9.3-9.3-4.16-9.3-9.3-9.3Z"/>
      <circle class="cls-2" cx="384.21" cy="585.36" r="9.48"/>
      <circle class="cls-2" cx="428.91" cy="585.36" r="9.48" transform="translate(-276.02 757.61) rotate(-67.5)"/>
      <path class="cls-2" d="M473.61,576.06c-5.13,0-9.3,4.16-9.3,9.3s4.16,9.3,9.3,9.3,9.3-4.16,9.3-9.3-4.16-9.3-9.3-9.3Z"/>
      <circle class="cls-2" cx="518.31" cy="585.36" r="8.8"/>
      <path class="cls-2" d="M563.01,577.24c-4.48,0-8.12,3.63-8.12,8.12s3.63,8.12,8.12,8.12,8.12-3.63,8.12-8.12-3.63-8.12-8.12-8.12Z"/>
      <path class="cls-2" d="M607.71,577.98c-4.07,0-7.37,3.3-7.37,7.37s3.3,7.37,7.37,7.37,7.38-3.3,7.38-7.37-3.3-7.37-7.38-7.37Z"/>
      <path class="cls-2" d="M652.4,578.79c-3.63,0-6.57,2.94-6.57,6.57s2.94,6.57,6.57,6.57,6.57-2.94,6.57-6.57-2.94-6.57-6.57-6.57Z"/>
      <path class="cls-2" d="M116.02,602.31c-2.98,0-5.39,2.41-5.39,5.39s2.41,5.39,5.39,5.39,5.39-2.41,5.39-5.39-2.41-5.39-5.39-5.39Z"/>
      <path class="cls-2" d="M183.07,601.01c-3.7,0-6.69,3-6.69,6.69s3,6.69,6.69,6.69,6.69-3,6.69-6.69-3-6.69-6.69-6.69Z"/>
      <path class="cls-2" d="M227.77,600.27c-4.11,0-7.44,3.33-7.44,7.44s3.33,7.44,7.44,7.44,7.44-3.33,7.44-7.44-3.33-7.44-7.44-7.44Z"/>
      <path class="cls-2" d="M272.47,599.65c-4.45,0-8.06,3.61-8.06,8.06s3.61,8.06,8.06,8.06,8.06-3.61,8.06-8.06-3.61-8.06-8.06-8.06Z"/>
      <path class="cls-2" d="M317.17,599.15c-4.72,0-8.55,3.83-8.55,8.55s3.83,8.55,8.55,8.55,8.55-3.83,8.55-8.55-3.83-8.55-8.55-8.55Z"/>
      <path class="cls-2" d="M361.86,598.84c-4.89,0-8.86,3.97-8.86,8.86s3.97,8.86,8.86,8.86,8.86-3.97,8.86-8.86-3.97-8.86-8.86-8.86Z"/>
      <circle class="cls-2" cx="406.56" cy="607.71" r="8.99" transform="translate(-92.09 72.97) rotate(-9.22)"/>
      <circle class="cls-2" cx="451.26" cy="607.71" r="8.86" transform="translate(-91.52 80.13) rotate(-9.22)"/>
      <path class="cls-2" d="M495.96,599.15c-4.72,0-8.55,3.83-8.55,8.55s3.83,8.55,8.55,8.55,8.55-3.83,8.55-8.55-3.83-8.55-8.55-8.55Z"/>
      <path class="cls-2" d="M540.66,599.71c-4.42,0-7.99,3.58-7.99,7.99s3.58,7.99,7.99,7.99,7.99-3.58,7.99-7.99-3.58-7.99-7.99-7.99Z"/>
      <path class="cls-2" d="M585.36,600.33c-4.07,0-7.37,3.3-7.37,7.37s3.3,7.37,7.37,7.37,7.37-3.3,7.37-7.37-3.3-7.37-7.37-7.37Z"/>
      <circle class="cls-2" cx="630.06" cy="607.71" r="6.63"/>
      <circle class="cls-2" cx="674.75" cy="607.71" r="5.83"/>
      <path class="cls-2" d="M719.45,602.75c-2.74,0-4.96,2.22-4.96,4.96s2.22,4.96,4.96,4.96,4.96-2.22,4.96-4.96-2.22-4.96-4.96-4.96Z"/>
      <path class="cls-2" d="M764.15,603.68c-2.22,0-4.03,1.8-4.03,4.03s1.8,4.03,4.03,4.03,4.03-1.8,4.03-4.03-1.8-4.03-4.03-4.03Z"/>
      <path class="cls-2" d="M71.32,625.84c-2.33,0-4.21,1.89-4.21,4.21s1.89,4.21,4.21,4.21,4.21-1.89,4.21-4.21-1.89-4.21-4.21-4.21Z"/>
      <path class="cls-2" d="M138.37,624.54c-3.05,0-5.52,2.47-5.52,5.52s2.47,5.52,5.52,5.52,5.52-2.47,5.52-5.52-2.47-5.52-5.52-5.52Z"/>
      <path class="cls-2" d="M205.42,623.36c-3.7,0-6.69,3-6.69,6.69s3,6.69,6.69,6.69,6.69-3,6.69-6.69-3-6.69-6.69-6.69Z"/>
      <path class="cls-2" d="M250.12,622.74c-4.04,0-7.31,3.27-7.31,7.31s3.27,7.31,7.31,7.31,7.31-3.27,7.31-7.31-3.27-7.31-7.31-7.31Z"/>
      <path class="cls-2" d="M294.82,622.18c-4.35,0-7.87,3.52-7.87,7.87s3.52,7.87,7.87,7.87,7.87-3.52,7.87-7.87-3.52-7.87-7.87-7.87Z"/>
      <path class="cls-2" d="M339.52,621.81c-4.55,0-8.24,3.69-8.24,8.24s3.69,8.24,8.24,8.24,8.24-3.69,8.24-8.24-3.69-8.24-8.24-8.24Z"/>
      <path class="cls-2" d="M384.21,621.63c-4.65,0-8.43,3.77-8.43,8.43s3.77,8.43,8.43,8.43,8.43-3.77,8.43-8.43-3.77-8.43-8.43-8.43Z"/>
      <path class="cls-2" d="M428.91,621.63c-4.66,0-8.43,3.77-8.43,8.43s3.77,8.43,8.43,8.43,8.43-3.77,8.43-8.43-3.77-8.43-8.43-8.43Z"/>
      <path class="cls-2" d="M473.61,621.81c-4.55,0-8.24,3.69-8.24,8.24s3.69,8.24,8.24,8.24,8.24-3.69,8.24-8.24-3.69-8.24-8.24-8.24Z"/>
      <path class="cls-2" d="M518.31,622.18c-4.35,0-7.87,3.52-7.87,7.87s3.52,7.87,7.87,7.87,7.87-3.52,7.87-7.87-3.52-7.87-7.87-7.87Z"/>
      <path class="cls-2" d="M563.01,622.74c-4.04,0-7.31,3.27-7.31,7.31s3.27,7.31,7.31,7.31,7.31-3.27,7.31-7.31-3.27-7.31-7.31-7.31Z"/>
      <path class="cls-2" d="M607.71,623.42c-3.66,0-6.63,2.97-6.63,6.63s2.97,6.63,6.63,6.63,6.63-2.97,6.63-6.63-2.97-6.63-6.63-6.63Z"/>
      <path class="cls-2" d="M652.4,624.23c-3.22,0-5.83,2.61-5.83,5.83s2.61,5.83,5.83,5.83,5.83-2.61,5.83-5.83-2.61-5.83-5.83-5.83Z"/>
      <path class="cls-2" d="M160.72,646.89c-3.05,0-5.52,2.47-5.52,5.52s2.47,5.52,5.52,5.52,5.52-2.47,5.52-5.52-2.47-5.52-5.52-5.52Z"/>
      <circle class="cls-2" cx="227.77" cy="652.4" r="6.57"/>
      <circle class="cls-2" cx="272.47" cy="652.4" r="7.13"/>
      <path class="cls-2" d="M317.17,644.84c-4.18,0-7.56,3.39-7.56,7.56s3.39,7.56,7.56,7.56,7.56-3.39,7.56-7.56-3.39-7.56-7.56-7.56Z"/>
      <path class="cls-2" d="M361.86,644.53c-4.35,0-7.87,3.52-7.87,7.87s3.52,7.87,7.87,7.87,7.87-3.52,7.87-7.87-3.52-7.87-7.87-7.87Z"/>
      <path class="cls-2" d="M406.56,644.41c-4.42,0-7.99,3.58-7.99,7.99s3.58,7.99,7.99,7.99,7.99-3.58,7.99-7.99-3.58-7.99-7.99-7.99Z"/>
      <path class="cls-2" d="M451.26,644.53c-4.35,0-7.87,3.52-7.87,7.87s3.52,7.87,7.87,7.87,7.87-3.52,7.87-7.87-3.52-7.87-7.87-7.87Z"/>
      <path class="cls-2" d="M495.96,644.84c-4.18,0-7.56,3.39-7.56,7.56s3.39,7.56,7.56,7.56,7.56-3.39,7.56-7.56-3.39-7.56-7.56-7.56Z"/>
      <circle class="cls-2" cx="540.66" cy="652.4" r="7.13"/>
      <path class="cls-2" d="M585.36,645.84c-3.63,0-6.57,2.94-6.57,6.57s2.94,6.57,6.57,6.57,6.57-2.94,6.57-6.57-2.94-6.57-6.57-6.57Z"/>
      <path class="cls-2" d="M630.06,646.58c-3.22,0-5.83,2.61-5.83,5.83s2.61,5.83,5.83,5.83,5.83-2.61,5.83-5.83-2.61-5.83-5.83-5.83Z"/>
      <path class="cls-2" d="M674.75,647.26c-2.84,0-5.14,2.3-5.14,5.14s2.3,5.14,5.14,5.14,5.14-2.3,5.14-5.14-2.3-5.14-5.14-5.14Z"/>
      <path class="cls-2" d="M719.45,648.07c-2.4,0-4.34,1.94-4.34,4.34s1.94,4.34,4.34,4.34,4.34-1.94,4.34-4.34-1.94-4.34-4.34-4.34Z"/>
      <path class="cls-2" d="M93.67,670.73c-2.22,0-4.03,1.8-4.03,4.03s1.8,4.03,4.03,4.03,4.03-1.8,4.03-4.03-1.8-4.03-4.03-4.03Z"/>
      <circle class="cls-2" cx="183.07" cy="674.75" r="5.45"/>
      <path class="cls-2" d="M250.12,668.37c-3.53,0-6.38,2.86-6.38,6.38s2.86,6.38,6.38,6.38,6.38-2.86,6.38-6.38-2.86-6.38-6.38-6.38Z"/>
      <path class="cls-2" d="M294.82,667.87c-3.8,0-6.88,3.08-6.88,6.88s3.08,6.88,6.88,6.88,6.88-3.08,6.88-6.88-3.08-6.88-6.88-6.88Z"/>
      <path class="cls-2" d="M339.52,667.57c-3.97,0-7.19,3.22-7.19,7.19s3.22,7.19,7.19,7.19,7.19-3.22,7.19-7.19-3.22-7.19-7.19-7.19Z"/>
      <path class="cls-2" d="M384.21,667.38c-4.07,0-7.37,3.3-7.37,7.37s3.3,7.37,7.37,7.37,7.37-3.3,7.37-7.37-3.3-7.37-7.37-7.37Z"/>
      <path class="cls-2" d="M428.91,667.38c-4.07,0-7.37,3.3-7.37,7.37s3.3,7.37,7.37,7.37,7.37-3.3,7.37-7.37-3.3-7.37-7.37-7.37Z"/>
      <path class="cls-2" d="M473.61,667.57c-3.97,0-7.19,3.22-7.19,7.19s3.22,7.19,7.19,7.19,7.19-3.22,7.19-7.19-3.22-7.19-7.19-7.19Z"/>
      <path class="cls-2" d="M518.31,667.87c-3.8,0-6.88,3.08-6.88,6.88s3.08,6.88,6.88,6.88,6.88-3.08,6.88-6.88-3.08-6.88-6.88-6.88Z"/>
      <path class="cls-2" d="M563.01,668.37c-3.53,0-6.38,2.86-6.38,6.38s2.86,6.38,6.38,6.38,6.38-2.86,6.38-6.38-2.86-6.38-6.38-6.38Z"/>
      <path class="cls-2" d="M138.37,692.7c-2.43,0-4.4,1.97-4.4,4.4s1.97,4.4,4.4,4.4,4.4-1.97,4.4-4.4-1.97-4.4-4.4-4.4Z"/>
      <path class="cls-2" d="M205.42,691.71c-2.98,0-5.39,2.41-5.39,5.39s2.41,5.39,5.39,5.39,5.39-2.41,5.39-5.39-2.41-5.39-5.39-5.39Z"/>
      <path class="cls-2" d="M272.47,690.91c-3.42,0-6.2,2.77-6.2,6.2s2.77,6.2,6.2,6.2,6.2-2.77,6.2-6.2-2.77-6.2-6.2-6.2Z"/>
      <path class="cls-2" d="M317.17,690.53c-3.63,0-6.57,2.94-6.57,6.57s2.94,6.57,6.57,6.57,6.57-2.94,6.57-6.57-2.94-6.57-6.57-6.57Z"/>
      <path class="cls-2" d="M361.86,690.35c-3.73,0-6.76,3.02-6.76,6.76s3.02,6.76,6.76,6.76,6.76-3.02,6.76-6.76-3.02-6.76-6.76-6.76Z"/>
      <path class="cls-2" d="M406.56,690.22c-3.8,0-6.88,3.08-6.88,6.88s3.08,6.88,6.88,6.88,6.88-3.08,6.88-6.88-3.08-6.88-6.88-6.88Z"/>
      <path class="cls-2" d="M451.26,690.35c-3.73,0-6.76,3.02-6.76,6.76s3.02,6.76,6.76,6.76,6.76-3.02,6.76-6.76-3.02-6.76-6.76-6.76Z"/>
      <path class="cls-2" d="M495.96,690.53c-3.63,0-6.57,2.94-6.57,6.57s2.94,6.57,6.57,6.57,6.57-2.94,6.57-6.57-2.94-6.57-6.57-6.57Z"/>
      <path class="cls-2" d="M540.66,690.91c-3.42,0-6.2,2.77-6.2,6.2s2.77,6.2,6.2,6.2,6.2-2.77,6.2-6.2-2.77-6.2-6.2-6.2Z"/>
      <path class="cls-2" d="M585.36,691.46c-3.11,0-5.64,2.52-5.64,5.64s2.52,5.64,5.64,5.64,5.64-2.53,5.64-5.64-2.53-5.64-5.64-5.64Z"/>
      <path class="cls-2" d="M630.06,692.08c-2.77,0-5.02,2.25-5.02,5.02s2.25,5.02,5.02,5.02,5.02-2.25,5.02-5.02-2.25-5.02-5.02-5.02Z"/>
      <circle class="cls-2" cx="674.75" cy="697.1" r="4.4"/>
      <path class="cls-2" d="M227.77,714.25c-2.87,0-5.21,2.33-5.21,5.21s2.33,5.21,5.21,5.21,5.21-2.33,5.21-5.21-2.33-5.21-5.21-5.21Z"/>
      <path class="cls-2" d="M294.82,713.56c-3.25,0-5.89,2.64-5.89,5.89s2.64,5.89,5.89,5.89,5.89-2.64,5.89-5.89-2.64-5.89-5.89-5.89Z"/>
      <path class="cls-2" d="M339.52,713.26c-3.42,0-6.2,2.77-6.2,6.2s2.77,6.2,6.2,6.2,6.2-2.77,6.2-6.2-2.77-6.2-6.2-6.2Z"/>
      <path class="cls-2" d="M384.21,713.13c-3.49,0-6.32,2.83-6.32,6.32s2.83,6.32,6.32,6.32,6.32-2.83,6.32-6.32-2.83-6.32-6.32-6.32Z"/>
      <path class="cls-2" d="M428.91,713.13c-3.49,0-6.32,2.83-6.32,6.32s2.83,6.32,6.32,6.32,6.32-2.83,6.32-6.32-2.83-6.32-6.32-6.32Z"/>
      <path class="cls-2" d="M473.61,713.26c-3.42,0-6.2,2.77-6.2,6.2s2.77,6.2,6.2,6.2,6.2-2.77,6.2-6.2-2.77-6.2-6.2-6.2Z"/>
      <path class="cls-2" d="M518.31,713.63c-3.22,0-5.83,2.61-5.83,5.83s2.61,5.83,5.83,5.83,5.83-2.61,5.83-5.83-2.61-5.83-5.83-5.83Z"/>
      <path class="cls-2" d="M183.07,737.59c-2.33,0-4.21,1.89-4.21,4.21s1.89,4.21,4.21,4.21,4.21-1.89,4.21-4.21-1.89-4.21-4.21-4.21Z"/>
      <path class="cls-2" d="M250.12,736.84c-2.74,0-4.96,2.22-4.96,4.96s2.22,4.96,4.96,4.96,4.96-2.22,4.96-4.96-2.22-4.96-4.96-4.96Z"/>
      <path class="cls-2" d="M540.66,736.6c-2.88,0-5.21,2.33-5.21,5.21s2.33,5.21,5.21,5.21,5.21-2.33,5.21-5.21-2.33-5.21-5.21-5.21Z"/>
      <path class="cls-2" d="M585.36,737.09c-2.6,0-4.71,2.11-4.71,4.71s2.11,4.71,4.71,4.71,4.71-2.11,4.71-4.71-2.11-4.71-4.71-4.71Z"/>
      <path class="cls-2" d="M630.06,737.65c-2.29,0-4.15,1.86-4.15,4.15s1.86,4.15,4.15,4.15,4.15-1.86,4.15-4.15-1.86-4.15-4.15-4.15Z"/>
      <path class="cls-2" d="M272.47,759.44c-2.6,0-4.71,2.11-4.71,4.71s2.11,4.71,4.71,4.71,4.71-2.11,4.71-4.71-2.11-4.71-4.71-4.71Z"/>
      <path class="cls-2" d="M317.17,759.13c-2.77,0-5.02,2.25-5.02,5.02s2.25,5.02,5.02,5.02,5.02-2.25,5.02-5.02-2.25-5.02-5.02-5.02Z"/>
      <path class="cls-2" d="M361.86,758.95c-2.88,0-5.21,2.33-5.21,5.21s2.33,5.21,5.21,5.21,5.21-2.33,5.21-5.21-2.33-5.21-5.21-5.21Z"/>
      <path class="cls-2" d="M406.56,758.88c-2.91,0-5.27,2.36-5.27,5.27s2.36,5.27,5.27,5.27,5.27-2.36,5.27-5.27-2.36-5.27-5.27-5.27Z"/>
      <path class="cls-2" d="M451.26,758.95c-2.88,0-5.21,2.33-5.21,5.21s2.33,5.21,5.21,5.21,5.21-2.33,5.21-5.21-2.33-5.21-5.21-5.21Z"/>
      <path class="cls-2" d="M495.96,759.19c-2.74,0-4.96,2.22-4.96,4.96s2.22,4.96,4.96,4.96,4.96-2.22,4.96-4.96-2.22-4.96-4.96-4.96Z"/>
      <path class="cls-2" d="M518.31,782.16c-2.4,0-4.34,1.94-4.34,4.34s1.94,4.34,4.34,4.34,4.34-1.94,4.34-4.34-1.94-4.34-4.34-4.34Z"/>
      <path class="cls-2" d="M563.01,782.47c-2.22,0-4.03,1.8-4.03,4.03s1.8,4.03,4.03,4.03,4.03-1.8,4.03-4.03-1.8-4.03-4.03-4.03Z"/>
      <path class="cls-2" d="M317.17,804.82c-2.22,0-4.03,1.8-4.03,4.03s1.8,4.03,4.03,4.03,4.03-1.8,4.03-4.03-1.8-4.03-4.03-4.03Z"/>
      <path class="cls-2" d="M361.86,804.7c-2.29,0-4.15,1.86-4.15,4.15s1.86,4.15,4.15,4.15,4.15-1.86,4.15-4.15-1.86-4.15-4.15-4.15Z"/>
      <path class="cls-2" d="M406.56,804.64c-2.33,0-4.21,1.89-4.21,4.21s1.89,4.21,4.21,4.21,4.21-1.89,4.21-4.21-1.89-4.21-4.21-4.21Z"/>
      <path class="cls-2" d="M451.26,804.7c-2.29,0-4.15,1.86-4.15,4.15s1.86,4.15,4.15,4.15,4.15-1.86,4.15-4.15-1.86-4.15-4.15-4.15Z"/>
    </g>
  </g>
</svg>