<?xml version="1.0" encoding="UTF-8"?>
<svg id="_图层_2" data-name="图层 2" xmlns="http://www.w3.org/2000/svg" viewBox="0 0 54.04 44.09">
  <defs>
    <style>
      .cls-1 {
        fill: #39b54a;
      }
    </style>
  </defs>
  <g id="_图层_1-2" data-name="图层 1">
    <g>
      <path class="cls-1" d="M54.04,18.78c0-3.36-1.86-6.48-5.02-9.02-.21-2.72-1.15-5.08-2.89-6.82-4.07-4.07-11.48-3.77-19.11,.06-7.62-3.83-15.03-4.13-19.11-.06-1.74,1.74-2.68,4.1-2.89,6.82C1.86,12.3,0,15.41,0,18.78c0,3.57,2.1,6.86,5.62,9.48-1.31,5.25-.65,9.94,2.29,12.89,4.07,4.07,11.48,3.77,19.11-.06,7.62,3.83,15.03,4.13,19.11,.06,2.95-2.95,3.6-7.64,2.29-12.89,3.52-2.62,5.62-5.91,5.62-9.48Zm-16.26,13.31c-3.21,.9-6.87,1.4-10.76,1.4s-7.55-.51-10.76-1.4c-1.51-1.54-2.85-3.14-4.02-4.75,1.62-3.9,4.42-8.07,8.21-11.86,2.11-2.11,4.34-3.91,6.57-5.37,2.23,1.46,4.46,3.26,6.57,5.37,3.79,3.79,6.59,7.96,8.21,11.86-1.17,1.61-2.51,3.21-4.02,4.75Zm4.39-3.81c.24,.65,.45,1.29,.62,1.92-1.04,.52-2.18,.99-3.39,1.4,1-1.08,1.92-2.19,2.77-3.31Zm-5.65,5.06c-3.07,2.89-6.34,5.15-9.49,6.67-3.15-1.52-6.43-3.78-9.49-6.67,2.95,.64,6.15,.99,9.49,.99s6.54-.35,9.49-.99Zm-21.86-1.75c-1.21-.41-2.35-.88-3.39-1.4,.17-.63,.38-1.27,.62-1.92,.85,1.12,1.78,2.23,2.77,3.31Zm1.52-20.67s-.1,.09-.14,.14c-3.13,3.13-5.64,6.51-7.48,9.88-.79-1.83-1.32-3.61-1.57-5.26,2.13-2.01,5.32-3.66,9.19-4.75Zm21.84,.14s-.09-.09-.14-.14c3.86,1.09,7.06,2.74,9.19,4.75-.25,1.66-.78,3.43-1.57,5.26-1.84-3.37-4.35-6.75-7.48-9.88ZM4.11,21.49c0-1.65,.64-3.22,1.78-4.65,.5,1.7,1.19,3.45,2.07,5.2-.74,1.48-1.35,2.95-1.82,4.39-1.3-1.51-2.03-3.18-2.03-4.94Zm8.63,18.67c-2.01-2.01-2.52-5.19-1.74-8.87,1.54,.65,3.2,1.21,4.96,1.67,.03,.03,.05,.05,.08,.08,3.13,3.13,6.51,5.64,9.88,7.48-5.44,2.34-10.41,2.41-13.17-.35Zm28.56,0c-2.76,2.76-7.72,2.69-13.17,.35,3.37-1.84,6.75-4.35,9.88-7.48,.03-.03,.05-.05,.08-.08,1.76-.46,3.42-1.01,4.96-1.67,.77,3.68,.26,6.86-1.74,8.87Zm6.59-13.73c-.47-1.44-1.08-2.91-1.82-4.39,.88-1.76,1.58-3.51,2.07-5.2,1.15,1.43,1.78,3,1.78,4.65,0,1.76-.73,3.44-2.03,4.94Z"/>
      <circle class="cls-1" cx="27.02" cy="22.04" r="7.01"/>
    </g>
  </g>
</svg>