<?xml version="1.0" encoding="UTF-8"?>
<svg id="_图层_2" data-name="图层 2" xmlns="http://www.w3.org/2000/svg" xmlns:xlink="http://www.w3.org/1999/xlink" viewBox="0 0 1924 1082">
  <defs>
    <style>
      .cls-1 {
        fill: #39b54a;
      }

      .cls-2 {
        clip-path: url(#clippath);
      }

      .cls-3 {
        fill: none;
      }
    </style>
    <clipPath id="clippath">
      <rect class="cls-3" width="1924" height="1082"/>
    </clipPath>
  </defs>
  <g id="_图层_1-2" data-name="图层 1">
    <g class="cls-2">
      <g>
        <path class="cls-1" d="M922.44,332.6c-1.07,.75-3.87,2.37-6.19,3.58-2.3,1.2-3.42,1.55-2.44,.77,.98-.79,3.77-2.4,6.18-3.57,2.42-1.18,3.53-1.53,2.45-.77Z"/>
        <path class="cls-1" d="M982.8,302.23c-2.16,.77-6.38,2.69-9.38,4.26-2.98,1.57-3.8,2.19-1.8,1.37,2.01-.82,6.24-2.75,9.4-4.27,3.15-1.52,3.96-2.13,1.79-1.36Z"/>
        <path class="cls-1" d="M1043.09,271.83c-3.63,.7-9.57,2.86-13.2,4.78-3.63,1.93-3.91,2.91-.53,2.13,3.36-.76,9.32-2.92,13.23-4.8,3.89-1.86,4.12-2.82,.5-2.12Z"/>
        <path class="cls-1" d="M1103.3,241.42c-5.45,.53-13.36,2.84-17.64,5.14-4.29,2.3-3.72,3.7,1.36,3.07,5.08-.62,13.03-2.94,17.71-5.15,4.65-2.21,4.01-3.58-1.43-3.05Z"/>
        <path class="cls-1" d="M1163.44,210.99c-7.61,.26-17.8,2.66-22.71,5.32-4.94,2.68-3.24,4.57,3.89,4.18,7.12-.39,17.37-2.79,22.81-5.35,5.4-2.54,3.62-4.41-3.99-4.15Z"/>
        <path class="cls-1" d="M1202.16,191.33c9.51-.06,22.32-2.47,28.53-5.36,6.18-2.88,2.97-5.32-7.17-5.43-10.14-.11-22.84,2.29-28.4,5.34-5.59,3.07-2.47,5.51,7.04,5.45Z"/>
        <path class="cls-1" d="M885.15,355.78c-.79,.83-3.16,2.57-5.25,3.84-2.08,1.26-3.24,1.6-2.54,.73,.67-.86,3.06-2.6,5.23-3.83,2.19-1.24,3.33-1.57,2.56-.74Z"/>
        <path class="cls-1" d="M939.63,323.83c-1.8,.88-5.46,2.94-8.16,4.6-2.69,1.65-3.55,2.24-1.93,1.33,1.62-.92,5.32-3,8.17-4.6,2.86-1.6,3.72-2.2,1.92-1.32Z"/>
        <path class="cls-1" d="M994.03,291.85c-3.16,.82-8.44,3.17-11.7,5.19-3.28,2.04-3.62,2.99-.69,2.09,2.9-.89,8.17-3.23,11.72-5.2,3.5-1.95,3.84-2.9,.67-2.08Z"/>
        <path class="cls-1" d="M1048.36,259.86c-4.89,.67-12,3.2-15.85,5.62-3.86,2.43-3.36,3.79,1.17,3.02,4.53-.77,11.69-3.31,15.91-5.64,4.2-2.31,3.66-3.67-1.23-3Z"/>
        <path class="cls-1" d="M1102.62,227.85c-6.97,.43-16.23,3.08-20.64,5.88-4.44,2.82-2.82,4.67,3.66,4.12,6.47-.55,15.8-3.21,20.73-5.9,4.89-2.67,3.22-4.52-3.75-4.09Z"/>
        <path class="cls-1" d="M1137.55,207.17c8.79-.25,20.53-2.95,26.17-6,5.57-3.02,2.52-5.44-6.9-5.35-9.41,.08-21.08,2.78-26.04,5.97-5.01,3.22-2.03,5.64,6.78,5.38Z"/>
        <path class="cls-1" d="M900.43,348.24c-1.07,.76-3.48,2.48-5.31,3.81-1.84,1.33-2.54,1.78-1.57,1,.97-.78,3.37-2.5,5.31-3.81,1.93-1.3,2.66-1.76,1.58-1Z"/>
        <path class="cls-1" d="M948.57,314.58c-2.18,.78-5.88,2.83-8.25,4.57-2.38,1.74-2.67,2.49-.67,1.67,2.02-.83,5.72-2.88,8.26-4.57,2.51-1.68,2.83-2.44,.66-1.66Z"/>
        <path class="cls-1" d="M996.64,280.9c-3.62,.7-8.95,3.03-11.81,5.16-2.87,2.14-2.51,3.27,.86,2.51,3.37-.77,8.71-3.1,11.85-5.17,3.12-2.06,2.73-3.19-.89-2.49Z"/>
        <path class="cls-1" d="M1044.64,247.2c-5.45,.53-12.63,3.05-16,5.58-3.4,2.56-2.05,4.13,3.02,3.51,5.09-.63,12.29-3.14,16.06-5.6,3.73-2.44,2.37-4.02-3.08-3.49Z"/>
        <path class="cls-1" d="M1092.57,213.49c-7.62,.26-16.92,2.88-20.81,5.83-3.9,2.97-1.31,5.08,5.8,4.69,7.13-.39,16.51-3.02,20.9-5.86,4.36-2.82,1.7-4.91-5.89-4.66Z"/>
        <path class="cls-1" d="M1123.39,191.71c9.51-.06,21.34-2.73,26.36-5.95,4.98-3.19,.79-5.9-9.33-6.01-10.15-.11-21.85,2.55-26.24,5.92-4.39,3.38-.31,6.09,9.21,6.03Z"/>
        <path class="cls-1" d="M869.11,373.03c-.78,.83-2.77,2.68-4.37,4.07-1.61,1.39-2.36,1.83-1.68,.97,.67-.85,2.66-2.7,4.36-4.06,1.72-1.37,2.48-1.82,1.68-.97Z"/>
        <path class="cls-1" d="M911.37,337.79c-1.8,.88-4.98,3.1-7.03,4.9-2.04,1.81-2.43,2.56-.8,1.63,1.62-.92,4.79-3.13,7.03-4.91,2.24-1.77,2.58-2.5,.79-1.62Z"/>
        <path class="cls-1" d="M953.56,302.53c-3.18,.83-7.79,3.33-10.31,5.56-2.52,2.25-2.21,3.35,.69,2.46,2.9-.89,7.57-3.41,10.33-5.58,2.77-2.17,2.44-3.27-.72-2.45Z"/>
        <path class="cls-1" d="M995.67,267.25c-4.89,.67-11.27,3.41-14.21,6.06-2.95,2.67-1.72,4.23,2.81,3.46,4.53-.77,10.94-3.5,14.26-6.08,3.28-2.55,2.01-4.11-2.87-3.44Z"/>
        <path class="cls-1" d="M1037.71,231.95c-6.97,.43-15.38,3.31-18.73,6.39-3.4,3.11-.91,5.18,5.57,4.63,6.48-.56,14.93-3.44,18.82-6.42,3.84-2.95,1.31-5.03-5.65-4.6Z"/>
        <path class="cls-1" d="M1064.75,209.15c8.79-.26,19.57-3.21,24-6.58,4.39-3.34,.35-6.02-9.06-5.93-9.41,.08-20.11,3.05-23.88,6.55-3.82,3.54,.16,6.22,8.95,5.97Z"/>
        <path class="cls-1" d="M878.42,363.87c-1.07,.76-3.09,2.59-4.44,4.05-1.37,1.46-1.67,2.01-.7,1.23,.98-.78,2.98-2.61,4.44-4.04,1.45-1.43,1.77-1.99,.7-1.24Z"/>
        <path class="cls-1" d="M914.35,326.93c-2.18,.78-5.37,2.97-7.12,4.87-1.73,1.89-1.55,2.8,.46,1.97,2.01-.83,5.22-3.02,7.13-4.88,1.93-1.86,1.69-2.74-.47-1.97Z"/>
        <path class="cls-1" d="M950.2,289.97c-3.63,.7-8.31,3.19-10.43,5.53-2.12,2.35-1.11,3.65,2.25,2.88,3.38-.77,8.08-3.26,10.46-5.54,2.37-2.27,1.35-3.57-2.28-2.87Z"/>
        <path class="cls-1" d="M985.98,252.99c-5.44,.53-11.87,3.24-14.35,6.02-2.49,2.8-.42,4.59,4.67,3.96,5.08-.62,11.57-3.35,14.41-6.04,2.85-2.69,.71-4.46-4.72-3.94Z"/>
        <path class="cls-1" d="M1021.69,215.99c-7.63,.26-16.09,3.12-18.9,6.34-2.85,3.25,.57,5.6,7.71,5.2,7.13-.39,15.66-3.25,18.99-6.37,3.3-3.1-.19-5.43-7.79-5.18Z"/>
        <path class="cls-1" d="M1044.62,192.09c9.54-.07,20.36-2.98,24.2-6.53,3.78-3.51-1.35-6.48-11.5-6.59-10.14-.11-20.9,2.82-24.08,6.5-3.19,3.7,1.88,6.67,11.38,6.62Z"/>
        <path class="cls-1" d="M853.07,390.27c-.79,.84-2.35,2.77-3.5,4.3-1.12,1.52-1.49,2.06-.81,1.2,.69-.86,2.25-2.8,3.49-4.3,1.23-1.49,1.59-2.04,.81-1.21Z"/>
        <path class="cls-1" d="M883.11,351.75c-1.79,.87-4.45,3.22-5.89,5.2-1.46,1.99-1.32,2.86,.33,1.94,1.63-.92,4.29-3.27,5.9-5.21,1.6-1.93,1.46-2.8-.34-1.93Z"/>
        <path class="cls-1" d="M913.08,313.2c-3.14,.81-7.18,3.5-8.92,5.94-1.77,2.46-.83,3.73,2.08,2.84,2.89-.88,6.92-3.57,8.94-5.95,2.01-2.37,1.05-3.64-2.11-2.82Z"/>
        <path class="cls-1" d="M942.98,274.64c-4.89,.68-10.53,3.61-12.56,6.5-2.05,2.92-.06,4.68,4.47,3.91,4.54-.78,10.18-3.7,12.61-6.53,2.4-2.81,.38-4.56-4.52-3.88Z"/>
        <path class="cls-1" d="M972.8,236.06c-6.98,.43-14.52,3.54-16.84,6.9-2.32,3.38,.99,5.7,7.48,5.14,6.5-.56,14.08-3.67,16.91-6.93,2.8-3.23-.58-5.54-7.56-5.11Z"/>
        <path class="cls-1" d="M991.95,211.14c8.8-.26,18.58-3.47,21.83-7.16,3.21-3.66-1.81-6.6-11.22-6.52-9.4,.08-19.12,3.3-21.73,7.13-2.62,3.86,2.32,6.8,11.12,6.55Z"/>
        <path class="cls-1" d="M856.41,379.51c-1.06,.75-2.69,2.69-3.57,4.28-.87,1.58-.8,2.25,.17,1.47,.96-.78,2.62-2.73,3.57-4.28,.98-1.56,.9-2.22-.17-1.47Z"/>
        <path class="cls-1" d="M880.12,339.29c-2.19,.78-4.86,3.11-5.99,5.18-1.11,2.06-.43,3.11,1.59,2.28,2-.82,4.71-3.16,6.01-5.18,1.29-2.02,.56-3.04-1.61-2.27Z"/>
        <path class="cls-1" d="M903.75,299.04c-3.63,.7-7.7,3.36-9.04,5.9-1.38,2.57,.27,4.03,3.64,3.26,3.37-.77,7.44-3.43,9.07-5.92,1.6-2.47-.06-3.93-3.67-3.24Z"/>
        <path class="cls-1" d="M927.31,258.78c-5.44,.53-11.14,3.44-12.7,6.46-1.6,3.05,1.24,5.02,6.31,4.4,5.09-.63,10.81-3.54,12.76-6.49,1.93-2.93-.92-4.91-6.37-4.38Z"/>
        <path class="cls-1" d="M950.81,218.49c-7.6,.25-15.23,3.35-17,6.86-1.79,3.53,2.48,6.11,9.62,5.72,7.13-.39,14.8-3.48,17.07-6.88,2.27-3.38-2.08-5.95-9.69-5.69Z"/>
        <path class="cls-1" d="M965.85,192.47c9.5-.05,19.41-3.26,22.03-7.11,2.62-3.84-3.51-7.06-13.65-7.17-10.15-.1-19.93,3.08-21.92,7.08-1.99,4.02,4.03,7.26,13.55,7.2Z"/>
        <path class="cls-1" d="M837.03,407.51c-.79,.83-1.96,2.88-2.62,4.54-.65,1.65-.62,2.3,.07,1.44,.69-.87,1.88-2.91,2.62-4.53,.75-1.63,.72-2.27-.06-1.44Z"/>
        <path class="cls-1" d="M854.85,365.71c-1.8,.88-3.93,3.35-4.76,5.51-.83,2.15-.17,3.16,1.46,2.24,1.63-.92,3.78-3.41,4.77-5.51,.99-2.1,.33-3.11-1.46-2.23Z"/>
        <path class="cls-1" d="M872.6,323.88c-3.14,.81-6.55,3.67-7.53,6.31-.99,2.65,.57,4.1,3.48,3.21,2.92-.9,6.29-3.73,7.55-6.32,1.24-2.58-.33-4.02-3.5-3.19Z"/>
        <path class="cls-1" d="M890.28,282.03c-4.89,.67-9.78,3.8-10.92,6.95-1.15,3.16,1.62,5.11,6.12,4.35,4.54-.78,9.46-3.91,10.96-6.97,1.49-3.04-1.27-5-6.16-4.32Z"/>
        <path class="cls-1" d="M907.89,240.17c-6.97,.43-13.66,3.77-14.93,7.41-1.3,3.68,2.91,6.21,9.39,5.65,6.49-.56,13.24-3.91,14.99-7.44,1.77-3.52-2.49-6.05-9.45-5.63Z"/>
        <path class="cls-1" d="M919.15,213.13c8.78-.25,17.62-3.73,19.66-7.75,2.03-3.98-3.99-7.17-13.38-7.1-9.4,.08-18.18,3.57-19.57,7.71-1.42,4.18,4.49,7.39,13.29,7.13Z"/>
        <path class="cls-1" d="M834.4,395.15c-1.07,.76-2.29,2.79-2.7,4.51-.4,1.71,.07,2.48,1.04,1.7,.96-.77,2.21-2.83,2.69-4.51,.5-1.69,.02-2.46-1.04-1.71Z"/>
        <path class="cls-1" d="M845.89,351.64c-2.17,.77-4.37,3.25-4.86,5.48-.52,2.25,.72,3.41,2.72,2.58,2-.82,4.2-3.3,4.88-5.49,.69-2.19-.58-3.34-2.74-2.57Z"/>
        <path class="cls-1" d="M857.31,308.11c-3.61,.69-7.07,3.53-7.65,6.27-.61,2.77,1.66,4.4,5.03,3.63,3.37-.77,6.84-3.61,7.68-6.3,.85-2.68-1.45-4.3-5.06-3.61Z"/>
        <path class="cls-1" d="M868.65,264.56c-5.43,.52-10.39,3.63-11.07,6.91-.67,3.28,2.89,5.47,7.97,4.84,5.07-.62,10.07-3.74,11.11-6.93,1.03-3.17-2.57-5.35-8.01-4.82Z"/>
        <path class="cls-1" d="M879.92,221c-7.61,.26-14.37,3.58-15.1,7.37-.76,3.83,4.42,6.61,11.53,6.23,7.12-.39,13.92-3.7,15.17-7.4,1.22-3.66-3.99-6.46-11.6-6.2Z"/>
        <path class="cls-1" d="M887.09,192.85c9.51-.06,18.44-3.52,19.86-7.69,1.42-4.15-5.67-7.65-15.81-7.75-10.11-.12-18.96,3.35-19.76,7.66-.81,4.35,6.21,7.84,15.72,7.78Z"/>
        <path class="cls-1" d="M820.99,424.75c-.77,.82-1.58,2.99-1.75,4.77-.16,1.77,.25,2.53,.94,1.67,.66-.85,1.48-3.02,1.75-4.77,.28-1.76-.15-2.51-.94-1.68Z"/>
        <path class="cls-1" d="M826.6,379.66c-1.81,.88-3.42,3.49-3.63,5.81-.21,2.32,.96,3.46,2.59,2.54,1.62-.92,3.27-3.55,3.64-5.82,.38-2.27-.79-3.42-2.59-2.54Z"/>
        <path class="cls-1" d="M832.13,334.55c-3.15,.82-5.93,3.84-6.14,6.68-.23,2.86,1.97,4.47,4.86,3.58,2.92-.9,5.68-3.91,6.16-6.7,.48-2.78-1.72-4.39-4.88-3.57Z"/>
        <path class="cls-1" d="M837.59,289.42c-4.89,.67-9.05,4.01-9.27,7.39-.24,3.41,3.25,5.56,7.77,4.79,4.55-.78,8.69-4.09,9.31-7.41,.59-3.29-2.91-5.44-7.8-4.77Z"/>
        <path class="cls-1" d="M842.98,244.27c-6.98,.43-12.8,4-13.03,7.92-.24,3.95,4.8,6.73,11.3,6.17,6.49-.56,12.37-4.13,13.09-7.96,.73-3.8-4.38-6.57-11.36-6.14Z"/>
        <path class="cls-1" d="M846.35,215.11c8.8-.26,16.64-3.99,17.5-8.33,.85-4.3-6.14-7.76-15.55-7.67-9.41,.08-17.2,3.83-17.4,8.29-.22,4.5,6.67,7.97,15.45,7.72Z"/>
        <path class="cls-1" d="M812.39,410.79c-1.08,.76-1.9,2.9-1.83,4.75,.07,1.85,.95,2.72,1.92,1.94,.97-.78,1.8-2.93,1.82-4.74,.02-1.82-.83-2.7-1.91-1.94Z"/>
        <path class="cls-1" d="M811.66,364c-2.18,.78-3.84,3.38-3.73,5.78,.12,2.4,1.86,3.7,3.86,2.89,1.99-.82,3.68-3.43,3.74-5.79,.05-2.35-1.7-3.65-3.86-2.88Z"/>
        <path class="cls-1" d="M810.86,317.18c-3.63,.7-6.44,3.7-6.26,6.65,.16,2.97,3.05,4.77,6.42,4,3.36-.76,6.2-3.77,6.29-6.67,.08-2.88-2.83-4.68-6.44-3.98Z"/>
        <path class="cls-1" d="M809.99,270.35c-5.45,.53-9.66,3.84-9.42,7.35,.23,3.54,4.55,5.9,9.62,5.29,5.08-.62,9.33-3.94,9.46-7.37,.14-3.42-4.22-5.79-9.65-5.26Z"/>
        <path class="cls-1" d="M809.05,223.5c-7.62,.26-13.5,3.81-13.2,7.88,.33,4.09,6.3,7.14,13.44,6.74,7.12-.38,13.09-3.94,13.26-7.91,.19-3.95-5.89-6.97-13.5-6.71Z"/>
        <path class="cls-1" d="M808.31,193.24c9.5-.05,17.47-3.78,17.69-8.28,.25-4.47-7.82-8.22-17.98-8.33-10.14-.11-17.99,3.61-17.59,8.24,.39,4.67,8.36,8.43,17.88,8.37Z"/>
        <path class="cls-1" d="M804.95,442c-.79,.83-1.17,3.09-.88,5.01,.3,1.9,1.11,2.77,1.81,1.91,.69-.86,1.07-3.12,.88-5-.21-1.88-1.01-2.75-1.81-1.91Z"/>
        <path class="cls-1" d="M798.34,393.62c-1.8,.88-2.9,3.63-2.5,6.11,.43,2.48,2.08,3.78,3.72,2.85,1.62-.92,2.77-3.69,2.51-6.12-.25-2.43-1.93-3.71-3.72-2.84Z"/>
        <path class="cls-1" d="M791.66,345.23c-3.16,.82-5.29,4-4.75,7.05,.54,3.06,3.34,4.85,6.25,3.96,2.91-.89,5.05-4.07,4.77-7.07-.29-2.98-3.09-4.77-6.27-3.94Z"/>
        <path class="cls-1" d="M784.9,296.81c-4.88,.67-8.31,4.21-7.63,7.83,.68,3.65,4.86,6.02,9.42,5.24,4.52-.77,7.97-4.3,7.66-7.86-.3-3.54-4.56-5.88-9.45-5.21Z"/>
        <path class="cls-1" d="M778.07,248.38c-7,.44-11.92,4.22-11.12,8.43,.81,4.24,6.72,7.24,13.21,6.68,6.49-.56,11.52-4.37,11.18-8.47-.32-4.08-6.28-7.08-13.26-6.65Z"/>
        <path class="cls-1" d="M773.55,217.1c8.8-.26,15.67-4.25,15.32-8.91-.34-4.62-8.29-8.34-17.7-8.26-9.42,.09-16.23,4.1-15.25,8.87,.95,4.84,8.82,8.56,17.63,8.3Z"/>
        <path class="cls-1" d="M790.38,426.43c-1.08,.76-1.5,3-.95,4.98,.56,1.97,1.81,2.95,2.79,2.17,.97-.78,1.41-3.04,.95-4.98-.45-1.95-1.69-2.94-2.79-2.18Z"/>
        <path class="cls-1" d="M777.44,376.35c-2.18,.78-3.33,3.52-2.6,6.09,.74,2.57,2.99,4.01,4.99,3.19,2-.82,3.17-3.57,2.61-6.1-.58-2.52-2.82-3.96-5-3.18Z"/>
        <path class="cls-1" d="M764.42,326.25c-3.64,.7-5.82,3.87-4.88,7.02,.93,3.17,4.45,5.14,7.82,4.38,3.37-.77,5.56-3.93,4.89-7.04-.67-3.09-4.2-5.06-7.83-4.36Z"/>
        <path class="cls-1" d="M751.33,276.14c-5.43,.52-8.91,4.04-7.77,7.79,1.14,3.78,6.18,6.36,11.27,5.73,5.09-.63,8.58-4.13,7.81-7.82-.78-3.65-5.86-6.23-11.3-5.71Z"/>
        <path class="cls-1" d="M738.17,226c-7.61,.26-12.64,4.04-11.29,8.39,1.37,4.38,8.23,7.64,15.35,7.26,7.13-.39,12.22-4.17,11.35-8.42-.88-4.22-7.8-7.48-15.4-7.22Z"/>
        <path class="cls-1" d="M729.55,193.62c9.53-.07,16.47-4.03,15.52-8.86-.96-4.78-10-8.8-20.14-8.91-10.15-.11-17.01,3.87-15.44,8.82,1.58,4.99,10.54,9.01,20.05,8.95Z"/>
        <path class="cls-1" d="M788.91,459.24c-.78,.83-.8,3.21,0,5.24,.78,2.03,1.98,3.01,2.68,2.14,.7-.87,.67-3.22,0-5.23-.68-2.01-1.89-2.98-2.68-2.15Z"/>
        <path class="cls-1" d="M770.08,407.58c-1.81,.88-2.4,3.77-1.37,6.42,1.04,2.65,3.24,4.07,4.85,3.15,1.61-.91,2.25-3.82,1.38-6.43-.87-2.6-3.06-4.02-4.86-3.14Z"/>
        <path class="cls-1" d="M751.18,355.9c-3.16,.82-4.66,4.17-3.37,7.43,1.3,3.27,4.73,5.22,7.65,4.33,2.92-.9,4.42-4.24,3.38-7.45-1.03-3.19-4.5-5.13-7.66-4.31Z"/>
        <path class="cls-1" d="M732.21,304.2c-4.88,.67-7.56,4.4-5.98,8.27,1.59,3.89,6.53,6.46,11.07,5.68,4.52-.77,7.23-4.5,6.01-8.3-1.21-3.77-6.21-6.32-11.09-5.65Z"/>
        <path class="cls-1" d="M713.16,252.49c-6.96,.42-11.08,4.46-9.22,8.94,1.85,4.53,8.63,7.75,15.11,7.2,6.49-.56,10.64-4.59,9.27-8.98-1.38-4.36-8.2-7.58-15.16-7.16Z"/>
        <path class="cls-1" d="M700.75,219.08c8.8-.26,14.69-4.52,13.16-9.5-1.53-4.94-10.43-8.93-19.86-8.84-9.41,.08-15.25,4.36-13.09,9.45,2.18,5.14,11,9.14,19.8,8.88Z"/>
        <path class="cls-1" d="M768.37,442.06c-1.07,.75-1.09,3.11-.08,5.22,1.04,2.09,2.69,3.18,3.66,2.4,.98-.78,1.02-3.15,.09-5.22-.92-2.08-2.57-3.17-3.66-2.41Z"/>
        <path class="cls-1" d="M743.21,388.7c-2.19,.78-2.82,3.65-1.47,6.39,1.36,2.74,4.12,4.31,6.12,3.49,2-.82,2.69-3.72,1.48-6.4-1.18-2.69-3.96-4.26-6.12-3.49Z"/>
        <path class="cls-1" d="M717.98,335.32c-3.64,.7-5.17,4.03-3.49,7.39,1.72,3.37,5.82,5.52,9.2,4.75,3.37-.77,4.94-4.1,3.5-7.41-1.43-3.3-5.59-5.43-9.22-4.73Z"/>
        <path class="cls-1" d="M692.67,281.92c-5.44,.53-8.16,4.23-6.13,8.23,2.04,4.02,7.83,6.81,12.92,6.18,5.08-.62,7.82-4.32,6.16-8.26-1.68-3.9-7.49-6.68-12.94-6.15Z"/>
        <path class="cls-1" d="M667.28,228.5c-7.6,.25-11.79,4.27-9.39,8.9,2.42,4.66,10.13,8.16,17.26,7.77,7.11-.38,11.37-4.41,9.44-8.94-1.92-4.5-9.69-7.99-17.3-7.73Z"/>
        <path class="cls-1" d="M650.78,194c9.5-.05,15.49-4.29,13.35-9.44-2.14-5.1-12.15-9.38-22.29-9.49-10.14-.11-16.04,4.13-13.28,9.4,2.78,5.31,12.72,9.59,22.22,9.53Z"/>
        <path class="cls-1" d="M772.87,476.48c-.79,.84-.4,3.31,.87,5.48,1.27,2.15,2.86,3.24,3.55,2.37,.68-.86,.28-3.33-.86-5.47-1.16-2.14-2.76-3.22-3.56-2.38Z"/>
        <path class="cls-1" d="M741.83,421.54c-1.8,.88-1.9,3.91-.24,6.72,1.66,2.82,4.36,4.37,5.98,3.45,1.62-.92,1.73-3.95,.24-6.73-1.5-2.76-4.18-4.33-5.98-3.45Z"/>
        <path class="cls-1" d="M710.71,366.58c-3.14,.81-4.05,4.34-1.98,7.8,2.06,3.48,6.13,5.6,9.03,4.71,2.93-.9,3.8-4.41,1.99-7.82-1.81-3.39-5.89-5.51-9.05-4.68Z"/>
        <path class="cls-1" d="M679.52,311.6c-4.9,.68-6.81,4.6-4.34,8.71,2.48,4.14,8.18,6.9,12.72,6.12,4.52-.77,6.49-4.7,4.36-8.74-2.13-4.01-7.85-6.77-12.74-6.09Z"/>
        <path class="cls-1" d="M648.25,256.59c-6.98,.43-10.22,4.69-7.32,9.46,2.92,4.8,10.54,8.27,17.03,7.71,6.48-.55,9.8-4.83,7.36-9.5-2.42-4.64-10.09-8.1-17.06-7.67Z"/>
        <path class="cls-1" d="M627.95,221.07c8.81-.26,13.72-4.78,10.98-10.08-2.71-5.26-12.6-9.5-22.02-9.42-9.42,.09-14.26,4.61-10.93,10.03,3.36,5.47,13.19,9.71,21.97,9.46Z"/>
        <path class="cls-1" d="M746.36,457.7c-1.07,.76-.73,3.22,.79,5.45,1.52,2.22,3.56,3.42,4.53,2.64,.97-.78,.63-3.25-.78-5.45-1.4-2.21-3.45-3.4-4.54-2.64Z"/>
        <path class="cls-1" d="M708.98,401.06c-2.17,.78-2.33,3.8-.35,6.7,1.99,2.9,5.26,4.61,7.25,3.8,2.02-.83,2.16-3.85,.35-6.7-1.8-2.86-5.09-4.56-7.25-3.79Z"/>
        <path class="cls-1" d="M671.53,344.39c-3.63,.7-4.55,4.2-2.11,7.77,2.48,3.58,7.22,5.89,10.6,5.12,3.37-.77,4.32-4.27,2.11-7.79-2.19-3.5-6.97-5.81-10.61-5.1Z"/>
        <path class="cls-1" d="M634,287.71c-5.43,.52-7.42,4.43-4.49,8.67,2.96,4.27,9.49,7.24,14.57,6.62,5.09-.63,7.11-4.54,4.51-8.7-2.58-4.14-9.15-7.12-14.59-6.59Z"/>
        <path class="cls-1" d="M596.41,231c-7.61,.26-10.92,4.49-7.49,9.41,3.47,4.95,12.05,8.67,19.17,8.28,7.14-.39,10.51-4.63,7.53-9.45-2.95-4.78-11.6-8.5-19.2-8.24Z"/>
        <path class="cls-1" d="M572.01,194.38c9.5-.06,14.53-4.56,11.18-10.03-3.32-5.42-14.3-9.97-24.45-10.07-10.13-.11-15.08,4.4-11.12,9.98,3.97,5.64,14.88,10.18,24.4,10.12Z"/>
        <path class="cls-1" d="M756.83,493.72c-.79,.83,.01,3.41,1.74,5.71,1.74,2.29,3.73,3.47,4.42,2.61,.68-.86-.11-3.44-1.74-5.7-1.63-2.27-3.65-3.45-4.43-2.62Z"/>
        <path class="cls-1" d="M713.57,435.5c-1.79,.87-1.37,4.04,.88,7.03,2.28,2.99,5.5,4.67,7.11,3.76,1.63-.92,1.22-4.09-.89-7.03-2.11-2.93-5.3-4.63-7.11-3.75Z"/>
        <path class="cls-1" d="M670.23,377.25c-3.15,.82-3.43,4.52-.59,8.17,2.82,3.69,7.53,5.97,10.43,5.08,2.91-.89,3.17-4.58,.6-8.2-2.57-3.6-7.28-5.88-10.43-5.06Z"/>
        <path class="cls-1" d="M626.82,318.99c-4.9,.68-6.06,4.79-2.7,9.15,3.4,4.38,9.86,7.33,14.37,6.57,4.52-.77,5.75-4.9,2.71-9.19-3.02-4.26-9.51-7.2-14.38-6.53Z"/>
        <path class="cls-1" d="M583.34,260.7c-6.98,.43-9.37,4.92-5.42,9.97,3.97,5.09,12.44,8.78,18.94,8.22,6.48-.56,8.94-5.05,5.45-10.01-3.46-4.92-12.01-8.6-18.96-8.18Z"/>
        <path class="cls-1" d="M555.15,223.06c8.76-.24,12.74-5.04,8.81-10.66-3.89-5.58-14.76-10.09-24.18-10-9.43,.09-13.29,4.87-8.77,10.61,4.54,5.8,15.34,10.3,24.13,10.05Z"/>
        <path class="cls-1" d="M724.36,473.34c-1.06,.75-.31,3.32,1.66,5.69,1.99,2.35,4.44,3.65,5.4,2.87,.99-.79,.24-3.36-1.66-5.68-1.9-2.33-4.33-3.63-5.41-2.88Z"/>
        <path class="cls-1" d="M674.76,413.41c-2.18,.78-1.82,3.94,.79,7,2.6,3.07,6.38,4.92,8.38,4.1,2-.82,1.64-3.98-.78-7.01-2.44-3.01-6.21-4.87-8.38-4.09Z"/>
        <path class="cls-1" d="M625.09,353.46c-3.64,.7-3.91,4.36-.72,8.14,3.23,3.79,8.61,6.27,11.99,5.5,3.38-.77,3.7-4.44,.72-8.16-2.98-3.7-8.35-6.18-11.99-5.48Z"/>
        <path class="cls-1" d="M575.34,293.49c-5.45,.53-6.68,4.63-2.84,9.11,3.87,4.51,11.13,7.69,16.22,7.06,5.09-.63,6.36-4.74,2.86-9.15-3.49-4.38-10.79-7.56-16.23-7.03Z"/>
        <path class="cls-1" d="M525.53,233.51c-7.63,.27-10.06,4.73-5.59,9.92,4.52,5.23,13.94,9.19,21.08,8.8,7.11-.38,9.64-4.86,5.62-9.96-4-5.07-13.5-9.01-21.11-8.76Z"/>
        <path class="cls-1" d="M493.24,194.76c9.52-.06,13.57-4.82,9.02-10.61-4.51-5.74-16.48-10.54-26.62-10.65-10.14-.1-14.09,4.65-8.96,10.56,5.18,5.95,17.05,10.76,26.56,10.7Z"/>
        <path class="cls-1" d="M740.79,510.97c-.79,.84,.41,3.51,2.61,5.95,2.21,2.42,4.61,3.7,5.3,2.84,.69-.86-.49-3.55-2.6-5.94-2.12-2.4-4.54-3.67-5.3-2.85Z"/>
        <path class="cls-1" d="M685.31,449.46c-1.8,.88-.88,4.19,2.01,7.33,2.91,3.15,6.61,4.99,8.24,4.06,1.63-.92,.72-4.24-2.01-7.34-2.72-3.1-6.45-4.93-8.24-4.05Z"/>
        <path class="cls-1" d="M629.76,387.93c-3.18,.83-2.78,4.67,.8,8.55,3.61,3.88,8.91,6.35,11.82,5.45,2.9-.89,2.57-4.76-.79-8.57-3.32-3.81-8.66-6.25-11.82-5.43Z"/>
        <path class="cls-1" d="M574.13,326.38c-4.89,.67-5.31,4.99-1.05,9.6,4.31,4.63,11.48,7.79,16.02,7.01,4.53-.77,4.99-5.1,1.06-9.63-3.93-4.5-11.15-7.65-16.02-6.98Z"/>
        <path class="cls-1" d="M518.43,264.81c-7,.44-8.51,5.16-3.52,10.48,5.03,5.37,14.35,9.3,20.85,8.74,6.47-.55,8.09-5.29,3.54-10.52-4.5-5.2-13.9-9.12-20.87-8.69Z"/>
        <path class="cls-1" d="M482.35,225.04c8.79-.25,11.78-5.3,6.64-11.25-5.08-5.89-16.92-10.66-26.34-10.58-9.4,.08-12.32,5.14-6.61,11.19,5.74,6.12,17.51,10.89,26.3,10.63Z"/>
        <path class="cls-1" d="M702.35,488.98c-1.08,.76,.05,3.44,2.54,5.92,2.46,2.48,5.3,3.89,6.28,3.11,.97-.78-.16-3.46-2.53-5.92-2.38-2.46-5.21-3.87-6.28-3.11Z"/>
        <path class="cls-1" d="M640.54,425.76c-2.18,.78-1.33,4.08,1.91,7.3,3.21,3.24,7.51,5.22,9.52,4.4,2-.82,1.12-4.11-1.92-7.31-3.06-3.18-7.33-5.17-9.51-4.4Z"/>
        <path class="cls-1" d="M578.64,362.53c-3.64,.7-3.32,4.54,.67,8.51,3.99,4,10.01,6.64,13.38,5.87,3.39-.78,3.05-4.6-.67-8.54-3.73-3.9-9.74-6.56-13.38-5.85Z"/>
        <path class="cls-1" d="M516.68,299.28c-5.44,.53-5.94,4.83-1.2,9.56,4.77,4.76,12.79,8.13,17.87,7.51,5.08-.62,5.62-4.93,1.21-9.59-4.38-4.63-12.44-8-17.88-7.47Z"/>
        <path class="cls-1" d="M454.65,236.01c-7.62,.26-9.2,4.96-3.69,10.43,5.59,5.51,15.85,9.7,22.99,9.31,7.13-.39,8.79-5.09,3.7-10.48-5.07-5.33-15.38-9.53-23-9.27Z"/>
        <path class="cls-1" d="M414.47,195.14c9.51-.06,12.58-5.08,6.84-11.19-5.69-6.06-18.64-11.12-28.77-11.23-10.14-.11-13.12,4.92-6.8,11.14,6.39,6.27,19.2,11.35,28.73,11.28Z"/>
        <path class="cls-1" d="M724.76,528.21c-.8,.84,.8,3.62,3.49,6.18,2.68,2.55,5.48,3.94,6.17,3.08,.69-.86-.87-3.66-3.48-6.17-2.58-2.53-5.39-3.92-6.18-3.08Z"/>
        <path class="cls-1" d="M657.05,463.42c-1.81,.88-.36,4.31,3.15,7.63,3.53,3.31,7.74,5.29,9.37,4.37,1.64-.93,.19-4.36-3.15-7.64-3.36-3.26-7.58-5.23-9.37-4.36Z"/>
        <path class="cls-1" d="M589.28,398.6c-3.16,.82-2.18,4.85,2.18,8.92,4.34,4.1,10.31,6.71,13.21,5.83,2.92-.9,1.91-4.91-2.18-8.94-4.11-4-10.04-6.63-13.21-5.8Z"/>
        <path class="cls-1" d="M521.44,333.77c-4.9,.68-4.58,5.2,.6,10.04,5.22,4.87,13.15,8.22,17.67,7.45,4.52-.77,4.26-5.3-.59-10.07-4.83-4.74-12.78-8.1-17.67-7.42Z"/>
        <path class="cls-1" d="M453.52,268.92c-6.96,.42-7.65,5.38-1.62,10.99,6.07,5.65,16.26,9.81,22.76,9.25,6.48-.56,7.2-5.5,1.63-11.04-5.55-5.48-15.79-9.63-22.77-9.2Z"/>
        <path class="cls-1" d="M409.55,227.03c8.79-.25,10.8-5.56,4.47-11.83-6.27-6.21-19.09-11.24-28.49-11.16-9.41,.09-11.34,5.39-4.45,11.77,6.95,6.43,19.67,11.47,28.47,11.21Z"/>
        <path class="cls-1" d="M680.34,504.62c-1.08,.76,.46,3.54,3.41,6.16,2.94,2.61,6.16,4.13,7.15,3.34,.96-.78-.56-3.57-3.4-6.15-2.86-2.59-6.07-4.1-7.15-3.35Z"/>
        <path class="cls-1" d="M606.3,438.12c-2.15,.76-.8,4.21,3.05,7.6,3.85,3.4,8.66,5.52,10.64,4.71,2-.82,.63-4.26-3.05-7.61-3.67-3.35-8.47-5.48-10.64-4.7Z"/>
        <path class="cls-1" d="M532.2,371.6c-3.62,.7-2.68,4.7,2.06,8.89,4.77,4.2,11.4,7.01,14.77,6.25,3.37-.77,2.44-4.78-2.06-8.91-4.47-4.12-11.17-6.91-14.77-6.22Z"/>
        <path class="cls-1" d="M458.02,305.07c-5.45,.53-5.21,5.04,.45,10,5.69,4.99,14.43,8.58,19.52,7.95,5.07-.62,4.88-5.13-.44-10.03-5.3-4.87-14.07-8.45-19.52-7.92Z"/>
        <path class="cls-1" d="M383.77,238.51c-7.61,.26-8.36,5.19-1.79,10.95,6.62,5.8,17.78,10.21,24.9,9.82,7.11-.38,7.93-5.32,1.79-10.99-6.11-5.62-17.29-10.04-24.9-9.78Z"/>
        <path class="cls-1" d="M335.7,195.53c9.51-.06,11.61-5.34,4.67-11.78-6.89-6.37-20.78-11.71-30.93-11.81-10.13-.11-12.15,5.18-4.65,11.72,7.56,6.6,21.38,11.93,30.9,11.86Z"/>
        <path class="cls-1" d="M708.72,545.45c-.79,.83,1.19,3.73,4.36,6.41,3.17,2.67,6.35,4.17,7.04,3.31,.71-.87-1.28-3.76-4.35-6.41-3.07-2.65-6.27-4.15-7.05-3.32Z"/>
        <path class="cls-1" d="M628.8,477.37c-1.8,.88,.15,4.45,4.27,7.94,4.16,3.48,8.86,5.6,10.51,4.67,1.62-.92-.31-4.5-4.28-7.95-3.94-3.44-8.71-5.54-10.5-4.66Z"/>
        <path class="cls-1" d="M548.81,409.28c-3.17,.83-1.55,5.02,3.57,9.29,5.12,4.3,11.69,7.09,14.6,6.2,2.9-.89,1.29-5.08-3.57-9.32-4.85-4.21-11.42-7-14.59-6.18Z"/>
        <path class="cls-1" d="M468.75,341.16c-4.91,.68-3.84,5.39,2.24,10.48,6.13,5.11,14.79,8.67,19.32,7.9,4.51-.76,3.52-5.5-2.24-10.52-5.71-4.99-14.45-8.52-19.31-7.86Z"/>
        <path class="cls-1" d="M388.61,273.02c-6.97,.43-6.78,5.61,.29,11.5,7.11,5.94,18.2,10.31,24.67,9.76,6.49-.56,6.37-5.75-.28-11.55-6.59-5.76-17.71-10.14-24.67-9.71Z"/>
        <path class="cls-1" d="M336.76,229.02c8.78-.25,9.82-5.83,2.31-12.41-7.46-6.53-21.26-11.82-30.65-11.74-9.41,.08-10.38,5.66-2.29,12.35,8.14,6.76,21.84,12.05,30.64,11.8Z"/>
        <path class="cls-1" d="M658.33,520.25c-1.09,.76,.87,3.64,4.28,6.39,3.4,2.75,7.06,4.35,8.02,3.57,.96-.78-.97-3.67-4.28-6.38-3.34-2.71-6.94-4.34-8.02-3.58Z"/>
        <path class="cls-1" d="M572.08,450.47c-2.17,.77-.28,4.34,4.17,7.91,4.46,3.57,9.77,5.83,11.78,5.01,2-.82,.12-4.4-4.18-7.92-4.27-3.53-9.6-5.78-11.77-5.01Z"/>
        <path class="cls-1" d="M485.75,380.67c-3.61,.69-2.07,4.88,3.44,9.26,5.53,4.41,12.8,7.38,16.16,6.62,3.37-.77,1.82-4.95-3.45-9.28-5.24-4.32-12.52-7.3-16.15-6.6Z"/>
        <path class="cls-1" d="M399.36,310.85c-5.45,.53-4.46,5.24,2.09,10.44,6.59,5.24,16.1,9.01,21.17,8.39,5.07-.62,4.14-5.33-2.09-10.48-6.19-5.11-15.75-8.87-21.16-8.36Z"/>
        <path class="cls-1" d="M312.89,241.01c-7.59,.25-7.5,5.42,.12,11.46,7.67,6.08,19.67,10.73,26.81,10.34,7.13-.39,7.09-5.56-.11-11.5-7.15-5.9-19.19-10.55-26.81-10.29Z"/>
        <path class="cls-1" d="M256.93,195.91c9.51-.06,10.66-5.62,2.51-12.36-8.07-6.7-22.95-12.28-33.09-12.39-10.13-.11-11.17,5.44-2.48,12.3,8.77,6.92,23.56,12.51,33.07,12.45Z"/>
        <path class="cls-1" d="M692.67,562.7c-.78,.83,1.57,3.84,5.23,6.65,3.65,2.8,7.23,4.4,7.91,3.55,.7-.87-1.67-3.87-5.22-6.64-3.54-2.79-7.14-4.39-7.93-3.55Z"/>
        <path class="cls-1" d="M600.54,491.33c-1.8,.88,.65,4.6,5.4,8.24,4.76,3.66,10.01,5.9,11.64,4.98,1.62-.92-.83-4.64-5.41-8.25-4.59-3.6-9.84-5.84-11.63-4.97Z"/>
        <path class="cls-1" d="M508.33,419.95c-3.17,.83-.9,5.18,4.96,9.67,5.9,4.5,13.09,7.46,15.99,6.57,2.91-.89,.67-5.25-4.96-9.69-5.6-4.42-12.81-7.38-15.98-6.55Z"/>
        <path class="cls-1" d="M416.05,348.55c-4.89,.67-3.11,5.6,3.89,10.92,7.02,5.36,16.43,9.12,20.97,8.34,4.53-.77,2.78-5.7-3.89-10.96-6.61-5.24-16.06-8.98-20.96-8.3Z"/>
        <path class="cls-1" d="M323.7,277.13c-6.97,.43-5.92,5.84,2.19,12.01,8.17,6.22,20.07,10.84,26.58,10.28,6.49-.56,5.51-5.98-2.19-12.06-7.63-6.05-19.61-10.65-26.57-10.22Z"/>
        <path class="cls-1" d="M263.95,231c8.8-.26,8.86-6.09,.14-13-8.65-6.84-23.39-12.41-32.81-12.32-9.43,.09-9.38,5.91-.13,12.93,9.32,7.08,24.03,12.63,32.81,12.38Z"/>
        <path class="cls-1" d="M636.33,535.89c-1.08,.76,1.25,3.75,5.15,6.63,3.89,2.87,7.94,4.58,8.9,3.81,.98-.78-1.34-3.78-5.15-6.62-3.8-2.85-7.82-4.58-8.89-3.82Z"/>
        <path class="cls-1" d="M537.85,462.83c-2.16,.77,.21,4.49,5.3,8.21,5.07,3.74,10.91,6.14,12.91,5.32,2-.82-.4-4.53-5.31-8.22-4.91-3.69-10.73-6.08-12.9-5.31Z"/>
        <path class="cls-1" d="M439.31,389.74c-3.64,.71-1.45,5.05,4.83,9.63,6.29,4.61,14.18,7.76,17.55,6.99,3.38-.77,1.18-5.11-4.84-9.66-6.03-4.51-13.9-7.67-17.54-6.97Z"/>
        <path class="cls-1" d="M340.7,316.64c-5.46,.53-3.72,5.43,3.73,10.89,7.5,5.49,17.74,9.46,22.82,8.84,5.07-.62,3.4-5.54-3.75-10.92-7.09-5.36-17.37-9.32-22.8-8.8Z"/>
        <path class="cls-1" d="M242.01,243.52c-7.61,.25-6.63,5.65,2.02,11.97,8.73,6.36,21.6,11.24,28.72,10.85,7.13-.39,6.18-5.77-2.03-12.02-8.19-6.18-21.1-11.06-28.71-10.8Z"/>
        <path class="cls-1" d="M178.16,196.29c9.52-.06,9.66-5.87,.33-12.94-9.25-7.02-25.11-12.86-35.25-12.97-10.14-.11-10.19,5.7-.32,12.88,9.94,7.25,25.72,13.09,35.23,13.03Z"/>
        <path class="cls-1" d="M676.64,579.94c-.78,.83,1.98,3.94,6.11,6.88,4.12,2.93,8.1,4.64,8.78,3.78,.69-.86-2.08-3.97-6.09-6.88-4.02-2.92-8-4.62-8.8-3.79Z"/>
        <path class="cls-1" d="M572.28,505.29c-1.8,.88,1.15,4.74,6.54,8.54,5.39,3.82,11.14,6.2,12.77,5.28,1.63-.93-1.33-4.78-6.54-8.55-5.21-3.76-10.96-6.15-12.76-5.27Z"/>
        <path class="cls-1" d="M467.86,430.62c-3.17,.82-.28,5.35,6.35,10.04,6.66,4.71,14.47,7.84,17.38,6.95,2.9-.89,.04-5.42-6.35-10.06-6.38-4.62-14.21-7.75-17.37-6.92Z"/>
        <path class="cls-1" d="M363.36,355.94c-4.88,.67-2.38,5.8,5.53,11.37,7.94,5.61,18.11,9.55,22.62,8.78,4.54-.77,2.02-5.89-5.54-11.4-7.52-5.47-17.7-9.42-22.6-8.75Z"/>
        <path class="cls-1" d="M258.79,281.23c-6.98,.43-5.07,6.07,4.08,12.52,9.26,6.49,21.99,11.35,28.49,10.79,6.49-.56,4.65-6.21-4.11-12.58-8.68-6.32-21.49-11.17-28.47-10.74Z"/>
        <path class="cls-1" d="M191.16,232.99c8.79-.26,7.88-6.35-2.03-13.58-9.83-7.17-25.58-12.98-34.97-12.9-9.42,.09-8.42,6.18,2.02,13.52,10.53,7.4,26.19,13.22,34.98,12.96Z"/>
        <path class="cls-1" d="M614.32,551.53c-1.08,.76,1.64,3.86,6.02,6.86,4.38,3,8.81,4.82,9.77,4.04,.98-.78-1.75-3.88-6.02-6.85-4.3-2.97-8.7-4.8-9.77-4.05Z"/>
        <path class="cls-1" d="M503.63,475.18c-2.18,.77,.71,4.63,6.43,8.52,5.7,3.91,12.03,6.44,14.04,5.62,2-.82-.91-4.66-6.44-8.53-5.53-3.85-11.87-6.38-14.04-5.61Z"/>
        <path class="cls-1" d="M392.87,398.81c-3.64,.7-.81,5.21,6.22,10.01,7.05,4.82,15.58,8.13,18.94,7.37,3.38-.77,.56-5.28-6.24-10.03-6.78-4.72-15.3-8.04-18.92-7.34Z"/>
        <path class="cls-1" d="M282.03,322.42c-5.44,.53-2.98,5.63,5.38,11.33,8.41,5.73,19.4,9.9,24.47,9.28,5.08-.63,2.65-5.73-5.4-11.36-8.01-5.59-19-9.77-24.45-9.24Z"/>
        <path class="cls-1" d="M171.13,246.02c-7.62,.26-5.79,5.88,3.92,12.48,9.77,6.65,23.5,11.75,30.63,11.36,7.12-.38,5.37-6.02-3.93-12.53-9.21-6.47-23.01-11.57-30.62-11.31Z"/>
        <path class="cls-1" d="M99.4,196.67c9.51-.06,8.67-6.12-1.84-13.52-10.46-7.33-27.26-13.45-37.4-13.56-10.15-.1-9.21,5.96,1.83,13.46,11.16,7.56,27.89,13.68,37.41,13.61Z"/>
        <path class="cls-1" d="M1032.44,467.42c1.07-.75,3.87-2.37,6.19-3.58,2.3-1.2,3.42-1.55,2.44-.77-.98,.79-3.77,2.4-6.18,3.57-2.42,1.18-3.53,1.53-2.45,.77Z"/>
        <path class="cls-1" d="M972.08,497.79c2.16-.77,6.38-2.69,9.38-4.26,2.98-1.57,3.8-2.19,1.8-1.37-2.01,.82-6.24,2.75-9.4,4.27-3.15,1.52-3.96,2.13-1.79,1.36Z"/>
        <path class="cls-1" d="M911.79,528.19c3.63-.7,9.57-2.86,13.2-4.78,3.63-1.93,3.91-2.91,.53-2.13-3.36,.76-9.32,2.92-13.23,4.8-3.89,1.86-4.12,2.82-.5,2.12Z"/>
        <path class="cls-1" d="M851.57,558.6c5.45-.53,13.36-2.84,17.64-5.14,4.29-2.3,3.72-3.7-1.36-3.07-5.08,.62-13.03,2.94-17.71,5.15-4.65,2.21-4.01,3.58,1.43,3.05Z"/>
        <path class="cls-1" d="M791.43,589.03c7.61-.26,17.8-2.66,22.71-5.32,4.94-2.68,3.24-4.57-3.89-4.18-7.12,.39-17.37,2.79-22.81,5.35-5.4,2.54-3.62,4.41,3.99,4.15Z"/>
        <path class="cls-1" d="M752.72,608.69c-9.51,.06-22.32,2.47-28.53,5.36-6.18,2.88-2.97,5.32,7.17,5.43,10.14,.11,22.84-2.29,28.4-5.34,5.59-3.07,2.47-5.51-7.04-5.45Z"/>
        <path class="cls-1" d="M1069.73,444.23c.79-.83,3.16-2.57,5.25-3.84,2.08-1.26,3.24-1.6,2.54-.73-.67,.86-3.06,2.6-5.23,3.83-2.19,1.24-3.33,1.57-2.56,.74Z"/>
        <path class="cls-1" d="M1015.25,476.19c1.8-.88,5.46-2.94,8.16-4.6,2.69-1.65,3.55-2.24,1.93-1.33-1.62,.92-5.32,3-8.17,4.6-2.86,1.6-3.72,2.2-1.92,1.32Z"/>
        <path class="cls-1" d="M960.84,508.16c3.16-.82,8.44-3.17,11.7-5.19,3.28-2.04,3.62-2.99,.69-2.09-2.9,.89-8.17,3.23-11.72,5.2-3.5,1.95-3.84,2.9-.67,2.08Z"/>
        <path class="cls-1" d="M906.51,540.16c4.89-.67,12-3.2,15.85-5.62,3.86-2.43,3.36-3.79-1.17-3.02-4.53,.77-11.69,3.31-15.91,5.64-4.2,2.31-3.66,3.67,1.23,3Z"/>
        <path class="cls-1" d="M852.26,572.17c6.97-.43,16.23-3.08,20.64-5.88,4.44-2.82,2.82-4.67-3.66-4.12-6.47,.55-15.8,3.21-20.73,5.9-4.89,2.67-3.22,4.52,3.75,4.09Z"/>
        <path class="cls-1" d="M817.33,592.85c-8.79,.25-20.53,2.95-26.17,6-5.57,3.02-2.52,5.44,6.9,5.35,9.41-.08,21.08-2.78,26.04-5.97,5.01-3.22,2.03-5.64-6.78-5.38Z"/>
        <path class="cls-1" d="M1054.45,451.78c1.07-.76,3.48-2.48,5.31-3.81,1.84-1.33,2.54-1.78,1.57-1-.97,.78-3.37,2.5-5.31,3.81-1.93,1.3-2.66,1.76-1.58,1Z"/>
        <path class="cls-1" d="M1006.31,485.44c2.18-.78,5.88-2.83,8.25-4.57,2.38-1.74,2.67-2.49,.67-1.67-2.02,.83-5.72,2.88-8.26,4.57-2.51,1.68-2.83,2.44-.66,1.66Z"/>
        <path class="cls-1" d="M958.24,519.12c3.62-.7,8.95-3.03,11.81-5.16,2.87-2.14,2.51-3.27-.86-2.51-3.37,.77-8.71,3.1-11.85,5.17-3.12,2.06-2.73,3.19,.89,2.49Z"/>
        <path class="cls-1" d="M910.24,552.81c5.45-.53,12.63-3.05,16-5.58,3.4-2.56,2.05-4.13-3.02-3.51-5.09,.63-12.29,3.14-16.06,5.6-3.73,2.44-2.37,4.02,3.08,3.49Z"/>
        <path class="cls-1" d="M862.31,586.53c7.62-.26,16.92-2.88,20.81-5.83,3.9-2.97,1.31-5.08-5.8-4.69-7.13,.39-16.51,3.02-20.9,5.86-4.36,2.82-1.7,4.91,5.89,4.66Z"/>
        <path class="cls-1" d="M831.48,608.31c-9.51,.06-21.34,2.73-26.36,5.95-4.98,3.19-.79,5.9,9.33,6.01,10.15,.11,21.85-2.55,26.24-5.92,4.39-3.38,.31-6.09-9.21-6.03Z"/>
        <path class="cls-1" d="M1085.77,426.99c.78-.83,2.77-2.68,4.37-4.07,1.61-1.39,2.36-1.83,1.68-.97-.67,.85-2.66,2.7-4.36,4.06-1.72,1.37-2.48,1.82-1.68,.97Z"/>
        <path class="cls-1" d="M1043.51,462.23c1.8-.88,4.98-3.1,7.03-4.9,2.04-1.81,2.43-2.56,.8-1.63-1.62,.92-4.79,3.13-7.03,4.91-2.24,1.77-2.58,2.5-.79,1.62Z"/>
        <path class="cls-1" d="M1001.32,497.49c3.18-.83,7.79-3.33,10.31-5.56,2.52-2.25,2.21-3.35-.69-2.46-2.9,.89-7.57,3.41-10.33,5.58-2.77,2.17-2.44,3.27,.72,2.45Z"/>
        <path class="cls-1" d="M959.21,532.77c4.89-.67,11.27-3.41,14.21-6.06,2.95-2.67,1.72-4.23-2.81-3.46-4.53,.77-10.94,3.5-14.26,6.08-3.28,2.55-2.01,4.11,2.87,3.44Z"/>
        <path class="cls-1" d="M917.16,568.07c6.97-.43,15.38-3.31,18.73-6.39,3.4-3.11,.91-5.18-5.57-4.63-6.48,.56-14.93,3.44-18.82,6.42-3.84,2.95-1.31,5.03,5.65,4.6Z"/>
        <path class="cls-1" d="M890.13,590.86c-8.79,.26-19.57,3.21-24,6.58-4.39,3.34-.35,6.02,9.06,5.93,9.41-.08,20.11-3.05,23.88-6.55,3.82-3.54-.16-6.22-8.95-5.97Z"/>
        <path class="cls-1" d="M1076.46,436.14c1.07-.76,3.09-2.59,4.44-4.05,1.37-1.46,1.67-2.01,.7-1.23-.98,.78-2.98,2.61-4.44,4.04-1.45,1.43-1.77,1.99-.7,1.24Z"/>
        <path class="cls-1" d="M1040.53,473.09c2.18-.78,5.37-2.97,7.12-4.87,1.73-1.89,1.55-2.8-.46-1.97-2.01,.83-5.22,3.02-7.13,4.88-1.93,1.86-1.69,2.74,.47,1.97Z"/>
        <path class="cls-1" d="M1004.68,510.05c3.63-.7,8.31-3.19,10.43-5.53,2.12-2.35,1.11-3.65-2.25-2.88-3.38,.77-8.08,3.26-10.46,5.54-2.37,2.27-1.35,3.57,2.28,2.87Z"/>
        <path class="cls-1" d="M968.9,547.03c5.44-.53,11.87-3.24,14.35-6.02,2.49-2.8,.42-4.59-4.67-3.96-5.08,.62-11.57,3.35-14.41,6.04-2.85,2.69-.71,4.46,4.72,3.94Z"/>
        <path class="cls-1" d="M933.19,584.03c7.63-.26,16.09-3.12,18.9-6.34,2.85-3.25-.57-5.6-7.71-5.2-7.13,.39-15.66,3.25-18.99,6.37-3.3,3.1,.19,5.43,7.79,5.18Z"/>
        <path class="cls-1" d="M910.26,607.93c-9.54,.07-20.36,2.98-24.2,6.53-3.78,3.51,1.35,6.48,11.5,6.59,10.14,.11,20.9-2.82,24.08-6.5,3.19-3.7-1.88-6.67-11.38-6.62Z"/>
        <path class="cls-1" d="M1101.81,409.75c.79-.84,2.35-2.77,3.5-4.3,1.12-1.52,1.49-2.06,.81-1.2-.69,.86-2.25,2.8-3.49,4.3-1.23,1.49-1.59,2.04-.81,1.21Z"/>
        <path class="cls-1" d="M1071.77,448.27c1.79-.87,4.45-3.22,5.89-5.2,1.46-1.99,1.32-2.86-.33-1.94-1.63,.92-4.29,3.27-5.9,5.21-1.6,1.93-1.46,2.8,.34,1.93Z"/>
        <path class="cls-1" d="M1041.8,486.81c3.14-.81,7.18-3.5,8.92-5.94,1.77-2.46,.83-3.73-2.08-2.84-2.89,.88-6.92,3.57-8.94,5.95-2.01,2.37-1.05,3.64,2.11,2.82Z"/>
        <path class="cls-1" d="M1011.9,525.38c4.89-.68,10.53-3.61,12.56-6.5,2.05-2.92,.06-4.68-4.47-3.91-4.54,.78-10.18,3.7-12.61,6.53-2.4,2.81-.38,4.56,4.52,3.88Z"/>
        <path class="cls-1" d="M982.07,563.96c6.98-.43,14.52-3.54,16.84-6.9,2.32-3.38-.99-5.7-7.48-5.14-6.5,.56-14.08,3.67-16.91,6.93-2.8,3.23,.58,5.54,7.56,5.11Z"/>
        <path class="cls-1" d="M962.93,588.88c-8.8,.26-18.58,3.47-21.83,7.16-3.21,3.66,1.81,6.6,11.22,6.52,9.4-.08,19.12-3.3,21.73-7.13,2.62-3.86-2.32-6.8-11.12-6.55Z"/>
        <path class="cls-1" d="M1098.47,420.51c1.06-.75,2.69-2.69,3.57-4.28,.87-1.58,.8-2.25-.17-1.47-.96,.78-2.62,2.73-3.57,4.28-.98,1.56-.9,2.22,.17,1.47Z"/>
        <path class="cls-1" d="M1074.76,460.73c2.19-.78,4.86-3.11,5.99-5.18,1.11-2.06,.43-3.11-1.59-2.28-2,.82-4.71,3.16-6.01,5.18-1.29,2.02-.56,3.04,1.61,2.27Z"/>
        <path class="cls-1" d="M1051.13,500.98c3.63-.7,7.7-3.36,9.04-5.9,1.38-2.57-.27-4.03-3.64-3.26-3.37,.77-7.44,3.43-9.07,5.92-1.6,2.47,.06,3.93,3.67,3.24Z"/>
        <path class="cls-1" d="M1027.56,541.24c5.44-.53,11.14-3.44,12.7-6.46,1.6-3.05-1.24-5.02-6.31-4.4-5.09,.63-10.81,3.54-12.76,6.49-1.93,2.93,.92,4.91,6.37,4.38Z"/>
        <path class="cls-1" d="M1004.07,581.53c7.6-.25,15.23-3.35,17-6.86,1.79-3.53-2.48-6.11-9.62-5.72-7.13,.39-14.8,3.48-17.07,6.88-2.27,3.38,2.08,5.95,9.69,5.69Z"/>
        <path class="cls-1" d="M989.02,607.55c-9.5,.05-19.41,3.26-22.03,7.11-2.62,3.84,3.51,7.06,13.65,7.17,10.15,.1,19.93-3.08,21.92-7.08,1.99-4.02-4.03-7.26-13.55-7.2Z"/>
        <path class="cls-1" d="M1117.85,392.51c.79-.83,1.96-2.88,2.62-4.54,.65-1.65,.62-2.3-.07-1.44-.69,.87-1.88,2.91-2.62,4.53-.75,1.63-.72,2.27,.06,1.44Z"/>
        <path class="cls-1" d="M1100.02,434.31c1.8-.88,3.93-3.35,4.76-5.51,.83-2.15,.17-3.16-1.46-2.24-1.63,.92-3.78,3.41-4.77,5.51-.99,2.1-.33,3.11,1.46,2.23Z"/>
        <path class="cls-1" d="M1082.27,476.14c3.14-.81,6.55-3.67,7.53-6.31,.99-2.65-.57-4.1-3.48-3.21-2.92,.9-6.29,3.73-7.55,6.32-1.24,2.58,.33,4.02,3.5,3.19Z"/>
        <path class="cls-1" d="M1064.59,517.99c4.89-.67,9.78-3.8,10.92-6.95,1.15-3.16-1.62-5.11-6.12-4.35-4.54,.78-9.46,3.91-10.96,6.97-1.49,3.04,1.27,5,6.16,4.32Z"/>
        <path class="cls-1" d="M1046.98,559.85c6.97-.43,13.66-3.77,14.93-7.41,1.3-3.68-2.91-6.21-9.39-5.65-6.49,.56-13.24,3.91-14.99,7.44-1.77,3.52,2.49,6.05,9.45,5.63Z"/>
        <path class="cls-1" d="M1035.73,586.89c-8.78,.25-17.62,3.73-19.66,7.75-2.03,3.98,3.99,7.17,13.38,7.1,9.4-.08,18.18-3.57,19.57-7.71,1.42-4.18-4.49-7.39-13.29-7.13Z"/>
        <path class="cls-1" d="M1120.48,404.87c1.07-.76,2.29-2.79,2.7-4.51,.4-1.71-.07-2.48-1.04-1.7-.96,.77-2.21,2.83-2.69,4.51-.5,1.69-.02,2.46,1.04,1.71Z"/>
        <path class="cls-1" d="M1108.99,448.38c2.17-.77,4.37-3.25,4.86-5.48,.52-2.25-.72-3.41-2.72-2.58-2,.82-4.2,3.3-4.88,5.49-.69,2.19,.58,3.34,2.74,2.57Z"/>
        <path class="cls-1" d="M1097.57,491.91c3.61-.69,7.07-3.53,7.65-6.27,.61-2.77-1.66-4.4-5.03-3.63-3.37,.77-6.84,3.61-7.68,6.3-.85,2.68,1.45,4.3,5.06,3.61Z"/>
        <path class="cls-1" d="M1086.22,535.46c5.43-.52,10.39-3.63,11.07-6.91,.67-3.28-2.89-5.47-7.97-4.84-5.07,.62-10.07,3.74-11.11,6.93-1.03,3.17,2.57,5.35,8.01,4.82Z"/>
        <path class="cls-1" d="M1074.95,579.02c7.61-.26,14.37-3.58,15.1-7.37,.76-3.83-4.42-6.61-11.53-6.23-7.12,.39-13.92,3.7-15.17,7.4-1.22,3.66,3.99,6.46,11.6,6.2Z"/>
        <path class="cls-1" d="M1067.79,607.17c-9.51,.06-18.44,3.52-19.86,7.69-1.42,4.15,5.67,7.65,15.81,7.75,10.11,.12,18.96-3.35,19.76-7.66,.81-4.35-6.21-7.84-15.72-7.78Z"/>
        <path class="cls-1" d="M1133.88,375.26c.77-.82,1.58-2.99,1.75-4.77,.16-1.77-.25-2.53-.94-1.67-.66,.85-1.48,3.02-1.75,4.77-.28,1.76,.15,2.51,.94,1.68Z"/>
        <path class="cls-1" d="M1128.28,420.36c1.81-.88,3.42-3.49,3.63-5.81,.21-2.32-.96-3.46-2.59-2.54-1.62,.92-3.27,3.55-3.64,5.82-.38,2.27,.79,3.42,2.59,2.54Z"/>
        <path class="cls-1" d="M1122.75,465.47c3.15-.82,5.93-3.84,6.14-6.68,.23-2.86-1.97-4.47-4.86-3.58-2.92,.9-5.68,3.91-6.16,6.7-.48,2.78,1.72,4.39,4.88,3.57Z"/>
        <path class="cls-1" d="M1117.28,510.6c4.89-.67,9.05-4.01,9.27-7.39,.24-3.41-3.25-5.56-7.77-4.79-4.55,.78-8.69,4.09-9.31,7.41-.59,3.29,2.91,5.44,7.8,4.77Z"/>
        <path class="cls-1" d="M1111.9,555.74c6.98-.43,12.8-4,13.03-7.92,.24-3.95-4.8-6.73-11.3-6.17-6.49,.56-12.37,4.13-13.09,7.96-.73,3.8,4.38,6.57,11.36,6.14Z"/>
        <path class="cls-1" d="M1108.53,584.91c-8.8,.26-16.64,3.99-17.5,8.33-.85,4.3,6.14,7.76,15.55,7.67,9.41-.08,17.2-3.83,17.4-8.29,.22-4.5-6.67-7.97-15.45-7.72Z"/>
        <path class="cls-1" d="M1142.48,389.23c1.08-.76,1.9-2.9,1.83-4.75-.07-1.85-.95-2.72-1.92-1.94-.97,.78-1.8,2.93-1.82,4.74-.02,1.82,.83,2.7,1.91,1.94Z"/>
        <path class="cls-1" d="M1143.21,436.02c2.18-.78,3.84-3.38,3.73-5.78-.12-2.4-1.86-3.7-3.86-2.89-1.99,.82-3.68,3.43-3.74,5.79-.05,2.35,1.7,3.65,3.86,2.88Z"/>
        <path class="cls-1" d="M1144.01,482.84c3.63-.7,6.44-3.7,6.26-6.65-.16-2.97-3.05-4.77-6.42-4-3.36,.76-6.2,3.77-6.29,6.67-.08,2.88,2.83,4.68,6.44,3.98Z"/>
        <path class="cls-1" d="M1144.88,529.67c5.45-.53,9.66-3.84,9.42-7.35-.23-3.54-4.55-5.9-9.62-5.29-5.08,.62-9.33,3.94-9.46,7.37-.14,3.42,4.22,5.79,9.65,5.26Z"/>
        <path class="cls-1" d="M1145.83,576.52c7.62-.26,13.5-3.81,13.2-7.88-.33-4.09-6.3-7.14-13.44-6.74-7.12,.38-13.09,3.94-13.26,7.91-.19,3.95,5.89,6.97,13.5,6.71Z"/>
        <path class="cls-1" d="M1146.56,606.78c-9.5,.05-17.47,3.78-17.69,8.28-.25,4.47,7.82,8.22,17.98,8.33,10.14,.11,17.99-3.61,17.59-8.24-.39-4.67-8.36-8.43-17.88-8.37Z"/>
        <path class="cls-1" d="M1149.92,358.02c.79-.83,1.17-3.09,.88-5.01-.3-1.9-1.11-2.77-1.81-1.91-.69,.86-1.07,3.12-.88,5,.21,1.88,1.01,2.75,1.81,1.91Z"/>
        <path class="cls-1" d="M1156.54,406.4c1.8-.88,2.9-3.63,2.5-6.11-.43-2.48-2.08-3.78-3.72-2.85-1.62,.92-2.77,3.69-2.51,6.12,.25,2.43,1.93,3.71,3.72,2.84Z"/>
        <path class="cls-1" d="M1163.22,454.79c3.16-.82,5.29-4,4.75-7.05-.54-3.06-3.34-4.85-6.25-3.96-2.91,.89-5.05,4.07-4.77,7.07,.29,2.98,3.09,4.77,6.27,3.94Z"/>
        <path class="cls-1" d="M1169.97,503.21c4.88-.67,8.31-4.21,7.63-7.83-.68-3.65-4.86-6.02-9.42-5.24-4.52,.77-7.97,4.3-7.66,7.86,.3,3.54,4.56,5.88,9.45,5.21Z"/>
        <path class="cls-1" d="M1176.81,551.64c7-.44,11.92-4.22,11.12-8.43-.81-4.24-6.72-7.24-13.21-6.68-6.49,.56-11.52,4.37-11.18,8.47,.32,4.08,6.28,7.08,13.26,6.65Z"/>
        <path class="cls-1" d="M1181.33,582.92c-8.8,.26-15.67,4.25-15.32,8.91,.34,4.62,8.29,8.34,17.7,8.26,9.42-.09,16.23-4.1,15.25-8.87-.95-4.84-8.82-8.56-17.63-8.3Z"/>
        <path class="cls-1" d="M1164.49,373.59c1.08-.76,1.5-3,.95-4.98-.56-1.97-1.81-2.95-2.79-2.17-.97,.78-1.41,3.04-.95,4.98,.45,1.95,1.69,2.94,2.79,2.18Z"/>
        <path class="cls-1" d="M1177.44,423.67c2.18-.78,3.33-3.52,2.6-6.09-.74-2.57-2.99-4.01-4.99-3.19-2,.82-3.17,3.57-2.61,6.1,.58,2.52,2.82,3.96,5,3.18Z"/>
        <path class="cls-1" d="M1190.46,473.77c3.64-.7,5.82-3.87,4.88-7.02-.93-3.17-4.45-5.14-7.82-4.38-3.37,.77-5.56,3.93-4.89,7.04,.67,3.09,4.2,5.06,7.83,4.36Z"/>
        <path class="cls-1" d="M1203.55,523.88c5.43-.52,8.91-4.04,7.77-7.79-1.14-3.78-6.18-6.36-11.27-5.73-5.09,.63-8.58,4.13-7.81,7.82,.78,3.65,5.86,6.23,11.3,5.71Z"/>
        <path class="cls-1" d="M1216.71,574.02c7.61-.26,12.64-4.04,11.29-8.39-1.37-4.38-8.23-7.64-15.35-7.26-7.13,.39-12.22,4.17-11.35,8.42,.88,4.22,7.8,7.48,15.4,7.22Z"/>
        <path class="cls-1" d="M1225.33,606.4c-9.53,.07-16.47,4.03-15.52,8.86,.96,4.78,10,8.8,20.14,8.91,10.15,.11,17.01-3.87,15.44-8.82-1.58-4.99-10.54-9.01-20.05-8.95Z"/>
        <path class="cls-1" d="M1165.96,340.78c.78-.83,.8-3.21,0-5.24-.78-2.03-1.98-3.01-2.68-2.14-.7,.87-.67,3.22,0,5.23,.68,2.01,1.89,2.98,2.68,2.15Z"/>
        <path class="cls-1" d="M1184.79,392.44c1.81-.88,2.4-3.77,1.37-6.42-1.04-2.65-3.24-4.07-4.85-3.15-1.61,.91-2.25,3.82-1.38,6.43,.87,2.6,3.06,4.02,4.86,3.14Z"/>
        <path class="cls-1" d="M1203.69,444.12c3.16-.82,4.66-4.17,3.37-7.43-1.3-3.27-4.73-5.22-7.65-4.33-2.92,.9-4.42,4.24-3.38,7.45,1.03,3.19,4.5,5.13,7.66,4.31Z"/>
        <path class="cls-1" d="M1222.67,495.81c4.88-.67,7.56-4.4,5.98-8.27-1.59-3.89-6.53-6.46-11.07-5.68-4.52,.77-7.23,4.5-6.01,8.3,1.21,3.77,6.21,6.32,11.09,5.65Z"/>
        <path class="cls-1" d="M1241.72,547.53c6.96-.42,11.08-4.46,9.22-8.94-1.85-4.53-8.63-7.75-15.11-7.2-6.49,.56-10.64,4.59-9.27,8.98,1.38,4.36,8.2,7.58,15.16,7.16Z"/>
        <path class="cls-1" d="M1254.13,580.93c-8.8,.26-14.69,4.52-13.16,9.5,1.53,4.94,10.43,8.93,19.86,8.84,9.41-.08,15.25-4.36,13.09-9.45-2.18-5.14-11-9.14-19.8-8.88Z"/>
        <path class="cls-1" d="M1186.5,357.95c1.07-.75,1.09-3.11,.08-5.22-1.04-2.09-2.69-3.18-3.66-2.4-.98,.78-1.02,3.15-.09,5.22,.92,2.08,2.57,3.17,3.66,2.41Z"/>
        <path class="cls-1" d="M1211.67,411.32c2.19-.78,2.82-3.65,1.47-6.39-1.36-2.74-4.12-4.31-6.12-3.49-2,.82-2.69,3.72-1.48,6.4,1.18,2.69,3.96,4.26,6.12,3.49Z"/>
        <path class="cls-1" d="M1236.9,464.7c3.64-.7,5.17-4.03,3.49-7.39-1.72-3.37-5.82-5.52-9.2-4.75-3.37,.77-4.94,4.1-3.5,7.41,1.43,3.3,5.59,5.43,9.22,4.73Z"/>
        <path class="cls-1" d="M1262.21,518.1c5.44-.53,8.16-4.23,6.13-8.23-2.04-4.02-7.83-6.81-12.92-6.18-5.08,.62-7.82,4.32-6.16,8.26,1.68,3.9,7.49,6.68,12.94,6.15Z"/>
        <path class="cls-1" d="M1287.59,571.52c7.6-.25,11.79-4.27,9.39-8.9-2.42-4.66-10.13-8.16-17.26-7.77-7.11,.38-11.37,4.41-9.44,8.94,1.92,4.5,9.69,7.99,17.3,7.73Z"/>
        <path class="cls-1" d="M1304.1,606.02c-9.5,.05-15.49,4.29-13.35,9.44,2.14,5.1,12.15,9.38,22.29,9.49,10.14,.11,16.04-4.13,13.28-9.4-2.78-5.31-12.72-9.59-22.22-9.53Z"/>
        <path class="cls-1" d="M1182,323.54c.79-.84,.4-3.31-.87-5.48-1.27-2.15-2.86-3.24-3.55-2.37-.68,.86-.28,3.33,.86,5.47,1.16,2.14,2.76,3.22,3.56,2.38Z"/>
        <path class="cls-1" d="M1213.05,378.48c1.8-.88,1.9-3.91,.24-6.72-1.66-2.82-4.36-4.37-5.98-3.45-1.62,.92-1.73,3.95-.24,6.73,1.5,2.76,4.18,4.33,5.98,3.45Z"/>
        <path class="cls-1" d="M1244.17,433.44c3.14-.81,4.05-4.34,1.98-7.8-2.06-3.48-6.13-5.6-9.03-4.71-2.93,.9-3.8,4.41-1.99,7.82,1.81,3.39,5.89,5.51,9.05,4.68Z"/>
        <path class="cls-1" d="M1275.36,488.42c4.9-.68,6.81-4.6,4.34-8.71-2.48-4.14-8.18-6.9-12.72-6.12-4.52,.77-6.49,4.7-4.36,8.74,2.13,4.01,7.85,6.77,12.74,6.09Z"/>
        <path class="cls-1" d="M1306.63,543.42c6.98-.43,10.22-4.69,7.32-9.46-2.92-4.8-10.54-8.27-17.03-7.71-6.48,.55-9.8,4.83-7.36,9.5,2.42,4.64,10.09,8.1,17.06,7.67Z"/>
        <path class="cls-1" d="M1326.93,578.95c-8.81,.26-13.72,4.78-10.98,10.08,2.71,5.26,12.6,9.5,22.02,9.42,9.42-.09,14.26-4.61,10.93-10.03-3.36-5.47-13.19-9.71-21.97-9.46Z"/>
        <path class="cls-1" d="M1208.51,342.32c1.07-.76,.73-3.22-.79-5.45-1.52-2.22-3.56-3.42-4.53-2.64-.97,.78-.63,3.25,.78,5.45,1.4,2.21,3.45,3.4,4.54,2.64Z"/>
        <path class="cls-1" d="M1245.89,398.96c2.17-.78,2.33-3.8,.35-6.7-1.99-2.9-5.26-4.61-7.25-3.8-2.02,.83-2.16,3.85-.35,6.7,1.8,2.86,5.09,4.56,7.25,3.79Z"/>
        <path class="cls-1" d="M1283.34,455.63c3.63-.7,4.55-4.2,2.11-7.77-2.48-3.58-7.22-5.89-10.6-5.12-3.37,.77-4.32,4.27-2.11,7.79,2.19,3.5,6.97,5.81,10.61,5.1Z"/>
        <path class="cls-1" d="M1320.87,512.31c5.43-.52,7.42-4.43,4.49-8.67-2.96-4.27-9.49-7.24-14.57-6.62-5.09,.63-7.11,4.54-4.51,8.7,2.58,4.14,9.15,7.12,14.59,6.59Z"/>
        <path class="cls-1" d="M1358.47,569.01c7.61-.26,10.92-4.49,7.49-9.41-3.47-4.95-12.05-8.67-19.17-8.28-7.14,.39-10.51,4.63-7.53,9.45,2.95,4.78,11.6,8.5,19.2,8.24Z"/>
        <path class="cls-1" d="M1382.87,605.64c-9.5,.06-14.53,4.56-11.18,10.03,3.32,5.42,14.3,9.97,24.45,10.07,10.13,.11,15.08-4.4,11.12-9.98-3.97-5.64-14.88-10.18-24.4-10.12Z"/>
        <path class="cls-1" d="M1198.04,306.29c.79-.83-.01-3.41-1.74-5.71-1.74-2.29-3.73-3.47-4.42-2.61-.68,.86,.11,3.44,1.74,5.7,1.63,2.27,3.65,3.45,4.43,2.62Z"/>
        <path class="cls-1" d="M1241.31,364.52c1.79-.87,1.37-4.04-.88-7.03-2.28-2.99-5.5-4.67-7.11-3.76-1.63,.92-1.22,4.09,.89,7.03,2.11,2.93,5.3,4.63,7.11,3.75Z"/>
        <path class="cls-1" d="M1284.64,422.77c3.15-.82,3.43-4.52,.59-8.17-2.82-3.69-7.53-5.97-10.43-5.08-2.91,.89-3.17,4.58-.6,8.2,2.57,3.6,7.28,5.88,10.43,5.06Z"/>
        <path class="cls-1" d="M1328.05,481.03c4.9-.68,6.06-4.79,2.7-9.15-3.4-4.38-9.86-7.33-14.37-6.57-4.52,.77-5.75,4.9-2.71,9.19,3.02,4.26,9.51,7.2,14.38,6.53Z"/>
        <path class="cls-1" d="M1371.53,539.32c6.98-.43,9.37-4.92,5.42-9.97-3.97-5.09-12.44-8.78-18.94-8.22-6.48,.56-8.94,5.05-5.45,10.01,3.46,4.92,12.01,8.6,18.96,8.18Z"/>
        <path class="cls-1" d="M1399.72,576.96c-8.76,.24-12.74,5.04-8.81,10.66,3.89,5.58,14.76,10.09,24.18,10,9.43-.09,13.29-4.87,8.77-10.61-4.54-5.8-15.34-10.3-24.13-10.05Z"/>
        <path class="cls-1" d="M1230.52,326.68c1.06-.75,.31-3.32-1.66-5.69-1.99-2.35-4.44-3.65-5.4-2.87-.99,.79-.24,3.36,1.66,5.68,1.9,2.33,4.33,3.63,5.41,2.88Z"/>
        <path class="cls-1" d="M1280.12,386.61c2.18-.78,1.82-3.94-.79-7-2.6-3.07-6.38-4.92-8.38-4.1-2,.82-1.64,3.98,.78,7.01,2.44,3.01,6.21,4.87,8.38,4.09Z"/>
        <path class="cls-1" d="M1329.79,446.56c3.64-.7,3.91-4.36,.72-8.14-3.23-3.79-8.61-6.27-11.99-5.5-3.38,.77-3.7,4.44-.72,8.16,2.98,3.7,8.35,6.18,11.99,5.48Z"/>
        <path class="cls-1" d="M1379.54,506.52c5.45-.53,6.68-4.63,2.84-9.11-3.87-4.51-11.13-7.69-16.22-7.06-5.09,.63-6.36,4.74-2.86,9.15,3.49,4.38,10.79,7.56,16.23,7.03Z"/>
        <path class="cls-1" d="M1429.35,566.51c7.63-.27,10.06-4.73,5.59-9.92-4.52-5.23-13.94-9.19-21.08-8.8-7.11,.38-9.64,4.86-5.62,9.96,4,5.07,13.5,9.01,21.11,8.76Z"/>
        <path class="cls-1" d="M1461.64,605.26c-9.52,.06-13.57,4.82-9.02,10.61,4.51,5.74,16.48,10.54,26.62,10.65,10.14,.1,14.09-4.65,8.96-10.56-5.18-5.95-17.05-10.76-26.56-10.7Z"/>
        <path class="cls-1" d="M1214.08,289.05c.79-.84-.41-3.51-2.61-5.95-2.21-2.42-4.61-3.7-5.3-2.84-.69,.86,.49,3.55,2.6,5.94,2.12,2.4,4.54,3.67,5.3,2.85Z"/>
        <path class="cls-1" d="M1269.56,350.56c1.8-.88,.88-4.19-2.01-7.33-2.91-3.15-6.61-4.99-8.24-4.06-1.63,.92-.72,4.24,2.01,7.34,2.72,3.1,6.45,4.93,8.24,4.05Z"/>
        <path class="cls-1" d="M1325.12,412.09c3.18-.83,2.78-4.67-.8-8.55-3.61-3.88-8.91-6.35-11.82-5.45-2.9,.89-2.57,4.76,.79,8.57,3.32,3.81,8.66,6.25,11.82,5.43Z"/>
        <path class="cls-1" d="M1380.75,473.64c4.89-.67,5.31-4.99,1.05-9.6-4.31-4.63-11.48-7.79-16.02-7.01-4.53,.77-4.99,5.1-1.06,9.63,3.93,4.5,11.15,7.65,16.02,6.98Z"/>
        <path class="cls-1" d="M1436.44,535.21c7-.44,8.51-5.16,3.52-10.48-5.03-5.37-14.35-9.3-20.85-8.74-6.47,.55-8.09,5.29-3.54,10.52,4.5,5.2,13.9,9.12,20.87,8.69Z"/>
        <path class="cls-1" d="M1472.53,574.98c-8.79,.25-11.78,5.3-6.64,11.25,5.08,5.89,16.92,10.66,26.34,10.58,9.4-.08,12.32-5.14,6.61-11.19-5.74-6.12-17.51-10.89-26.3-10.63Z"/>
        <path class="cls-1" d="M1252.53,311.04c1.08-.76-.05-3.44-2.54-5.92-2.46-2.48-5.3-3.89-6.28-3.11-.97,.78,.16,3.46,2.53,5.92,2.38,2.46,5.21,3.87,6.28,3.11Z"/>
        <path class="cls-1" d="M1314.34,374.26c2.18-.78,1.33-4.08-1.91-7.3-3.21-3.24-7.51-5.22-9.52-4.4-2,.82-1.12,4.11,1.92,7.31,3.06,3.18,7.33,5.17,9.51,4.4Z"/>
        <path class="cls-1" d="M1376.23,437.49c3.64-.7,3.32-4.54-.67-8.51-3.99-4-10.01-6.64-13.38-5.87-3.39,.78-3.05,4.6,.67,8.54,3.73,3.9,9.74,6.56,13.38,5.85Z"/>
        <path class="cls-1" d="M1438.2,500.74c5.44-.53,5.94-4.83,1.2-9.56-4.77-4.76-12.79-8.13-17.87-7.51-5.08,.62-5.62,4.93-1.21,9.59,4.38,4.63,12.44,8,17.88,7.47Z"/>
        <path class="cls-1" d="M1500.23,564.01c7.62-.26,9.2-4.96,3.69-10.43-5.59-5.51-15.85-9.7-22.99-9.31-7.13,.39-8.79,5.09-3.7,10.48,5.07,5.33,15.38,9.53,23,9.27Z"/>
        <path class="cls-1" d="M1540.41,604.88c-9.51,.06-12.58,5.08-6.84,11.19,5.69,6.06,18.64,11.12,28.77,11.23,10.14,.11,13.12-4.92,6.8-11.14-6.39-6.27-19.2-11.35-28.73-11.28Z"/>
        <path class="cls-1" d="M1230.12,271.81c.8-.84-.8-3.62-3.49-6.18-2.68-2.55-5.48-3.94-6.17-3.08-.69,.86,.87,3.66,3.48,6.17,2.58,2.53,5.39,3.92,6.18,3.08Z"/>
        <path class="cls-1" d="M1297.82,336.6c1.81-.88,.36-4.31-3.15-7.63-3.53-3.31-7.74-5.29-9.37-4.37-1.64,.93-.19,4.36,3.15,7.64,3.36,3.26,7.58,5.23,9.37,4.36Z"/>
        <path class="cls-1" d="M1365.59,401.42c3.16-.82,2.18-4.85-2.18-8.92-4.34-4.1-10.31-6.71-13.21-5.83-2.92,.9-1.91,4.91,2.18,8.94,4.11,4,10.04,6.63,13.21,5.8Z"/>
        <path class="cls-1" d="M1433.44,466.25c4.9-.68,4.58-5.2-.6-10.04-5.22-4.87-13.15-8.22-17.67-7.45-4.52,.77-4.26,5.3,.59,10.07,4.83,4.74,12.78,8.1,17.67,7.42Z"/>
        <path class="cls-1" d="M1501.36,531.1c6.96-.42,7.65-5.38,1.62-10.99-6.07-5.65-16.26-9.81-22.76-9.25-6.48,.56-7.2,5.5-1.63,11.04,5.55,5.48,15.79,9.63,22.77,9.2Z"/>
        <path class="cls-1" d="M1545.32,572.99c-8.79,.25-10.8,5.56-4.47,11.83,6.27,6.21,19.09,11.24,28.49,11.16,9.41-.09,11.34-5.39,4.45-11.77-6.95-6.43-19.67-11.47-28.47-11.21Z"/>
        <path class="cls-1" d="M1274.54,295.4c1.08-.76-.46-3.54-3.41-6.16-2.94-2.61-6.16-4.13-7.15-3.34-.96,.78,.56,3.57,3.4,6.15,2.86,2.59,6.07,4.1,7.15,3.35Z"/>
        <path class="cls-1" d="M1348.57,361.9c2.15-.76,.8-4.21-3.05-7.6-3.85-3.4-8.66-5.52-10.64-4.71-2,.82-.63,4.26,3.05,7.61,3.67,3.35,8.47,5.48,10.64,4.7Z"/>
        <path class="cls-1" d="M1422.68,428.42c3.62-.7,2.68-4.7-2.06-8.89-4.77-4.2-11.4-7.01-14.77-6.25-3.37,.77-2.44,4.78,2.06,8.91,4.47,4.12,11.17,6.91,14.77,6.22Z"/>
        <path class="cls-1" d="M1496.86,494.95c5.45-.53,5.21-5.04-.45-10-5.69-4.99-14.43-8.58-19.52-7.95-5.07,.62-4.88,5.13,.44,10.03,5.3,4.87,14.07,8.45,19.52,7.92Z"/>
        <path class="cls-1" d="M1571.1,561.51c7.61-.26,8.36-5.19,1.79-10.95-6.62-5.8-17.78-10.21-24.9-9.82-7.11,.38-7.93,5.32-1.79,10.99,6.11,5.62,17.29,10.04,24.9,9.78Z"/>
        <path class="cls-1" d="M1619.17,604.49c-9.51,.06-11.61,5.34-4.67,11.78,6.89,6.37,20.78,11.71,30.93,11.81,10.13,.11,12.15-5.18,4.65-11.72-7.56-6.6-21.38-11.93-30.9-11.86Z"/>
        <path class="cls-1" d="M1246.16,254.57c.79-.83-1.19-3.73-4.36-6.41-3.17-2.67-6.35-4.17-7.04-3.31-.71,.87,1.28,3.76,4.35,6.41,3.07,2.65,6.27,4.15,7.05,3.32Z"/>
        <path class="cls-1" d="M1326.08,322.65c1.8-.88-.15-4.45-4.27-7.94-4.16-3.48-8.86-5.6-10.51-4.67-1.62,.92,.31,4.5,4.28,7.95,3.94,3.44,8.71,5.54,10.5,4.66Z"/>
        <path class="cls-1" d="M1406.07,390.74c3.17-.83,1.55-5.02-3.57-9.29-5.12-4.3-11.69-7.09-14.6-6.2-2.9,.89-1.29,5.08,3.57,9.32,4.85,4.21,11.42,7,14.59,6.18Z"/>
        <path class="cls-1" d="M1486.13,458.86c4.91-.68,3.84-5.39-2.24-10.48-6.13-5.11-14.79-8.67-19.32-7.9-4.51,.76-3.52,5.5,2.24,10.52,5.71,4.99,14.45,8.52,19.31,7.86Z"/>
        <path class="cls-1" d="M1566.27,527c6.97-.43,6.78-5.61-.29-11.5-7.11-5.94-18.2-10.31-24.67-9.76-6.49,.56-6.37,5.75,.28,11.55,6.59,5.76,17.71,10.14,24.67,9.71Z"/>
        <path class="cls-1" d="M1618.12,571c-8.78,.25-9.82,5.83-2.31,12.41,7.46,6.53,21.26,11.82,30.65,11.74,9.41-.08,10.38-5.66,2.29-12.35-8.14-6.76-21.84-12.05-30.64-11.8Z"/>
        <path class="cls-1" d="M1296.54,279.77c1.09-.76-.87-3.64-4.28-6.39-3.4-2.75-7.06-4.35-8.02-3.57-.96,.78,.97,3.67,4.28,6.38,3.34,2.71,6.94,4.34,8.02,3.58Z"/>
        <path class="cls-1" d="M1382.79,349.55c2.17-.77,.28-4.34-4.17-7.91-4.46-3.57-9.77-5.83-11.78-5.01-2,.82-.12,4.4,4.18,7.92,4.27,3.53,9.6,5.78,11.77,5.01Z"/>
        <path class="cls-1" d="M1469.12,419.35c3.61-.69,2.07-4.88-3.44-9.26-5.53-4.41-12.8-7.38-16.16-6.62-3.37,.77-1.82,4.95,3.45,9.28,5.24,4.32,12.52,7.3,16.15,6.6Z"/>
        <path class="cls-1" d="M1555.52,489.17c5.45-.53,4.46-5.24-2.09-10.44-6.59-5.24-16.1-9.01-21.17-8.39-5.07,.62-4.14,5.33,2.09,10.48,6.19,5.11,15.75,8.87,21.16,8.36Z"/>
        <path class="cls-1" d="M1641.99,559.01c7.59-.25,7.5-5.42-.12-11.46-7.67-6.08-19.67-10.73-26.81-10.34-7.13,.39-7.09,5.56,.11,11.5,7.15,5.9,19.19,10.55,26.81,10.29Z"/>
        <path class="cls-1" d="M1697.95,604.11c-9.51,.06-10.66,5.62-2.51,12.36,8.07,6.7,22.95,12.28,33.09,12.39,10.13,.11,11.17-5.44,2.48-12.3-8.77-6.92-23.56-12.51-33.07-12.45Z"/>
        <path class="cls-1" d="M1262.2,237.32c.78-.83-1.57-3.84-5.23-6.65-3.65-2.8-7.23-4.4-7.91-3.55-.7,.87,1.67,3.87,5.22,6.64,3.54,2.79,7.14,4.39,7.93,3.55Z"/>
        <path class="cls-1" d="M1354.33,308.69c1.8-.88-.65-4.6-5.4-8.24-4.76-3.66-10.01-5.9-11.64-4.98-1.62,.92,.83,4.64,5.41,8.25,4.59,3.6,9.84,5.84,11.63,4.97Z"/>
        <path class="cls-1" d="M1446.54,380.07c3.17-.83,.9-5.18-4.96-9.67-5.9-4.5-13.09-7.46-15.99-6.57-2.91,.89-.67,5.25,4.96,9.69,5.6,4.42,12.81,7.38,15.98,6.55Z"/>
        <path class="cls-1" d="M1538.83,451.47c4.89-.67,3.11-5.6-3.89-10.92-7.02-5.36-16.43-9.12-20.97-8.34-4.53,.77-2.78,5.7,3.89,10.96,6.61,5.24,16.06,8.98,20.96,8.3Z"/>
        <path class="cls-1" d="M1631.18,522.89c6.97-.43,5.92-5.84-2.19-12.01-8.17-6.22-20.07-10.84-26.58-10.28-6.49,.56-5.51,5.98,2.19,12.06,7.63,6.05,19.61,10.65,26.57,10.22Z"/>
        <path class="cls-1" d="M1690.93,569.01c-8.8,.26-8.86,6.09-.14,13,8.65,6.84,23.39,12.41,32.81,12.32,9.43-.09,9.38-5.91,.13-12.93-9.32-7.08-24.03-12.63-32.81-12.38Z"/>
        <path class="cls-1" d="M1318.55,264.13c1.08-.76-1.25-3.75-5.15-6.63-3.89-2.87-7.94-4.58-8.9-3.81-.98,.78,1.34,3.78,5.15,6.62,3.8,2.85,7.82,4.58,8.89,3.82Z"/>
        <path class="cls-1" d="M1417.02,337.19c2.16-.77-.21-4.49-5.3-8.21-5.07-3.74-10.91-6.14-12.91-5.32-2,.82,.4,4.53,5.31,8.22,4.91,3.69,10.73,6.08,12.9,5.31Z"/>
        <path class="cls-1" d="M1515.57,410.28c3.64-.71,1.45-5.05-4.83-9.63-6.29-4.61-14.18-7.76-17.55-6.99-3.38,.77-1.18,5.11,4.84,9.66,6.03,4.51,13.9,7.67,17.54,6.97Z"/>
        <path class="cls-1" d="M1614.18,483.38c5.46-.53,3.72-5.43-3.73-10.89-7.5-5.49-17.74-9.46-22.82-8.84-5.07,.62-3.4,5.54,3.75,10.92,7.09,5.36,17.37,9.32,22.8,8.8Z"/>
        <path class="cls-1" d="M1712.87,556.5c7.61-.25,6.63-5.65-2.02-11.97-8.73-6.36-21.6-11.24-28.72-10.85-7.13,.39-6.18,5.77,2.03,12.02,8.19,6.18,21.1,11.06,28.71,10.8Z"/>
        <path class="cls-1" d="M1776.71,603.73c-9.52,.06-9.66,5.87-.33,12.94,9.25,7.02,25.11,12.86,35.25,12.97,10.14,.11,10.19-5.7,.32-12.88-9.94-7.25-25.72-13.09-35.23-13.03Z"/>
        <path class="cls-1" d="M1278.24,220.08c.78-.83-1.98-3.94-6.11-6.88-4.12-2.93-8.1-4.64-8.78-3.78-.69,.86,2.08,3.97,6.09,6.88,4.02,2.92,8,4.62,8.8,3.79Z"/>
        <path class="cls-1" d="M1382.59,294.73c1.8-.88-1.15-4.74-6.54-8.54-5.39-3.82-11.14-6.2-12.77-5.28-1.63,.93,1.33,4.78,6.54,8.55,5.21,3.76,10.96,6.15,12.76,5.27Z"/>
        <path class="cls-1" d="M1487.02,369.39c3.17-.82,.28-5.35-6.35-10.04-6.66-4.71-14.47-7.84-17.38-6.95-2.9,.89-.04,5.42,6.35,10.06,6.38,4.62,14.21,7.75,17.37,6.92Z"/>
        <path class="cls-1" d="M1591.52,444.08c4.88-.67,2.38-5.8-5.53-11.37-7.94-5.61-18.11-9.55-22.62-8.78-4.54,.77-2.02,5.89,5.54,11.4,7.52,5.47,17.7,9.42,22.6,8.75Z"/>
        <path class="cls-1" d="M1696.08,518.78c6.98-.43,5.07-6.07-4.08-12.52-9.26-6.49-21.99-11.35-28.49-10.79-6.49,.56-4.65,6.21,4.11,12.58,8.68,6.32,21.49,11.17,28.47,10.74Z"/>
        <path class="cls-1" d="M1763.72,567.03c-8.79,.26-7.88,6.35,2.03,13.58,9.83,7.17,25.58,12.98,34.97,12.9,9.42-.09,8.42-6.18-2.02-13.52-10.53-7.4-26.19-13.22-34.98-12.96Z"/>
        <path class="cls-1" d="M1340.56,248.49c1.08-.76-1.64-3.86-6.02-6.86-4.38-3-8.81-4.82-9.77-4.04-.98,.78,1.75,3.88,6.02,6.85,4.3,2.97,8.7,4.8,9.77,4.05Z"/>
        <path class="cls-1" d="M1451.25,324.84c2.18-.77-.71-4.63-6.43-8.52-5.7-3.91-12.03-6.44-14.04-5.62-2,.82,.91,4.66,6.44,8.53,5.53,3.85,11.87,6.38,14.04,5.61Z"/>
        <path class="cls-1" d="M1562.01,401.21c3.64-.7,.81-5.21-6.22-10.01-7.05-4.82-15.58-8.13-18.94-7.37-3.38,.77-.56,5.28,6.24,10.03,6.78,4.72,15.3,8.04,18.92,7.34Z"/>
        <path class="cls-1" d="M1672.84,477.6c5.44-.53,2.98-5.63-5.38-11.33-8.41-5.73-19.4-9.9-24.47-9.28-5.08,.63-2.65,5.73,5.4,11.36,8.01,5.59,19,9.77,24.45,9.24Z"/>
        <path class="cls-1" d="M1783.75,554c7.62-.26,5.79-5.88-3.92-12.48-9.77-6.65-23.5-11.75-30.63-11.36-7.12,.38-5.37,6.02,3.93,12.53,9.21,6.47,23.01,11.57,30.62,11.31Z"/>
        <path class="cls-1" d="M1855.48,603.35c-9.51,.06-8.67,6.12,1.84,13.52,10.46,7.33,27.26,13.45,37.4,13.56,10.15,.1,9.21-5.96-1.83-13.46-11.16-7.56-27.89-13.68-37.41-13.61Z"/>
        <path class="cls-1" d="M-10.01,600.84c-9.5,.05-15.49,4.29-13.35,9.44,2.14,5.1,12.15,9.38,22.29,9.49,10.14,.11,16.04-4.13,13.28-9.4-2.78-5.31-12.72-9.59-22.22-9.53Z"/>
        <path class="cls-1" d="M-7.49,538.24c6.98-.43,10.22-4.69,7.32-9.46-2.92-4.8-10.54-8.27-17.03-7.71-6.48,.55-9.8,4.83-7.36,9.5,2.42,4.64,10.09,8.1,17.06,7.67Z"/>
        <path class="cls-1" d="M12.81,573.76c-8.81,.26-13.72,4.78-10.98,10.08,2.71,5.26,12.6,9.5,22.02,9.42,9.42-.09,14.26-4.61,10.93-10.03-3.36-5.47-13.19-9.71-21.97-9.46Z"/>
        <path class="cls-1" d="M6.76,507.13c5.43-.52,7.42-4.43,4.49-8.67-2.96-4.27-9.49-7.24-14.57-6.62-5.09,.63-7.11,4.54-4.51,8.7,2.58,4.14,9.15,7.12,14.59,6.59Z"/>
        <path class="cls-1" d="M44.36,563.83c7.61-.26,10.92-4.49,7.49-9.41-3.47-4.95-12.05-8.67-19.17-8.28-7.14,.39-10.51,4.63-7.53,9.45,2.95,4.78,11.6,8.5,19.2,8.24Z"/>
        <path class="cls-1" d="M68.75,600.45c-9.5,.06-14.53,4.56-11.18,10.03,3.32,5.42,14.3,9.97,24.45,10.07,10.13,.11,15.08-4.4,11.12-9.98-3.97-5.64-14.88-10.18-24.4-10.12Z"/>
        <path class="cls-1" d="M13.94,475.85c4.9-.68,6.06-4.79,2.7-9.15-3.4-4.38-9.86-7.33-14.37-6.57-4.52,.77-5.75,4.9-2.71,9.19,3.02,4.26,9.51,7.2,14.38,6.53Z"/>
        <path class="cls-1" d="M57.42,534.13c6.98-.43,9.37-4.92,5.42-9.97-3.97-5.09-12.44-8.78-18.94-8.22-6.48,.56-8.94,5.05-5.45,10.01,3.46,4.92,12.01,8.6,18.96,8.18Z"/>
        <path class="cls-1" d="M85.61,571.78c-8.76,.24-12.74,5.04-8.81,10.66,3.89,5.58,14.76,10.09,24.18,10,9.43-.09,13.29-4.87,8.77-10.61-4.54-5.8-15.34-10.3-24.13-10.05Z"/>
        <path class="cls-1" d="M15.68,441.37c3.64-.7,3.91-4.36,.72-8.14-3.23-3.79-8.61-6.27-11.99-5.5-3.38,.77-3.7,4.44-.72,8.16,2.98,3.7,8.35,6.18,11.99,5.48Z"/>
        <path class="cls-1" d="M65.42,501.34c5.45-.53,6.68-4.63,2.84-9.11-3.87-4.51-11.13-7.69-16.22-7.06-5.09,.63-6.36,4.74-2.86,9.15,3.49,4.38,10.79,7.56,16.23,7.03Z"/>
        <path class="cls-1" d="M115.24,561.33c7.63-.27,10.06-4.73,5.59-9.92-4.52-5.23-13.94-9.19-21.08-8.8-7.11,.38-9.64,4.86-5.62,9.96,4,5.07,13.5,9.01,21.11,8.76Z"/>
        <path class="cls-1" d="M147.53,600.07c-9.52,.06-13.57,4.82-9.02,10.61,4.51,5.74,16.48,10.54,26.62,10.65,10.14,.1,14.09-4.65,8.96-10.56-5.18-5.95-17.05-10.76-26.56-10.7Z"/>
        <path class="cls-1" d="M11.01,406.91c3.18-.83,2.78-4.67-.8-8.55-3.61-3.88-8.91-6.35-11.82-5.45-2.9,.89-2.57,4.76,.79,8.57,3.32,3.81,8.66,6.25,11.82,5.43Z"/>
        <path class="cls-1" d="M66.63,468.46c4.89-.67,5.31-4.99,1.05-9.6-4.31-4.63-11.48-7.79-16.02-7.01-4.53,.77-4.99,5.1-1.06,9.63,3.93,4.5,11.15,7.65,16.02,6.98Z"/>
        <path class="cls-1" d="M122.33,530.03c7-.44,8.51-5.16,3.52-10.48-5.03-5.37-14.35-9.3-20.85-8.74-6.47,.55-8.09,5.29-3.54,10.52,4.5,5.2,13.9,9.12,20.87,8.69Z"/>
        <path class="cls-1" d="M158.41,569.79c-8.79,.25-11.78,5.3-6.64,11.25,5.08,5.89,16.92,10.66,26.34,10.58,9.4-.08,12.32-5.14,6.61-11.19-5.74-6.12-17.51-10.89-26.3-10.63Z"/>
        <path class="cls-1" d="M.23,369.07c2.18-.78,1.33-4.08-1.91-7.3-3.21-3.24-7.51-5.22-9.52-4.4-2,.82-1.12,4.11,1.92,7.31,3.06,3.18,7.33,5.17,9.51,4.4Z"/>
        <path class="cls-1" d="M62.12,432.3c3.64-.7,3.32-4.54-.67-8.51-3.99-4-10.01-6.64-13.38-5.87-3.39,.78-3.05,4.6,.67,8.54,3.73,3.9,9.74,6.56,13.38,5.85Z"/>
        <path class="cls-1" d="M124.08,495.55c5.44-.53,5.94-4.83,1.2-9.56-4.77-4.76-12.79-8.13-17.87-7.51-5.08,.62-5.62,4.93-1.21,9.59,4.38,4.63,12.44,8,17.88,7.47Z"/>
        <path class="cls-1" d="M186.12,558.83c7.62-.26,9.2-4.96,3.69-10.43-5.59-5.51-15.85-9.7-22.99-9.31-7.13,.39-8.79,5.09-3.7,10.48,5.07,5.33,15.38,9.53,23,9.27Z"/>
        <path class="cls-1" d="M226.29,599.69c-9.51,.06-12.58,5.08-6.84,11.19,5.69,6.06,18.64,11.12,28.77,11.23,10.14,.11,13.12-4.92,6.8-11.14-6.39-6.27-19.2-11.35-28.73-11.28Z"/>
        <path class="cls-1" d="M51.48,396.23c3.16-.82,2.18-4.85-2.18-8.92-4.34-4.1-10.31-6.71-13.21-5.83-2.92,.9-1.91,4.91,2.18,8.94,4.11,4,10.04,6.63,13.21,5.8Z"/>
        <path class="cls-1" d="M119.33,461.07c4.9-.68,4.58-5.2-.6-10.04-5.22-4.87-13.15-8.22-17.67-7.45-4.52,.77-4.26,5.3,.59,10.07,4.83,4.74,12.78,8.1,17.67,7.42Z"/>
        <path class="cls-1" d="M187.24,525.92c6.96-.42,7.65-5.38,1.62-10.99-6.07-5.65-16.26-9.81-22.76-9.25-6.48,.56-7.2,5.5-1.63,11.04,5.55,5.48,15.79,9.63,22.77,9.2Z"/>
        <path class="cls-1" d="M231.21,567.8c-8.79,.25-10.8,5.56-4.47,11.83,6.27,6.21,19.09,11.24,28.49,11.16,9.41-.09,11.34-5.39,4.45-11.77-6.95-6.43-19.67-11.47-28.47-11.21Z"/>
        <path class="cls-1" d="M34.46,356.71c2.15-.76,.8-4.21-3.05-7.6-3.85-3.4-8.66-5.52-10.64-4.71-2,.82-.63,4.26,3.05,7.61,3.67,3.35,8.47,5.48,10.64,4.7Z"/>
        <path class="cls-1" d="M108.57,423.23c3.62-.7,2.68-4.7-2.06-8.89-4.77-4.2-11.4-7.01-14.77-6.25-3.37,.77-2.44,4.78,2.06,8.91,4.47,4.12,11.17,6.91,14.77,6.22Z"/>
        <path class="cls-1" d="M182.75,489.77c5.45-.53,5.21-5.04-.45-10-5.69-4.99-14.43-8.58-19.52-7.95-5.07,.62-4.88,5.13,.44,10.03,5.3,4.87,14.07,8.45,19.52,7.92Z"/>
        <path class="cls-1" d="M256.99,556.33c7.61-.26,8.36-5.19,1.79-10.95-6.62-5.8-17.78-10.21-24.9-9.82-7.11,.38-7.93,5.32-1.79,10.99,6.11,5.62,17.29,10.04,24.9,9.78Z"/>
        <path class="cls-1" d="M305.06,599.31c-9.51,.06-11.61,5.34-4.67,11.78,6.89,6.37,20.78,11.71,30.93,11.81,10.13,.11,12.15-5.18,4.65-11.72-7.56-6.6-21.38-11.93-30.9-11.86Z"/>
        <path class="cls-1" d="M11.96,317.46c1.8-.88-.15-4.45-4.27-7.94-4.16-3.48-8.86-5.6-10.51-4.67-1.62,.92,.31,4.5,4.28,7.95,3.94,3.44,8.71,5.54,10.5,4.66Z"/>
        <path class="cls-1" d="M91.96,385.56c3.17-.83,1.55-5.02-3.57-9.29-5.12-4.3-11.69-7.09-14.6-6.2-2.9,.89-1.29,5.08,3.57,9.32,4.85,4.21,11.42,7,14.59,6.18Z"/>
        <path class="cls-1" d="M172.02,453.68c4.91-.68,3.84-5.39-2.24-10.48-6.13-5.11-14.79-8.67-19.32-7.9-4.51,.76-3.52,5.5,2.24,10.52,5.71,4.99,14.45,8.52,19.31,7.86Z"/>
        <path class="cls-1" d="M252.16,521.81c6.97-.43,6.78-5.61-.29-11.5-7.11-5.94-18.2-10.31-24.67-9.76-6.49,.56-6.37,5.75,.28,11.55,6.59,5.76,17.71,10.14,24.67,9.71Z"/>
        <path class="cls-1" d="M304.01,565.82c-8.78,.25-9.82,5.83-2.31,12.41,7.46,6.53,21.26,11.82,30.65,11.74,9.41-.08,10.38-5.66,2.29-12.35-8.14-6.76-21.84-12.05-30.64-11.8Z"/>
        <path class="cls-1" d="M68.68,344.36c2.17-.77,.28-4.34-4.17-7.91-4.46-3.57-9.77-5.83-11.78-5.01-2,.82-.12,4.4,4.18,7.92,4.27,3.53,9.6,5.78,11.77,5.01Z"/>
        <path class="cls-1" d="M155.01,414.16c3.61-.69,2.07-4.88-3.44-9.26-5.53-4.41-12.8-7.38-16.16-6.62-3.37,.77-1.82,4.95,3.45,9.28,5.24,4.32,12.52,7.3,16.15,6.6Z"/>
        <path class="cls-1" d="M241.4,483.98c5.45-.53,4.46-5.24-2.09-10.44-6.59-5.24-16.1-9.01-21.17-8.39-5.07,.62-4.14,5.33,2.09,10.48,6.19,5.11,15.75,8.87,21.16,8.36Z"/>
        <path class="cls-1" d="M327.88,553.82c7.59-.25,7.5-5.42-.12-11.46-7.67-6.08-19.67-10.73-26.81-10.34-7.13,.39-7.09,5.56,.11,11.5,7.15,5.9,19.19,10.55,26.81,10.29Z"/>
        <path class="cls-1" d="M383.83,598.93c-9.51,.06-10.66,5.62-2.51,12.36,8.07,6.7,22.95,12.28,33.09,12.39,10.13,.11,11.17-5.44,2.48-12.3-8.77-6.92-23.56-12.51-33.07-12.45Z"/>
        <path class="cls-1" d="M40.22,303.5c1.8-.88-.65-4.6-5.4-8.24-4.76-3.66-10.01-5.9-11.64-4.98-1.62,.92,.83,4.64,5.41,8.25,4.59,3.6,9.84,5.84,11.63,4.97Z"/>
        <path class="cls-1" d="M132.43,374.88c3.17-.83,.9-5.18-4.96-9.67-5.9-4.5-13.09-7.46-15.99-6.57-2.91,.89-.67,5.25,4.96,9.69,5.6,4.42,12.81,7.38,15.98,6.55Z"/>
        <path class="cls-1" d="M224.71,446.29c4.89-.67,3.11-5.6-3.89-10.92-7.02-5.36-16.43-9.12-20.97-8.34-4.53,.77-2.78,5.7,3.89,10.96,6.61,5.24,16.06,8.98,20.96,8.3Z"/>
        <path class="cls-1" d="M317.06,517.71c6.97-.43,5.92-5.84-2.19-12.01-8.17-6.22-20.07-10.84-26.58-10.28-6.49,.56-5.51,5.98,2.19,12.06,7.63,6.05,19.61,10.65,26.57,10.22Z"/>
        <path class="cls-1" d="M376.81,563.83c-8.8,.26-8.86,6.09-.14,13,8.65,6.84,23.39,12.41,32.81,12.32,9.43-.09,9.38-5.91,.13-12.93-9.32-7.08-24.03-12.63-32.81-12.38Z"/>
        <path class="cls-1" d="M4.44,258.94c1.08-.76-1.25-3.75-5.15-6.63-3.89-2.87-7.94-4.58-8.9-3.81-.98,.78,1.34,3.78,5.15,6.62,3.8,2.85,7.82,4.58,8.89,3.82Z"/>
        <path class="cls-1" d="M102.91,332.01c2.16-.77-.21-4.49-5.3-8.21-5.07-3.74-10.91-6.14-12.91-5.32-2,.82,.4,4.53,5.31,8.22,4.91,3.69,10.73,6.08,12.9,5.31Z"/>
        <path class="cls-1" d="M201.45,405.09c3.64-.71,1.45-5.05-4.83-9.63-6.29-4.61-14.18-7.76-17.55-6.99-3.38,.77-1.18,5.11,4.84,9.66,6.03,4.51,13.9,7.67,17.54,6.97Z"/>
        <path class="cls-1" d="M300.06,478.2c5.46-.53,3.72-5.43-3.73-10.89-7.5-5.49-17.74-9.46-22.82-8.84-5.07,.62-3.4,5.54,3.75,10.92,7.09,5.36,17.37,9.32,22.8,8.8Z"/>
        <path class="cls-1" d="M398.75,551.32c7.61-.25,6.63-5.65-2.02-11.97-8.73-6.36-21.6-11.24-28.72-10.85-7.13,.39-6.18,5.77,2.03,12.02,8.19,6.18,21.1,11.06,28.71,10.8Z"/>
        <path class="cls-1" d="M462.6,598.54c-9.52,.06-9.66,5.87-.33,12.94,9.25,7.02,25.11,12.86,35.25,12.97,10.14,.11,10.19-5.7,.32-12.88-9.94-7.25-25.72-13.09-35.23-13.03Z"/>
        <path class="cls-1" d="M68.48,289.54c1.8-.88-1.15-4.74-6.54-8.54-5.39-3.82-11.14-6.2-12.77-5.28-1.63,.93,1.33,4.78,6.54,8.55,5.21,3.76,10.96,6.15,12.76,5.27Z"/>
        <path class="cls-1" d="M172.91,364.21c3.17-.82,.28-5.35-6.35-10.04-6.66-4.71-14.47-7.84-17.38-6.95-2.9,.89-.04,5.42,6.35,10.06,6.38,4.62,14.21,7.75,17.37,6.92Z"/>
        <path class="cls-1" d="M277.41,438.89c4.88-.67,2.38-5.8-5.53-11.37-7.94-5.61-18.11-9.55-22.62-8.78-4.54,.77-2.02,5.89,5.54,11.4,7.52,5.47,17.7,9.42,22.6,8.75Z"/>
        <path class="cls-1" d="M381.97,513.6c6.98-.43,5.07-6.07-4.08-12.52-9.26-6.49-21.99-11.35-28.49-10.79-6.49,.56-4.65,6.21,4.11,12.58,8.68,6.32,21.49,11.17,28.47,10.74Z"/>
        <path class="cls-1" d="M449.61,561.85c-8.79,.26-7.88,6.35,2.03,13.58,9.83,7.17,25.58,12.98,34.97,12.9,9.42-.09,8.42-6.18-2.02-13.52-10.53-7.4-26.19-13.22-34.98-12.96Z"/>
        <path class="cls-1" d="M26.45,243.31c1.08-.76-1.64-3.86-6.02-6.86-4.38-3-8.81-4.82-9.77-4.04-.98,.78,1.75,3.88,6.02,6.85,4.3,2.97,8.7,4.8,9.77,4.05Z"/>
        <path class="cls-1" d="M137.14,319.65c2.18-.77-.71-4.63-6.43-8.52-5.7-3.91-12.03-6.44-14.04-5.62-2,.82,.91,4.66,6.44,8.53,5.53,3.85,11.87,6.38,14.04,5.61Z"/>
        <path class="cls-1" d="M247.89,396.02c3.64-.7,.81-5.21-6.22-10.01-7.05-4.82-15.58-8.13-18.94-7.37-3.38,.77-.56,5.28,6.24,10.03,6.78,4.72,15.3,8.04,18.92,7.34Z"/>
        <path class="cls-1" d="M358.73,472.41c5.44-.53,2.98-5.63-5.38-11.33-8.41-5.73-19.4-9.9-24.47-9.28-5.08,.63-2.65,5.73,5.4,11.36,8.01,5.59,19,9.77,24.45,9.24Z"/>
        <path class="cls-1" d="M469.64,548.82c7.62-.26,5.79-5.88-3.92-12.48-9.77-6.65-23.5-11.75-30.63-11.36-7.12,.38-5.37,6.02,3.93,12.53,9.21,6.47,23.01,11.57,30.62,11.31Z"/>
        <path class="cls-1" d="M541.37,598.16c-9.51,.06-8.67,6.12,1.84,13.52,10.46,7.33,27.26,13.45,37.4,13.56,10.15,.1,9.21-5.96-1.83-13.46-11.16-7.56-27.89-13.68-37.41-13.61Z"/>
        <path class="cls-1" d="M1922.21,198.94c9.5-.05,15.49-4.29,13.35-9.44-2.14-5.1-12.15-9.38-22.29-9.49-10.14-.11-16.04,4.13-13.28,9.4,2.78,5.31,12.72,9.59,22.22,9.53Z"/>
        <path class="cls-1" d="M1919.68,261.54c-6.98,.43-10.22,4.69-7.32,9.46,2.92,4.8,10.54,8.27,17.03,7.71,6.48-.55,9.8-4.83,7.36-9.5-2.42-4.64-10.09-8.1-17.06-7.67Z"/>
        <path class="cls-1" d="M1899.38,226.01c8.81-.26,13.72-4.78,10.98-10.08-2.71-5.26-12.6-9.5-22.02-9.42-9.42,.09-14.26,4.61-10.93,10.03,3.36,5.47,13.19,9.71,21.97,9.46Z"/>
        <path class="cls-1" d="M1905.43,292.65c-5.43,.52-7.42,4.43-4.49,8.67,2.96,4.27,9.49,7.24,14.57,6.62,5.09-.63,7.11-4.54,4.51-8.7-2.58-4.14-9.15-7.12-14.59-6.59Z"/>
        <path class="cls-1" d="M1867.84,235.95c-7.61,.26-10.92,4.49-7.49,9.41,3.47,4.95,12.05,8.67,19.17,8.28,7.14-.39,10.51-4.63,7.53-9.45-2.95-4.78-11.6-8.5-19.2-8.24Z"/>
        <path class="cls-1" d="M1843.44,199.32c9.5-.06,14.53-4.56,11.18-10.03-3.32-5.42-14.3-9.97-24.45-10.07-10.13-.11-15.08,4.4-11.12,9.98,3.97,5.64,14.88,10.18,24.4,10.12Z"/>
        <path class="cls-1" d="M1898.25,323.93c-4.9,.68-6.06,4.79-2.7,9.15,3.4,4.38,9.86,7.33,14.37,6.57,4.52-.77,5.75-4.9,2.71-9.19-3.02-4.26-9.51-7.2-14.38-6.53Z"/>
        <path class="cls-1" d="M1854.77,265.64c-6.98,.43-9.37,4.92-5.42,9.97,3.97,5.09,12.44,8.78,18.94,8.22,6.48-.56,8.94-5.05,5.45-10.01-3.46-4.92-12.01-8.6-18.96-8.18Z"/>
        <path class="cls-1" d="M1826.58,228c8.76-.24,12.74-5.04,8.81-10.66-3.89-5.58-14.76-10.09-24.18-10-9.43,.09-13.29,4.87-8.77,10.61,4.54,5.8,15.34,10.3,24.13,10.05Z"/>
        <path class="cls-1" d="M1896.51,358.41c-3.64,.7-3.91,4.36-.72,8.14,3.23,3.79,8.61,6.27,11.99,5.5,3.38-.77,3.7-4.44,.72-8.16-2.98-3.7-8.35-6.18-11.99-5.48Z"/>
        <path class="cls-1" d="M1846.77,298.44c-5.45,.53-6.68,4.63-2.84,9.11,3.87,4.51,11.13,7.69,16.22,7.06,5.09-.63,6.36-4.74,2.86-9.15-3.49-4.38-10.79-7.56-16.23-7.03Z"/>
        <path class="cls-1" d="M1796.96,238.45c-7.63,.27-10.06,4.73-5.59,9.92,4.52,5.23,13.94,9.19,21.08,8.8,7.11-.38,9.64-4.86,5.62-9.96-4-5.07-13.5-9.01-21.11-8.76Z"/>
        <path class="cls-1" d="M1764.66,199.71c9.52-.06,13.57-4.82,9.02-10.61-4.51-5.74-16.48-10.54-26.62-10.65-10.14-.1-14.09,4.65-8.96,10.56,5.18,5.95,17.05,10.76,26.56,10.7Z"/>
        <path class="cls-1" d="M1901.19,392.87c-3.18,.83-2.78,4.67,.8,8.55,3.61,3.88,8.91,6.35,11.82,5.45,2.9-.89,2.57-4.76-.79-8.57-3.32-3.81-8.66-6.25-11.82-5.43Z"/>
        <path class="cls-1" d="M1845.56,331.32c-4.89,.67-5.31,4.99-1.05,9.6,4.31,4.63,11.48,7.79,16.02,7.01,4.53-.77,4.99-5.1,1.06-9.63-3.93-4.5-11.15-7.65-16.02-6.98Z"/>
        <path class="cls-1" d="M1789.86,269.75c-7,.44-8.51,5.16-3.52,10.48,5.03,5.37,14.35,9.3,20.85,8.74,6.47-.55,8.09-5.29,3.54-10.52-4.5-5.2-13.9-9.12-20.87-8.69Z"/>
        <path class="cls-1" d="M1753.78,229.99c8.79-.25,11.78-5.3,6.64-11.25-5.08-5.89-16.92-10.66-26.34-10.58-9.4,.08-12.32,5.14-6.61,11.19,5.74,6.12,17.51,10.89,26.3,10.63Z"/>
        <path class="cls-1" d="M1911.97,430.71c-2.18,.78-1.33,4.08,1.91,7.3,3.21,3.24,7.51,5.22,9.52,4.4,2-.82,1.12-4.11-1.92-7.31-3.06-3.18-7.33-5.17-9.51-4.4Z"/>
        <path class="cls-1" d="M1850.07,367.48c-3.64,.7-3.32,4.54,.67,8.51,3.99,4,10.01,6.64,13.38,5.87,3.39-.78,3.05-4.6-.67-8.54-3.73-3.9-9.74-6.56-13.38-5.85Z"/>
        <path class="cls-1" d="M1788.11,304.22c-5.44,.53-5.94,4.83-1.2,9.56,4.77,4.76,12.79,8.13,17.87,7.51,5.08-.62,5.62-4.93,1.21-9.59-4.38-4.63-12.44-8-17.88-7.47Z"/>
        <path class="cls-1" d="M1726.08,240.95c-7.62,.26-9.2,4.96-3.69,10.43,5.59,5.51,15.85,9.7,22.99,9.31,7.13-.39,8.79-5.09,3.7-10.48-5.07-5.33-15.38-9.53-23-9.27Z"/>
        <path class="cls-1" d="M1685.9,200.09c9.51-.06,12.58-5.08,6.84-11.19-5.69-6.06-18.64-11.12-28.77-11.23-10.14-.11-13.12,4.92-6.8,11.14,6.39,6.27,19.2,11.35,28.73,11.28Z"/>
        <path class="cls-1" d="M1860.71,403.54c-3.16,.82-2.18,4.85,2.18,8.92,4.34,4.1,10.31,6.71,13.21,5.83,2.92-.9,1.91-4.91-2.18-8.94-4.11-4-10.04-6.63-13.21-5.8Z"/>
        <path class="cls-1" d="M1792.87,338.71c-4.9,.68-4.58,5.2,.6,10.04,5.22,4.87,13.15,8.22,17.67,7.45,4.52-.77,4.26-5.3-.59-10.07-4.83-4.74-12.78-8.1-17.67-7.42Z"/>
        <path class="cls-1" d="M1724.95,273.86c-6.96,.42-7.65,5.38-1.62,10.99,6.07,5.65,16.26,9.81,22.76,9.25,6.48-.56,7.2-5.5,1.63-11.04-5.55-5.48-15.79-9.63-22.77-9.2Z"/>
        <path class="cls-1" d="M1680.98,231.97c8.79-.25,10.8-5.56,4.47-11.83-6.27-6.21-19.09-11.24-28.49-11.16-9.41,.09-11.34,5.39-4.45,11.77,6.95,6.43,19.67,11.47,28.47,11.21Z"/>
        <path class="cls-1" d="M1877.73,443.06c-2.15,.76-.8,4.21,3.05,7.6,3.85,3.4,8.66,5.52,10.64,4.71,2-.82,.63-4.26-3.05-7.61-3.67-3.35-8.47-5.48-10.64-4.7Z"/>
        <path class="cls-1" d="M1803.62,376.55c-3.62,.7-2.68,4.7,2.06,8.89,4.77,4.2,11.4,7.01,14.77,6.25,3.37-.77,2.44-4.78-2.06-8.91-4.47-4.12-11.17-6.91-14.77-6.22Z"/>
        <path class="cls-1" d="M1729.45,310.01c-5.45,.53-5.21,5.04,.45,10,5.69,4.99,14.43,8.58,19.52,7.95,5.07-.62,4.88-5.13-.44-10.03-5.3-4.87-14.07-8.45-19.52-7.92Z"/>
        <path class="cls-1" d="M1655.2,243.45c-7.61,.26-8.36,5.19-1.79,10.95,6.62,5.8,17.78,10.21,24.9,9.82,7.11-.38,7.93-5.32,1.79-10.99-6.11-5.62-17.29-10.04-24.9-9.78Z"/>
        <path class="cls-1" d="M1607.13,200.47c9.51-.06,11.61-5.34,4.67-11.78-6.89-6.37-20.78-11.71-30.93-11.81-10.13-.11-12.15,5.18-4.65,11.72,7.56,6.6,21.38,11.93,30.9,11.86Z"/>
        <path class="cls-1" d="M1900.23,482.32c-1.8,.88,.15,4.45,4.27,7.94,4.16,3.48,8.86,5.6,10.51,4.67,1.62-.92-.31-4.5-4.28-7.95-3.94-3.44-8.71-5.54-10.5-4.66Z"/>
        <path class="cls-1" d="M1820.24,414.22c-3.17,.83-1.55,5.02,3.57,9.29,5.12,4.3,11.69,7.09,14.6,6.2,2.9-.89,1.29-5.08-3.57-9.32-4.85-4.21-11.42-7-14.59-6.18Z"/>
        <path class="cls-1" d="M1740.17,346.1c-4.91,.68-3.84,5.39,2.24,10.48,6.13,5.11,14.79,8.67,19.32,7.9,4.51-.76,3.52-5.5-2.24-10.52-5.71-4.99-14.45-8.52-19.31-7.86Z"/>
        <path class="cls-1" d="M1660.04,277.96c-6.97,.43-6.78,5.61,.29,11.5,7.11,5.94,18.2,10.31,24.67,9.76,6.49-.56,6.37-5.75-.28-11.55-6.59-5.76-17.71-10.14-24.67-9.71Z"/>
        <path class="cls-1" d="M1608.19,233.96c8.78-.25,9.82-5.83,2.31-12.41-7.46-6.53-21.26-11.82-30.65-11.74-9.41,.08-10.38,5.66-2.29,12.35,8.14,6.76,21.84,12.05,30.64,11.8Z"/>
        <path class="cls-1" d="M1843.51,455.41c-2.17,.77-.28,4.34,4.17,7.91,4.46,3.57,9.77,5.83,11.78,5.01,2-.82,.12-4.4-4.18-7.92-4.27-3.53-9.6-5.78-11.77-5.01Z"/>
        <path class="cls-1" d="M1757.18,385.62c-3.61,.69-2.07,4.88,3.44,9.26,5.53,4.41,12.8,7.38,16.16,6.62,3.37-.77,1.82-4.95-3.45-9.28-5.24-4.32-12.52-7.3-16.15-6.6Z"/>
        <path class="cls-1" d="M1670.79,315.79c-5.45,.53-4.46,5.24,2.09,10.44,6.59,5.24,16.1,9.01,21.17,8.39,5.07-.62,4.14-5.33-2.09-10.48-6.19-5.11-15.75-8.87-21.16-8.36Z"/>
        <path class="cls-1" d="M1584.32,245.96c-7.59,.25-7.5,5.42,.12,11.46,7.67,6.08,19.67,10.73,26.81,10.34,7.13-.39,7.09-5.56-.11-11.5-7.15-5.9-19.19-10.55-26.81-10.29Z"/>
        <path class="cls-1" d="M1528.36,200.85c9.51-.06,10.66-5.62,2.51-12.36-8.07-6.7-22.95-12.28-33.09-12.39-10.13-.11-11.17,5.44-2.48,12.3,8.77,6.92,23.56,12.51,33.07,12.45Z"/>
        <path class="cls-1" d="M1871.97,496.27c-1.8,.88,.65,4.6,5.4,8.24,4.76,3.66,10.01,5.9,11.64,4.98,1.62-.92-.83-4.64-5.41-8.25-4.59-3.6-9.84-5.84-11.63-4.97Z"/>
        <path class="cls-1" d="M1779.76,424.89c-3.17,.83-.9,5.18,4.96,9.67,5.9,4.5,13.09,7.46,15.99,6.57,2.91-.89,.67-5.25-4.96-9.69-5.6-4.42-12.81-7.38-15.98-6.55Z"/>
        <path class="cls-1" d="M1687.48,353.49c-4.89,.67-3.11,5.6,3.89,10.92,7.02,5.36,16.43,9.12,20.97,8.34,4.53-.77,2.78-5.7-3.89-10.96-6.61-5.24-16.06-8.98-20.96-8.3Z"/>
        <path class="cls-1" d="M1595.13,282.07c-6.97,.43-5.92,5.84,2.19,12.01,8.17,6.22,20.07,10.84,26.58,10.28,6.49-.56,5.51-5.98-2.19-12.06-7.63-6.05-19.61-10.65-26.57-10.22Z"/>
        <path class="cls-1" d="M1535.38,235.95c8.8-.26,8.86-6.09,.14-13-8.65-6.84-23.39-12.41-32.81-12.32-9.43,.09-9.38,5.91-.13,12.93,9.32,7.08,24.03,12.63,32.81,12.38Z"/>
        <path class="cls-1" d="M1907.76,540.83c-1.08,.76,1.25,3.75,5.15,6.63,3.89,2.87,7.94,4.58,8.9,3.81,.98-.78-1.34-3.78-5.15-6.62-3.8-2.85-7.82-4.58-8.89-3.82Z"/>
        <path class="cls-1" d="M1809.28,467.77c-2.16,.77,.21,4.49,5.3,8.21,5.07,3.74,10.91,6.14,12.91,5.32,2-.82-.4-4.53-5.31-8.22-4.91-3.69-10.73-6.08-12.9-5.31Z"/>
        <path class="cls-1" d="M1710.74,394.68c-3.64,.71-1.45,5.05,4.83,9.63,6.29,4.61,14.18,7.76,17.55,6.99,3.38-.77,1.18-5.11-4.84-9.66-6.03-4.51-13.9-7.67-17.54-6.97Z"/>
        <path class="cls-1" d="M1612.13,321.58c-5.46,.53-3.72,5.43,3.73,10.89,7.5,5.49,17.74,9.46,22.82,8.84,5.07-.62,3.4-5.54-3.75-10.92-7.09-5.36-17.37-9.32-22.8-8.8Z"/>
        <path class="cls-1" d="M1513.44,248.46c-7.61,.25-6.63,5.65,2.02,11.97,8.73,6.36,21.6,11.24,28.72,10.85,7.13-.39,6.18-5.77-2.03-12.02-8.19-6.18-21.1-11.06-28.71-10.8Z"/>
        <path class="cls-1" d="M1449.59,201.23c9.52-.06,9.66-5.87,.33-12.94-9.25-7.02-25.11-12.86-35.25-12.97-10.14-.11-10.19,5.7-.32,12.88,9.94,7.25,25.72,13.09,35.23,13.03Z"/>
        <path class="cls-1" d="M1843.71,510.23c-1.8,.88,1.15,4.74,6.54,8.54,5.39,3.82,11.14,6.2,12.77,5.28,1.63-.93-1.33-4.78-6.54-8.55-5.21-3.76-10.96-6.15-12.76-5.27Z"/>
        <path class="cls-1" d="M1739.29,435.57c-3.17,.82-.28,5.35,6.35,10.04,6.66,4.71,14.47,7.84,17.38,6.95,2.9-.89,.04-5.42-6.35-10.06-6.38-4.62-14.21-7.75-17.37-6.92Z"/>
        <path class="cls-1" d="M1634.79,360.88c-4.88,.67-2.38,5.8,5.53,11.37,7.94,5.61,18.11,9.55,22.62,8.78,4.54-.77,2.02-5.89-5.54-11.4-7.52-5.47-17.7-9.42-22.6-8.75Z"/>
        <path class="cls-1" d="M1530.22,286.18c-6.98,.43-5.07,6.07,4.08,12.52,9.26,6.49,21.99,11.35,28.49,10.79,6.49-.56,4.65-6.21-4.11-12.58-8.68-6.32-21.49-11.17-28.47-10.74Z"/>
        <path class="cls-1" d="M1462.58,237.93c8.79-.26,7.88-6.35-2.03-13.58-9.83-7.17-25.58-12.98-34.97-12.9-9.42,.09-8.42,6.18,2.02,13.52,10.53,7.4,26.19,13.22,34.98,12.96Z"/>
        <path class="cls-1" d="M1885.75,556.47c-1.08,.76,1.64,3.86,6.02,6.86,4.38,3,8.81,4.82,9.77,4.04,.98-.78-1.75-3.88-6.02-6.85-4.3-2.97-8.7-4.8-9.77-4.05Z"/>
        <path class="cls-1" d="M1775.06,480.12c-2.18,.77,.71,4.63,6.43,8.52,5.7,3.91,12.03,6.44,14.04,5.62,2-.82-.91-4.66-6.44-8.53-5.53-3.85-11.87-6.38-14.04-5.61Z"/>
        <path class="cls-1" d="M1664.3,403.75c-3.64,.7-.81,5.21,6.22,10.01,7.05,4.82,15.58,8.13,18.94,7.37,3.38-.77,.56-5.28-6.24-10.03-6.78-4.72-15.3-8.04-18.92-7.34Z"/>
        <path class="cls-1" d="M1553.46,327.37c-5.44,.53-2.98,5.63,5.38,11.33,8.41,5.73,19.4,9.9,24.47,9.28,5.08-.63,2.65-5.73-5.4-11.36-8.01-5.59-19-9.77-24.45-9.24Z"/>
        <path class="cls-1" d="M1442.55,250.96c-7.62,.26-5.79,5.88,3.92,12.48,9.77,6.65,23.5,11.75,30.63,11.36,7.12-.38,5.37-6.02-3.93-12.53-9.21-6.47-23.01-11.57-30.62-11.31Z"/>
        <path class="cls-1" d="M1370.82,201.61c9.51-.06,8.67-6.12-1.84-13.52-10.46-7.33-27.26-13.45-37.4-13.56-10.15-.1-9.21,5.96,1.83,13.46,11.16,7.56,27.89,13.68,37.41,13.61Z"/>
      </g>
    </g>
  </g>
</svg>